<svg xmlns="http://www.w3.org/2000/svg" id="WM_Illus-B2B_Request-Submitted" width="125" height="125" viewBox="0 0 125 125">
    <defs>
        <style>
            .cls-2{fill:#08f}.cls-3{fill:#7abbf2}.cls-4{fill:#005cad}
        </style>
    </defs>
    <circle id="Ellipse_2217" cx="62.5" cy="62.5" r="62.5" fill="#daf5fd"/>
    <g id="Group_23448" transform="translate(14.379 21.256)">
        <path id="Path_23709" d="M16856.414 2603.532s23.557 12.741 28.789 9.351 24.348-44.775 24.348-44.775 1.613-2.5.855-3.133-3.525 0-3.525 0l-15.5 4.2s-66.846 15.15-67.254 18.206-.494 3.051 17.512 10.882l21.109-8.935 32.1-13.671c-.048-.083-38.434 27.875-38.434 27.875z" class="cls-2" transform="translate(-16817.16 -2552.727)"/>
        <path id="Path_23710" d="M16993.125 2762.543l-15.381 16.743 2.627-22.84z" class="cls-3" transform="translate(-16941.063 -2705.703)"/>
        <path id="Path_23711" d="M16917.447 2714.082s9.842 28.22 12.045 28.1 2.811-22.837 2.811-22.837l-4.937-9.462z" class="cls-4" transform="translate(-16892.957 -2668.557)"/>
        <path id="Path_23712" d="M16950.973 2520.9s-.215-2.393 1.158-3.6a5.353 5.353 0 0 1 2.389-1.358l36.121-10.3s1.332-.468 1.871.318a4.531 4.531 0 0 1 .566 2.1l.393 23.118-34.5 25.108-.043 1.175-3.285 1.874a3.78 3.78 0 0 1-2.035.212c-.766-.272-.74-1.3-.74-1.3z" class="cls-3" transform="translate(-16919.623 -2505.513)"/>
        <path id="Path_23713" d="M16909.609 2728.307l-8.877 4.7 2.172 2.762 7.725-5.9z" class="cls-4" transform="translate(-16894.963 -2677.564)"/>
        <path id="Path_23714" d="M16895.371 2777.091l1.211 1.639-15.113 13.393-1.766-2.271z" class="cls-2" transform="translate(-16879.703 -2712.965)"/>
        <path id="Path_23715" d="M17013.416 2583.735l.264 5.233 32.986-12.222v-3.591z" class="cls-2" transform="translate(-16976.734 -2564.978)"/>
        <path id="Path_23716" d="M17014.375 2580.7l.24 4.973 32.557-14.931v-2.753z" class="cls-2" transform="translate(-16976.879 -2551.903)"/>
    </g>
</svg>
