<svg xmlns="http://www.w3.org/2000/svg" width="48.225" height="55" viewBox="0 0 48.225 55">
    <defs>
        <style>
            .cls-1{fill:#79e2f3}.cls-2{fill:#79f3c1}.cls-4{fill:#1d80f5}.cls-5{fill:#005aac}
        </style>
    </defs>
    <g id="Group_23365" data-name="Group 23365" transform="translate(-423.729 -347)">
        <g id="Group_23364" data-name="Group 23364" transform="translate(423.729 347)">
            <path id="Path_23099" d="M329.114 177.248v-26.972l-17.968-8.553v35.525h17.968z" class="cls-1" data-name="Path 23099" transform="translate(-282.617 -122.272)"/>
            <path id="Path_23101" d="M74.728 262.741h23.878v-27.793H74.728z" class="cls-2" data-name="Path 23101" transform="translate(-73.57 -207.74)"/>
            <path id="Path_23103" d="M97.843 121.263h18.525v13.28H97.843z" class="cls-1" data-name="Path 23103" transform="translate(-94.009 -107.224)"/>
            <path id="Path_23105" fill="#ffc402" d="M171.133 5.422a.906.906 0 0 1-.927-.885V.885l.927-.885.927.885v3.653a.907.907 0 0 1-.927.884z" data-name="Path 23105" transform="translate(-157.994)"/>
            <path id="Path_23106" d="M97.65 269.064V289.9h1.85v-20.836z" class="cls-4" data-name="Path 23106" transform="translate(-93.798 -237.913)"/>
            <path id="Path_23107" d="M126.672 269.064V289.9h1.853v-20.836z" class="cls-4" data-name="Path 23107" transform="translate(-118.652 -237.913)"/>
            <path id="Path_23108" d="M155.7 269.064V289.9h1.853v-20.84z" class="cls-4" data-name="Path 23108" transform="translate(-143.507 -237.913)"/>
            <g id="Group_23331" data-name="Group 23331" transform="translate(16.356 31.151)">
                <path id="Path_23110" d="M213.738 289.9v-20.84h1.853v20.84z" class="cls-4" data-name="Path 23110" transform="translate(-213.738 -269.064)"/>
            </g>
            <g id="Group_23332" data-name="Group 23332" transform="translate(7.21 17.266)">
                <path id="Path_23111" d="M126.673 156.179v-7.045h1.853v7.045z" class="cls-4" data-name="Path 23111" transform="translate(-126.673 -149.134)"/>
            </g>
            <g id="Group_23333" data-name="Group 23333" transform="translate(12.188 17.266)">
                <path id="Path_23112" d="M155.7 156.179v-7.045h1.853v7.045z" class="cls-4" data-name="Path 23112" transform="translate(-155.695 -149.134)"/>
            </g>
            <g id="Group_23335" data-name="Group 23335" transform="translate(17.282 17.266)">
                <path id="Path_23114" d="M213.739 156.179v-7.045h1.853v7.045z" class="cls-4" data-name="Path 23114" transform="translate(-213.739 -149.134)"/>
            </g>
            <g id="Group_23337" data-name="Group 23337" transform="translate(20.64 31.151)">
                <path id="Path_23116" d="M242.761 289.9v-20.84h1.853v20.84z" class="cls-4" data-name="Path 23116" transform="translate(-242.761 -269.064)"/>
            </g>
            <path id="Path_23117" d="M135.937 44.867h9.7v8.845h-9.7z" class="cls-2" data-name="Path 23117" transform="translate(-127.693 -39.672)"/>
            <path id="Path_23121" d="M353.714 241.775h-10.4v-1.853h10.4z" class="cls-4" data-name="Path 23121" transform="translate(-311.058 -208.662)"/>
            <path id="Path_23128" d="M322.81 143.462l-19.955-9.655.851-1.632 19.879 9.7z" class="cls-5" data-name="Path 23128" transform="translate(-275.359 -114.441)"/>
            <g id="Group_23357" data-name="Group 23357" transform="translate(7.086 4.31)">
                <path id="Path_23143" d="M137.957 39.077h-12.02v-1.853h12.02z" class="cls-5" data-name="Path 23143" transform="translate(-125.937 -37.224)"/>
            </g>
            <g id="Group_23358" data-name="Group 23358" transform="translate(2.677 13.155)">
                <path id="Path_23144" d="M108.684 115.474H87.843v-1.853h20.841z" class="cls-5" data-name="Path 23144" transform="translate(-87.843 -113.621)"/>
            </g>
            <g id="Group_23359" data-name="Group 23359" transform="translate(0 26.317)">
                <path id="Path_23145" d="M90.921 229.159H64.728v-1.853h26.193z" class="cls-5" data-name="Path 23145" transform="translate(-64.728 -227.306)"/>
            </g>
            <g id="Group_23360" data-name="Group 23360" transform="translate(10.532 7.813)">
                <path id="Path_23146" d="M155.7 65.124V61.48h1.853v3.644z" class="cls-4" data-name="Path 23146" transform="translate(-155.695 -61.48)"/>
            </g>
            <g id="Group_23361" data-name="Group 23361" transform="translate(13.892 7.813)">
                <path id="Path_23147" d="M184.717 65.124V61.48h1.853v3.644z" class="cls-4" data-name="Path 23147" transform="translate(-184.717 -61.48)"/>
            </g>
            <path id="Path_23148" d="M353.714 241.775h-10.4v-1.853h10.4z" class="cls-4" data-name="Path 23148" transform="translate(-311.095 -203.452)"/>
            <path id="Path_23149" d="M353.714 241.775h-10.4v-1.853h10.4z" class="cls-4" data-name="Path 23149" transform="translate(-311.095 -198.242)"/>
        </g>
    </g>
</svg>
