<svg xmlns="http://www.w3.org/2000/svg" width="16" height="11.636" viewBox="0 0 16 11.636">
    <g id="truck_2_" data-name="truck (2)" transform="translate(0 -64)">
        <g id="Group_23422" data-name="Group 23422" transform="translate(0 64)">
            <path id="Path_23512" fill="#97a2a8" d="M13.818 66.909h-2.182V64H1.455A1.454 1.454 0 0 0 0 65.455v8h1.455a2.182 2.182 0 1 0 4.364 0h4.364a2.182 2.182 0 1 0 4.364 0H16v-3.637zM3.636 74.545a1.091 1.091 0 1 1 1.091-1.091 1.089 1.089 0 0 1-1.091 1.091zm8.727 0a1.091 1.091 0 1 1 1.091-1.091 1.089 1.089 0 0 1-1.09 1.091zm-.727-4.727V68h1.818l1.429 1.818z" data-name="Path 23512" transform="translate(0 -64)"/>
        </g>
    </g>
</svg>
