<svg xmlns="http://www.w3.org/2000/svg" width="37.968" height="55" viewBox="0 0 37.968 55">
    <g id="woman">
        <path id="Path_23080" fill="#ffdfba" d="M110.367 49.756c0 5.215-33.991.637-36.773 0a8.907 8.907 0 0 1 5.225-8.11 13.963 13.963 0 0 1-4.568-5.238 12.624 12.624 0 0 1 .864-12.485 12.28 12.28 0 0 0 2.061-6.81v-5.174A11.939 11.939 0 0 1 89.115 0h5.731a11.939 11.939 0 0 1 11.939 11.939c0 5.479-.134 6.551.527 8.73.932 3.08 2.163 3.462 3.111 6.6A12.632 12.632 0 0 1 106.2 40.8l-1.058.842a8.907 8.907 0 0 1 5.225 8.114z" data-name="Path 23080" transform="translate(-72.997)"/>
        <path id="Path_23081" fill="#79f3c1" d="M114.774 347.806c-.185 7.634-36.455 6.32-36.773 0a8.9 8.9 0 0 1 8.9-8.9 4.94 4.94 0 0 0 2.051-.443l.03.064L95.8 343.8a.955.955 0 0 0 1.169 0l6.818-5.278.03-.064a4.94 4.94 0 0 0 2.051.443 8.9 8.9 0 0 1 8.906 8.905z" data-name="Path 23081" transform="translate(-77.404 -298.05)"/>
        <path id="Path_23082" fill="#ffebd2" d="M155.737 115.3a.956.956 0 0 1 .9.953v5.717a11.82 11.82 0 1 1-23.64 0v-5.634a.954.954 0 0 1 1.037-.952 24.712 24.712 0 0 0 16.109-4.119.952.952 0 0 1 1.451.533 4.456 4.456 0 0 0 4.139 3.5z" data-name="Path 23082" transform="translate(-125.837 -97.836)"/>
        <path id="Path_23083" fill="#005aac" d="M106.207 40.8l-1.058.842a8.881 8.881 0 0 0-3.678-.793 4.939 4.939 0 0 1-4.946-4.936V35.1l-.018-.044a11.821 11.821 0 0 0 7.3-10.924v-5.716a.956.956 0 0 0-.9-.953 4.453 4.453 0 0 1-4.139-3.5.952.952 0 0 0-1.451-.533A24.713 24.713 0 0 1 81.2 17.547a.954.954 0 0 0-1.037.952v5.634a11.821 11.821 0 0 0 7.3 10.924l-.018.044v.815a4.939 4.939 0 0 1-4.945 4.937 8.881 8.881 0 0 0-3.678.793l-1.055-.846a12.631 12.631 0 0 1-2.646-16.881 12.28 12.28 0 0 0 2.061-6.81v-5.17A11.939 11.939 0 0 1 89.121 0h5.731a11.939 11.939 0 0 1 11.939 11.939v5.173a12.287 12.287 0 0 0 2.061 6.81 12.632 12.632 0 0 1-2.645 16.878z" data-name="Path 23083" transform="translate(-73.003)"/>
        <path id="Path_23084" fill="#ffd6a6" d="M202.215 295.635a11.852 11.852 0 0 1-9.344 0 7.4 7.4 0 0 0 .135-1.96l.018-.044a11.844 11.844 0 0 0 9.038 0l.018.044a7.4 7.4 0 0 0 .135 1.96z" data-name="Path 23084" transform="translate(-178.559 -258.573)"/>
    </g>
</svg>
