<svg xmlns="http://www.w3.org/2000/svg" xmlns:xlink="http://www.w3.org/1999/xlink" width="150" height="100" viewBox="0 0 150 100">
  <defs>
    <style>
      .cls-1 {
        fill: #fff;
      }

      .cls-2 {
        fill: none;
      }

      .cls-3 {
        fill: #7673c0;
      }

      .cls-4 {
        fill: #eb001b;
      }

      .cls-5 {
        fill: #00a1df;
      }

      .cls-6 {
        filter: url(#Rectangle_21138);
      }

      .cls-7 {
        filter: url(#Rectangle_21137);
      }
    </style>
    <filter id="Rectangle_21137" x="6" y="6" width="144" height="94" filterUnits="userSpaceOnUse">
      <feOffset dx="3" dy="3" input="SourceAlpha"/>
      <feGaussianBlur stdDeviation="4" result="blur"/>
      <feFlood flood-color="#eff3fa"/>
      <feComposite operator="in" in2="blur"/>
      <feComposite in="SourceGraphic"/>
    </filter>
    <filter id="Rectangle_21138" x="0" y="0" width="144" height="94" filterUnits="userSpaceOnUse">
      <feOffset dx="-3" dy="-3" input="SourceAlpha"/>
      <feGaussianBlur stdDeviation="4" result="blur-2"/>
      <feFlood flood-color="#eff3fa"/>
      <feComposite operator="in" in2="blur-2"/>
      <feComposite in="SourceGraphic"/>
    </filter>
  </defs>
  <g id="Group_23479" data-name="Group 23479" transform="translate(-591 -998)">
    <g id="W_Card_Bg_with_shadow" data-name="W/Card Bg with shadow" transform="translate(606 1013)">
      <g class="cls-7" transform="matrix(1, 0, 0, 1, -15, -15)">
        <rect id="Rectangle_21137-2" data-name="Rectangle 21137" class="cls-1" width="120" height="70" rx="6" transform="translate(15 15)"/>
      </g>
      <g class="cls-6" transform="matrix(1, 0, 0, 1, -15, -15)">
        <rect id="Rectangle_21138-2" data-name="Rectangle 21138" class="cls-1" width="120" height="70" rx="6" transform="translate(15 15)"/>
      </g>
    </g>
    <g id="Group_23473" data-name="Group 23473" transform="translate(-1317 -7488)">
      <g id="ms_vrt_pos" transform="translate(1950 8509)">
        <rect id="Rectangle_21134" data-name="Rectangle 21134" class="cls-2" width="66.917" height="55"/>
        <path id="Path_23133" data-name="Path 23133" d="M364.757,344.146v-2.735a1.618,1.618,0,0,0-1.71-1.728,1.687,1.687,0,0,0-1.532.775,1.6,1.6,0,0,0-1.441-.775,1.441,1.441,0,0,0-1.277.647v-.538h-.948v4.354h.957v-2.412a1.017,1.017,0,0,1,1.067-1.158c.629,0,.948.41.948,1.149v2.421h.957v-2.412a1.026,1.026,0,0,1,1.067-1.158c.647,0,.957.41.957,1.149v2.421Zm5.334-2.175V339.8h-.957v.529a1.651,1.651,0,0,0-1.368-.638,2.28,2.28,0,0,0,0,4.559,1.65,1.65,0,0,0,1.368-.638v.529h.948Zm-3.524,0a1.318,1.318,0,1,1,1.322,1.4,1.3,1.3,0,0,1-1.331-1.4Zm23.785-2.279a2.451,2.451,0,0,1,.912.173,2.28,2.28,0,0,1,.743.483,2.207,2.207,0,0,1,.492.725,2.416,2.416,0,0,1,0,1.824,2.2,2.2,0,0,1-.492.725,2.279,2.279,0,0,1-.743.483,2.58,2.58,0,0,1-1.869,0,2.253,2.253,0,0,1-.739-.483,2.224,2.224,0,0,1-.488-.725,2.421,2.421,0,0,1,0-1.824,2.225,2.225,0,0,1,.488-.725,2.252,2.252,0,0,1,.739-.483,2.451,2.451,0,0,1,.948-.187Zm0,.912a1.414,1.414,0,0,0-.543.1,1.282,1.282,0,0,0-.433.287,1.335,1.335,0,0,0-.287.456,1.582,1.582,0,0,0,0,1.131,1.331,1.331,0,0,0,.287.456,1.276,1.276,0,0,0,.433.287,1.482,1.482,0,0,0,1.08,0,1.3,1.3,0,0,0,.456-.287,1.322,1.322,0,0,0,.287-.456,1.582,1.582,0,0,0,0-1.131,1.322,1.322,0,0,0-.287-.456,1.3,1.3,0,0,0-.456-.287,1.413,1.413,0,0,0-.547-.128Zm-15.109,1.368a2.071,2.071,0,0,0-2.065-2.279,2.28,2.28,0,1,0,.064,4.559,2.644,2.644,0,0,0,1.783-.611l-.456-.7a2.074,2.074,0,0,1-1.267.456,1.208,1.208,0,0,1-1.3-1.067h3.232A2.976,2.976,0,0,0,375.243,341.971ZM372,341.588a1.122,1.122,0,0,1,1.144-1.053,1.08,1.08,0,0,1,1.1,1.058Zm7.231-.684a2.8,2.8,0,0,0-1.368-.374c-.52,0-.83.191-.83.511s.328.374.739.429l.456.064c.948.137,1.523.538,1.523,1.3s-.729,1.422-1.983,1.422a3.141,3.141,0,0,1-1.883-.565l.456-.739a2.321,2.321,0,0,0,1.45.456c.647,0,.994-.192.994-.529,0-.246-.246-.383-.766-.456l-.456-.064c-.976-.137-1.5-.574-1.5-1.286,0-.866.711-1.4,1.824-1.4a3.255,3.255,0,0,1,1.773.456Zm4.559-.246h-1.546v1.965c0,.456.155.729.629.729a1.75,1.75,0,0,0,.839-.246l.274.811a2.224,2.224,0,0,1-1.185.337c-1.122,0-1.514-.6-1.514-1.614v-1.983H380.4v-.866h.884V338.47h.957v1.322h1.546Zm3.278-.976a2.024,2.024,0,0,1,.675.119l-.292.912a1.541,1.541,0,0,0-.593-.109c-.62,0-.912.4-.912,1.122v2.439H385V339.81h.939v.529a1.286,1.286,0,0,1,1.149-.638Zm6.556,3.83a.438.438,0,0,1,.41.26.424.424,0,0,1,0,.337.436.436,0,0,1-.237.228.428.428,0,0,1-.173.036.456.456,0,0,1-.41-.264.428.428,0,0,1,0-.337.442.442,0,0,1,.387-.26Zm0,.77a.323.323,0,0,0,.132-.027.341.341,0,0,0,.1-.073.337.337,0,0,0-.1-.547.329.329,0,0,0-.132-.027.343.343,0,0,0-.132.027.333.333,0,0,0-.109.073.328.328,0,0,0,.242.556Zm.027-.543a.182.182,0,0,1,.119.036.114.114,0,0,1,.041.1.109.109,0,0,1-.032.082.16.16,0,0,1-.1.041l.132.15h-.1l-.123-.15h-.041v.15h-.087v-.419Zm-.1.078v.109h.1a.1.1,0,0,0,.055,0,27.542,27.542,0,0,0,0-.082.1.1,0,0,0-.055,0Z" transform="translate(-341.784 -296.167)"/>
        <g id="_Group_" data-name="&lt;Group&gt;" transform="translate(6.905 6.898)">
          <rect id="Rectangle_21135" data-name="Rectangle 21135" class="cls-3" width="14.361" height="25.809" transform="translate(19.373 3.51)"/>
          <path id="_Path_" data-name="&lt;Path&gt;" class="cls-4" d="M358.041,277.229a16.385,16.385,0,0,1,6.269-12.907,16.412,16.412,0,1,0,0,25.809A16.385,16.385,0,0,1,358.041,277.229Z" transform="translate(-337.755 -260.813)"/>
          <path id="Path_23134" data-name="Path 23134" class="cls-5" d="M450.418,318.358v-.511h.214v-.109h-.543v.109h.214v.529Zm1.053,0v-.638h-.164l-.191.456-.192-.456h-.169v.638h.119v-.479l.178.415h.123l.178-.415v.483Z" transform="translate(-398.876 -291.775)"/>
          <path id="Path_23135" data-name="Path 23135" class="cls-5" d="M422.552,277.227A16.412,16.412,0,0,1,396,290.129a16.413,16.413,0,0,0,0-25.809,16.412,16.412,0,0,1,26.556,12.9Z" transform="translate(-369.446 -260.811)"/>
        </g>
      </g>
    </g>
  </g>
</svg>
