<svg xmlns="http://www.w3.org/2000/svg" xmlns:xlink="http://www.w3.org/1999/xlink" width="150" height="100" viewBox="0 0 150 100">
  <defs>
    <style>
      .cls-1 {
        fill: #fff;
      }

      .cls-2 {
        fill: none;
      }

      .cls-3 {
        fill: #231f20;
      }

      .cls-4 {
        fill: #ff5f00;
      }

      .cls-5 {
        fill: #eb001b;
      }

      .cls-6 {
        fill: #f79e1b;
      }

      .cls-7 {
        filter: url(#Rectangle_21138);
      }

      .cls-8 {
        filter: url(#Rectangle_21137);
      }
    </style>
    <filter id="Rectangle_21137" x="6" y="6" width="144" height="94" filterUnits="userSpaceOnUse">
      <feOffset dx="3" dy="3" input="SourceAlpha"/>
      <feGaussianBlur stdDeviation="4" result="blur"/>
      <feFlood flood-color="#eff3fa"/>
      <feComposite operator="in" in2="blur"/>
      <feComposite in="SourceGraphic"/>
    </filter>
    <filter id="Rectangle_21138" x="0" y="0" width="144" height="94" filterUnits="userSpaceOnUse">
      <feOffset dx="-3" dy="-3" input="SourceAlpha"/>
      <feGaussianBlur stdDeviation="4" result="blur-2"/>
      <feFlood flood-color="#eff3fa"/>
      <feComposite operator="in" in2="blur-2"/>
      <feComposite in="SourceGraphic"/>
    </filter>
  </defs>
  <g id="Group_23477" data-name="Group 23477" transform="translate(-279 -998)">
    <g id="W_Card_Bg_with_shadow" data-name="W/Card Bg with shadow" transform="translate(294 1013)">
      <g class="cls-8" transform="matrix(1, 0, 0, 1, -15, -15)">
        <rect id="Rectangle_21137-2" data-name="Rectangle 21137" class="cls-1" width="120" height="70" rx="6" transform="translate(15 15)"/>
      </g>
      <g class="cls-7" transform="matrix(1, 0, 0, 1, -15, -15)">
        <rect id="Rectangle_21138-2" data-name="Rectangle 21138" class="cls-1" width="120" height="70" rx="6" transform="translate(15 15)"/>
      </g>
    </g>
    <g id="Layer_2" data-name="Layer 2" transform="translate(320 1021)">
      <g id="Layer_1" data-name="Layer 1">
        <rect id="Rectangle_21132" data-name="Rectangle 21132" class="cls-2" width="67.054" height="55"/>
        <path id="Path_23130" data-name="Path 23130" class="cls-3" d="M28.115,97.981V95.24A1.626,1.626,0,0,0,26.4,93.5a1.69,1.69,0,0,0-1.535.777,1.6,1.6,0,0,0-1.443-.777,1.443,1.443,0,0,0-1.279.649v-.539h-.95v4.367h.959v-2.4a1.023,1.023,0,0,1,1.069-1.16c.63,0,.95.411.95,1.151V98h.959V95.578a1.028,1.028,0,0,1,1.069-1.16c.649,0,.959.411.959,1.151V98Zm14.192-4.367H40.744V92.289h-.959v1.325h-.868v.868H39.8v2.01c0,1.014.393,1.617,1.516,1.617a2.229,2.229,0,0,0,1.188-.338l-.274-.813a1.754,1.754,0,0,1-.84.247c-.457,0-.63-.292-.63-.731V94.482h1.553Zm8.1-.11a1.288,1.288,0,0,0-1.151.639v-.53h-.941v4.367h.95V95.532c0-.722.311-1.124.914-1.124a1.548,1.548,0,0,1,.594.11l.292-.914a2.032,2.032,0,0,0-.676-.119Zm-12.251.457a3.266,3.266,0,0,0-1.781-.457c-1.105,0-1.827.53-1.827,1.4,0,.713.53,1.151,1.507,1.288l.457.064c.521.073.767.21.767.457,0,.338-.347.53-1,.53a2.325,2.325,0,0,1-1.453-.457l-.457.74a3.152,3.152,0,0,0,1.891.566c1.261,0,1.992-.594,1.992-1.425s-.576-1.169-1.526-1.306l-.457-.064c-.411-.055-.74-.137-.74-.429s.311-.512.831-.512a2.814,2.814,0,0,1,1.37.375ZM63.606,93.5a1.288,1.288,0,0,0-1.151.639v-.53h-.941v4.367h.95V95.532c0-.722.311-1.124.914-1.124a1.548,1.548,0,0,1,.594.11l.292-.914a2.032,2.032,0,0,0-.676-.119ZM51.364,95.788a2.206,2.206,0,0,0,2.33,2.284,2.284,2.284,0,0,0,1.571-.521l-.457-.767a1.918,1.918,0,0,1-1.142.393,1.4,1.4,0,0,1,0-2.8,1.918,1.918,0,0,1,1.142.393l.457-.767a2.284,2.284,0,0,0-1.571-.521,2.206,2.206,0,0,0-2.33,2.284Zm8.9,0V93.614h-.95v.53a1.658,1.658,0,0,0-1.37-.639,2.284,2.284,0,1,0,0,4.568,1.658,1.658,0,0,0,1.37-.639v.53h.95Zm-3.535,0a1.311,1.311,0,1,1,.357.989,1.32,1.32,0,0,1-.357-.989ZM45.262,93.5a2.284,2.284,0,0,0,.064,4.568,2.654,2.654,0,0,0,1.813-.594l-.457-.7a2.078,2.078,0,0,1-1.27.457,1.21,1.21,0,0,1-1.306-1.069h3.243V95.8a2.076,2.076,0,0,0-2.074-2.284Zm0,.85a1.083,1.083,0,0,1,1.105,1.06H44.083a1.124,1.124,0,0,1,1.16-1.06Zm23.8,1.443V91.86h-.914v2.284a1.658,1.658,0,0,0-1.37-.639,2.284,2.284,0,0,0,0,4.568,1.658,1.658,0,0,0,1.37-.639v.53h.914Zm1.585,1.548a.439.439,0,0,1,.411.26.425.425,0,0,1,0,.338.436.436,0,0,1-.238.228.429.429,0,0,1-.174.037.457.457,0,0,1-.411-.265.429.429,0,0,1,0-.338.443.443,0,0,1,.425-.26Zm0,.772a.325.325,0,0,0,.132-.027.343.343,0,0,0,.105-.073.329.329,0,0,0-.105-.53.329.329,0,0,0-.132-.027.343.343,0,0,0-.132.027.333.333,0,0,0-.11.073.331.331,0,0,0,.256.557Zm.027-.544a.183.183,0,0,1,.119.037.114.114,0,0,1,.041.1.11.11,0,0,1-.032.082.16.16,0,0,1-.1.041l.132.151h-.105l-.123-.151h-.041v.151h-.087v-.4Zm-.1.078v.11h.1a.1.1,0,0,0,.055,0,221.547,221.547,0,0,1,0-.082.1.1,0,0,0-.055,0ZM65.552,95.8a1.311,1.311,0,1,1,.357.989A1.32,1.32,0,0,1,65.552,95.8Zm-32.079,0V93.614h-.95v.53a1.658,1.658,0,0,0-1.37-.639,2.284,2.284,0,0,0,0,4.568,1.658,1.658,0,0,0,1.37-.639v.53h.95Zm-3.535,0a.56.56,0,1,1-.009,0Z" transform="translate(-11.511 -49.901)"/>
        <g id="_Group_" data-name="&lt;Group&gt;" transform="translate(6.923 6.92)">
          <rect id="Rectangle_21133" data-name="Rectangle 21133" class="cls-4" width="14.388" height="25.858" transform="translate(19.41 3.517)"/>
          <path id="_Path_" data-name="&lt;Path&gt;" class="cls-5" d="M35.479,31.6A16.416,16.416,0,0,1,41.76,18.67a16.444,16.444,0,1,0,0,25.858A16.416,16.416,0,0,1,35.479,31.6Z" transform="translate(-15.155 -15.153)"/>
          <path id="Path_23131" data-name="Path 23131" class="cls-6" d="M100.007,31.6A16.444,16.444,0,0,1,73.4,44.525a16.444,16.444,0,0,0,0-25.858,16.444,16.444,0,0,1,26.607,12.927Z" transform="translate(-46.795 -15.151)"/>
          <path id="Path_23132" data-name="Path 23132" class="cls-6" d="M127.819,72.7v-.53h.215v-.11h-.544v.11h.233v.53Zm1.055,0V72.06h-.164l-.192.457-.192-.457h-.146V72.7h.119v-.48l.178.416h.123l.178-.416V72.7Z" transform="translate(-76.179 -46.065)"/>
        </g>
      </g>
    </g>
  </g>
</svg>
