<svg xmlns="http://www.w3.org/2000/svg" width="131.748" height="125" viewBox="0 0 131.748 125">
    <defs>
        <style>
            .cls-2{fill:#6e7a93}.cls-3{fill:#fff}.cls-5{fill:#e59f8f}.cls-6{fill:#f5b3a2}.cls-7{fill:#ffc402}.cls-8{fill:#354463}.cls-11{fill:#79e2f3}.cls-12{fill:#01d195}
        </style>
    </defs>
    <g id="note_taking_monochromatic" transform="translate(18.865 15.342)">
        <ellipse id="Ellipse_2127" cx="61.903" cy="62.5" fill="#daf5fd" data-name="Ellipse 2127" rx="61.903" ry="62.5" transform="translate(-11.849 -15.342)"/>
        <g id="Group_23478" data-name="Group 23478" transform="translate(0 1)">
            <path id="Path_23753" d="M205.773 50.281v60.28A5.775 5.775 0 0 1 200 116.34h-38.069a5.773 5.773 0 0 1-5.771-5.779v-60.28a5.771 5.771 0 0 1 5.771-5.771H200a5.775 5.775 0 0 1 5.771 5.771z" class="cls-2" data-name="Path 23753" transform="translate(-130.469 -36.574)"/>
            <path id="Rectangle_21199" d="M0 0H40.288V60.373H0z" class="cls-3" data-name="Rectangle 21199" transform="translate(29.887 13.076)"/>
            <path id="Path_23755" fill="#ffdc00" d="M216.015 69.43v52.38h-30.664s-4.25-.894-4.475-8.057.225-44.323.225-44.323z" data-name="Path 23755" transform="translate(-148.219 -55.831)"/>
            <path id="Path_23756" d="M375.313 221.1a8.049 8.049 0 0 0 .749 2.448 3.51 3.51 0 0 0 3.131 1.142 1.3 1.3 0 0 0 .447-.084 1.08 1.08 0 0 0 .4-.356 3.889 3.889 0 0 0 .348-3.436 6.842 6.842 0 0 0-2.91-3.767c-.76-.472-4.05-1.853-4.4-.561-.305 1.114 1.911 3.492 2.235 4.614z" class="cls-5" data-name="Path 23756" transform="translate(-306.767 -175.931)"/>
            <path id="Path_23759" d="M69.4 198.378c-2.863 3.2-7.3 4.764-9.862 8.208-2.291 3.065-2.719 7.087-3.877 10.738a53.6 53.6 0 0 1-5.7 11.355 2.607 2.607 0 0 1-1.134 1.188 2.483 2.483 0 0 1-1.435 0c-3.569-.749-7.476-2.631-8.277-6.192-.511-2.279.425-4.632 1.531-6.69 3.838-7.169 9.888-13.111 12.826-20.7 1.92-4.953 2.908-10.569 7.624-13.709a.409.409 0 0 0 0 .1c-.232 1.963.187 6.2-.125 9.214a1.165 1.165 0 0 0 .019.328 8.623 8.623 0 0 0 .895 1.825c.73 1.366 2.743 1.065 4.211.561s3.468-.838 4.224.522c.561 1.049-.12 2.352-.92 3.252z" class="cls-6" data-name="Path 23759" transform="translate(-35.205 -148.807)"/>
            <path id="Path_23761" d="M188.277 349.646a.715.715 0 0 0-.06.051h-2.542s-4.25-.894-4.474-8.057a5.756 5.756 0 0 0 6.769 3.789s-2.777 4.525.307 4.217z" class="cls-7" data-name="Path 23761" transform="translate(-148.543 -283.718)"/>
            <rect id="Rectangle_21200" width="29.773" height="1.063" class="cls-8" data-name="Rectangle 21200" rx=".531" transform="translate(35.502 25.304)"/>
            <rect id="Rectangle_21201" width="29.773" height="1.063" class="cls-8" data-name="Rectangle 21201" rx=".531" transform="translate(35.502 28.494)"/>
            <rect id="Rectangle_21202" width="29.773" height="1.063" class="cls-8" data-name="Rectangle 21202" rx=".531" transform="translate(35.502 31.683)"/>
            <rect id="Rectangle_21203" width="29.773" height="1.063" class="cls-8" data-name="Rectangle 21203" rx=".531" transform="translate(35.502 34.874)"/>
            <rect id="Rectangle_21204" width="29.773" height="1.063" class="cls-8" data-name="Rectangle 21204" rx=".531" transform="translate(35.502 38.064)"/>
            <path id="Path_23762" d="M258.569 39.827v1.737a3.823 3.823 0 0 1-3.827 3.827H244.5a3.829 3.829 0 0 1-3.833-3.827v-1.737A3.831 3.831 0 0 1 244.5 36h10.24a3.825 3.825 0 0 1 3.829 3.827z" class="cls-8" data-name="Path 23762" transform="translate(-199.164 -29.657)"/>
            <path id="Path_23765" fill="#ce8172" d="M148.327 192.3a1.164 1.164 0 0 0 .019.327 4.718 4.718 0 0 1-1.123-1.957 24.463 24.463 0 0 1-.773-3.965 5.429 5.429 0 0 1 2-3.619c-.23 1.967.186 6.204-.123 9.214z" data-name="Path 23765" opacity="0.403" transform="translate(-122.576 -149.221)"/>
            <path id="Path_23766" d="M382.311 244.824c-1.1.81-2.4.022-3.646 0-2.538.02-4.9.018-7.09 0-1.043.008-1.893.033-2.984 0a67.679 67.679 0 0 0-7.8-24.867 33.258 33.258 0 0 1-2.738-5.917c-.743-2.2-.374-8.152.352-8.264 1.235-.2 2.034 1.239 2.433 2.423.668 1.931 1.272 3.7 3.084 4.865a2.317 2.317 0 0 0 2.581.251 2.058 2.058 0 0 0 .687-1.22 4.694 4.694 0 0 0-1.454-4.218 8.436 8.436 0 0 0-4.117-2.019 5.175 5.175 0 0 1-2.468-.908 1.562 1.562 0 0 1-.4-1.918c.346-.53 2.4.674 3.022.584a13.552 13.552 0 0 1 2.807-.445 10.915 10.915 0 0 1 4.066.666 12.131 12.131 0 0 1 3.462 2.5c1.611 1.536 3.058 2 4.456 3.743a12.651 12.651 0 0 1 2.2 3.595c.844 2.392.359 5.023.114 7.553-.613 6.438 2.574 17.482 3.938 23.6.047.129-.561-.143-.505-.004z" class="cls-6" data-name="Path 23766" transform="translate(-294.25 -165.322)"/>
            <path id="Path_23767" d="M402.264 257.76a41.966 41.966 0 0 0 3.93 5.259c.393.472 1.031.988 1.544.649.391-.26.374-.835.277-1.293a11.666 11.666 0 0 0-2.828-5.212 35.2 35.2 0 0 0-4.461-3.993c.054.043-.552.885-.3 1.336.432.745 1.387 2.494 1.838 3.254z" class="cls-5" data-name="Path 23767" transform="translate(-328.975 -206.187)"/>
            <path id="Path_23768" fill="#68e1fd" d="M347.153 199.658s11.032 11.831 13.287 14.179 4.117 4.076 4.117 4.076 2.216.221 2.3-.531-16.792-17.147-18.476-17.944l-1.684-.8z" data-name="Path 23768" transform="translate(-285.353 -161.861)"/>
            <path id="Path_23769" d="M366.975 217.365c-.043.374-.616.509-1.177.546a7.483 7.483 0 0 1-1.123-.019s-1.862-1.724-4.117-4.072-13.287-14.181-13.287-14.181l-.442-1.02 1.684.8c1.67.801 18.559 17.19 18.462 17.946z" class="cls-11" data-name="Path 23769" transform="translate(-285.458 -161.845)"/>
            <path id="Path_23771" d="M413.677 277.215c-.129.249-.32.578-.588.5a.522.522 0 0 1-.187-.118L408.728 274c-.08.646.5 1.155 1.009 1.564a19.862 19.862 0 0 1 2.569 2.48 1.877 1.877 0 0 0 .769.629.608.608 0 0 0 .8-.374.539.539 0 0 1 .043-.2.33.33 0 0 1 .148-.112l.677-.331a2.433 2.433 0 0 0 .715-.462.827.827 0 0 0 .236-.78c-.327-1.082-1.794.359-2.017.801z" class="cls-3" data-name="Path 23771" transform="translate(-335.767 -223.119)"/>
            <path id="Path_23772" d="M445.6 297.648a1.824 1.824 0 0 0 1.1.591.5.5 0 0 0 .417-.152.436.436 0 0 0 .034-.429 1.263 1.263 0 0 0-.264-.365l-.432-.472a1.123 1.123 0 0 0-.561-.4c-.253-.045-.835.148-.887.443s.427.613.593.784z" class="cls-3" data-name="Path 23772" transform="translate(-365.264 -241.339)"/>
        </g>
        <path id="Path_1521" d="M6.187 250.213h112.46c3.509 0 6.353 2.164 6.353 4.833v1.911c0 3.315-3.532 6-7.89 6H7.194c-3.975 0-7.2-2.452-7.194-5.477v-2.566c0-2.6 2.77-4.707 6.187-4.707z" class="cls-11" data-name="Path 1521" transform="translate(-12.117 -169.761)"/>
        <path id="Rectangle_21205" d="M0 0H24V6H0z" class="cls-7" data-name="Rectangle 21205" transform="translate(87.559 74.658)"/>
        <path id="Rectangle_21206" d="M0 0H22V6H0z" class="cls-12" data-name="Rectangle 21206" transform="translate(87.559 68.658)"/>
        <path id="Rectangle_21207" d="M0 0H23V6H0z" class="cls-2" data-name="Rectangle 21207" transform="translate(87.559 62.658)"/>
        <path id="Rectangle_21208" d="M0 0H21.5V3H0z" class="cls-3" data-name="Rectangle 21208" transform="translate(89.059 64.158)"/>
        <path id="Rectangle_21209" d="M0 0H20.5V3H0z" class="cls-3" data-name="Rectangle 21209" transform="translate(89.059 70.158)"/>
        <path id="Rectangle_21210" d="M0 0H22.5V3H0z" class="cls-3" data-name="Rectangle 21210" transform="translate(89.059 76.158)"/>
        <path id="Path_23777" d="M430.622 6869.091l1.911 2.718 18.613 18.574 1.3-1.251-18.673-18.673z" class="cls-2" data-name="Path 23777" transform="rotate(37 10414.555 2801.403)"/>
        <path id="Path_23778" d="M430.622 6869.091l1.911 2.718 18.613 18.574 1.3-1.251-18.673-18.673z" class="cls-7" data-name="Path 23778" transform="rotate(56 6641.84 3057.935)"/>
        <path id="Path_23779" d="M430.622 6869.091l1.911 2.718 18.613 18.574 1.3-1.251-18.673-18.673z" class="cls-11" data-name="Path 23779" transform="rotate(39 9857.87 2851.319)"/>
        <path id="Path_23776" d="M2 0h15c1.1 0 3.368 1.086 3.293 2.843L19 22.315a1.934 1.934 0 0 1-2 1.86H2a1.934 1.934 0 0 1-2-1.86L-1.368 2.843C-1.267 1.1.9 0 2 0z" class="cls-12" data-name="Path 23776" transform="translate(-7.441 56.483)"/>
    </g>
</svg>
