<svg xmlns="http://www.w3.org/2000/svg" xmlns:xlink="http://www.w3.org/1999/xlink" width="136" height="125" viewBox="0 0 136 125">
  <defs>
    <clipPath id="clip-Illustrations2_2">
      <rect width="136" height="125"/>
    </clipPath>
  </defs>
  <g id="Illustrations2_2" data-name="Illustrations2 – 2" clip-path="url(#clip-Illustrations2_2)">
    <rect width="136" height="125" fill="#fff"/>
    <g id="Group_23466" data-name="Group 23466" transform="translate(-572 -191)">
      <path id="Path_23046" data-name="Path 23046" d="M62.5,0A62.5,62.5,0,1,1,0,62.5,62.5,62.5,0,0,1,62.5,0Z" transform="translate(577.5 191)" fill="#79e2f3" opacity="0.201"/>
      <g id="Group_23300" data-name="Group 23300" transform="translate(-397 -24)">
        <path id="Path_1470" data-name="Path 1470" d="M91.558,248.912s-8.523-2.29-10.408-10.206c0,0,13.182-2.727,13.61,10.907Z" transform="translate(887.85 51.136)" fill="#01d195" opacity="0.58"/>
        <path id="Path_1471" data-name="Path 1471" d="M95.016,245.621s-5.983-9.349-.779-18.191c0,0,10.058,6.326,5.648,18.191Z" transform="translate(885.429 53.579)" fill="#01d195" opacity="0.73"/>
        <path id="Path_1472" data-name="Path 1472" d="M97.81,247.415s3.116-9.949,12.6-11.865c0,0,1.807,6.443-6.1,11.865Z" transform="translate(884.169 51.785)" fill="#01d195"/>
        <path id="Path_1473" data-name="Path 1473" d="M89.89,250.53l1.768,11.795h10.876l1.55-11.795Z" transform="translate(885.919 48.475)" fill="#24285b"/>
        <path id="Path_1476" data-name="Path 1476" d="M262.478,93s12.367,2.889,15.033,16.2,2.843,25.027,10.105,25.433,12.517-27.452,12.517-27.452l5.445,1.412s-5.641,60.545-35.106,32.289S262.478,93,262.478,93Z" transform="translate(791.15 172.113)" fill="#ffdc00"/>
        <circle id="Ellipse_85" data-name="Ellipse 85" cx="14" cy="14" r="14" transform="translate(1063 233)" fill="#fff"/>
        <path id="Path_1477" data-name="Path 1477" d="M262.478,93s12.367,2.889,15.033,16.2,2.843,25.027,10.105,25.433,12.517-27.452,12.517-27.452l5.445,1.412s-5.641,60.545-35.106,32.289S262.478,93,262.478,93Z" transform="translate(791.15 172.113)" fill="#ffdc00" opacity="0.46"/>
        <path id="Path_1478" data-name="Path 1478" d="M247.8,63.352s1.253,6.036.7,10.213a3.085,3.085,0,0,1-3.483,2.658,6.827,6.827,0,0,1-5.913-4.48l-2.468-5.125a5.533,5.533,0,0,1,1.727-6.15C241.521,57.572,247.226,59.641,247.8,63.352Z" transform="translate(795.166 176.771)" fill="#f4a28c"/>
        <path id="Path_1479" data-name="Path 1479" d="M237.087,68l-.8,20.178,11.143-.361-3.891-14.531Z" transform="translate(795.167 176.318)" fill="#f4a28c"/>
        <path id="Path_1480" data-name="Path 1480" d="M246.274,63.489a24.886,24.886,0,0,1-5.695.237,5.135,5.135,0,0,1,.664,5.6,4.176,4.176,0,0,1-4.822,2.249l-.826-7.868a6.283,6.283,0,0,1,2.5-5.913A21.249,21.249,0,0,1,240.57,56.2c2.155-1.177,5.647-.057,7.489-1.832a1.49,1.49,0,0,1,2.458.693c.636,2.344.655,6.16-2.42,7.849A5.638,5.638,0,0,1,246.274,63.489Z" transform="translate(795.205 177.032)" fill="#24285b"/>
        <path id="Path_1481" data-name="Path 1481" d="M242.052,69.8s-.323-2.344-2.069-1.955-1.3,3.8,1.139,3.8Z" transform="translate(795.032 176.328)" fill="#f4a28c"/>
        <path id="Path_1482" data-name="Path 1482" d="M248.961,67.63l1.984,2.155a.949.949,0,0,1-.427,1.614l-2.287.712Z" transform="translate(794.56 176.337)" fill="#f4a28c"/>
        <path id="Path_1483" data-name="Path 1483" d="M244.8,76.788A7.308,7.308,0,0,1,241,75.08s.6,3.645,5.049,6.786Z" transform="translate(794.927 175.958)" fill="#ce8172" opacity="0.31"/>
        <path id="Path_1484" data-name="Path 1484" d="M224.389,89.128l7.654-.248s20.576.327,21.857,15.321-7.5,26.694-4.575,38.394l-27.916,3.569S175.661,100.181,224.389,89.128Z" transform="translate(809.506 173.541)" fill="#ffc402"/>
        <path id="Path_1485" data-name="Path 1485" d="M223.825,104.74s9.445,7.562,3.164,21.112-2.405,17.857,7.007,15.354,13.223-12.687,13.223-12.687l4.628,14.3a19.079,19.079,0,0,0,.595,5.229l-27.916,3.569-1.013-1.059L210.87,132.781Z" transform="translate(806.41 168.047)" opacity="0.08"/>
        <rect id="Rectangle_1048" data-name="Rectangle 1048" width="24.688" height="33.39" transform="matrix(0.987, 0.161, -0.161, 0.987, 1053.913, 272.418)" fill="#ddd"/>
        <path id="Path_1486" data-name="Path 1486" d="M270.6,144.28s3.268,3.667.575,6.229-6.432,5.615-6.432,5.615l-9.366-1.608Z" transform="translate(787.993 154.351)" opacity="0.08"/>
        <rect id="Rectangle_1049" data-name="Rectangle 1049" width="9.987" height="5.204" transform="matrix(0.987, 0.161, -0.161, 0.987, 1061.416, 271.506)" fill="#24285b"/>
        <path id="Path_1487" data-name="Path 1487" d="M218.48,112.831c4.739-9.151-6.34-18.3-14.524-12.066a24.312,24.312,0,0,0-9.628,14.707c-3.1,16.086-1.307,30.531,9.693,34.74s39.662-16.667,39.662-16.667l-3.66-6.033s-25.047,17.916-31.08,5.667C205.146,125.5,214.382,120.726,218.48,112.831Z" transform="translate(812.61 170.133)" fill="#ffdc00"/>
        <path id="Path_1488" data-name="Path 1488" d="M218.48,112.831c4.739-9.151-6.34-18.3-14.524-12.066a24.312,24.312,0,0,0-9.628,14.707c-3.1,16.086-1.307,30.531,9.693,34.74s39.662-16.667,39.662-16.667l-3.66-6.033s-25.047,17.916-31.08,5.667C205.146,125.5,214.382,120.726,218.48,112.831Z" transform="translate(812.61 170.133)" fill="#ffdc00" opacity="0.46"/>
        <path id="Path_1489" data-name="Path 1489" d="M266.48,144.9s5-5.192,9.655-2.587-6.028,8.571-6.028,8.571Z" transform="translate(785.028 153.674)" fill="#f4a28c"/>
        <path id="Path_1492" data-name="Path 1492" d="M325.446,113.023s-.74-7.736,3.591-7.23,1.8,8.632,1.8,8.632Z" transform="translate(765.351 166.586)" fill="#f4a28c"/>
        <rect id="Rectangle_1050" data-name="Rectangle 1050" width="5.111" height="14.875" transform="matrix(0.841, -0.541, 0.541, 0.841, 1082.961, 261.296)" fill="#ffd200"/>
        <rect id="Rectangle_1051" data-name="Rectangle 1051" width="5.111" height="14.875" transform="matrix(0.841, -0.541, 0.541, 0.841, 1082.961, 261.296)" opacity="0.08"/>
        <rect id="Rectangle_1052" data-name="Rectangle 1052" width="7.876" height="19.141" transform="translate(1087.7 269.786) rotate(-33)" fill="#24285b"/>
        <path id="Path_1493" data-name="Path 1493" d="M293.591,54.112a16.789,16.789,0,1,0,23.224,4.939,16.789,16.789,0,0,0-23.224-4.939Zm15.581,24.026a5.512,5.512,0,1,1,.016,0Z" transform="translate(774.068 178.598)" fill="#ffd200"/>
        <path id="Path_1494" data-name="Path 1494" d="M301.62,72.066l4.249,3.7,6.038-8" transform="translate(770.652 174.981)" fill="none" stroke="#3bdab0" stroke-linecap="round" stroke-linejoin="round" stroke-width="3"/>
        <path id="Path_1521" data-name="Path 1521" d="M6.643,250.213H127.4c3.767,0,6.821,2.324,6.821,5.19v2.051c0,3.56-3.793,6.445-8.471,6.445H7.725C3.457,263.9,0,261.267,0,258.02v-2.755c0-2.791,2.974-5.054,6.643-5.054Z" transform="translate(969.569 60.441)" fill="#79e2f3"/>
      </g>
    </g>
  </g>
</svg>
