<?xml version="1.0" encoding="utf-8"?>
<!-- Generator: Adobe Illustrator 24.3.0, SVG Export Plug-In . SVG Version: 6.00 Build 0)  -->
<svg version="1.1" id="W_Illustrations_OTP_Verified"
	 xmlns="http://www.w3.org/2000/svg" xmlns:xlink="http://www.w3.org/1999/xlink" x="0px" y="0px" viewBox="0 0 135.7 125"
	 style="enable-background:new 0 0 135.7 125;" xml:space="preserve">
<style type="text/css">
	.st0{opacity:0.201;fill:#79E2F3;enable-background:new    ;}
	.st1{opacity:0.58;fill:#01D195;enable-background:new    ;}
	.st2{opacity:0.73;fill:#01D195;enable-background:new    ;}
	.st3{fill:#01D195;}
	.st4{fill:#24285B;}
	.st5{fill:#FFDC00;}
	.st6{fill:#FFFFFF;}
	.st7{opacity:0.46;fill:#FFDC00;enable-background:new    ;}
	.st8{fill:#F5B3A2;}
	.st9{opacity:0.31;fill:#CE8172;enable-background:new    ;}
	.st10{fill:#FFC402;}
	.st11{opacity:8.000000e-02;enable-background:new    ;}
	.st12{fill:#DDDDDD;}
	.st13{fill:#FFD200;}
	.st14{fill:#FFFFFF;stroke:#FFD200;stroke-width:4.5;stroke-miterlimit:10;}
	.st15{fill:none;stroke:#3BDAB0;stroke-width:3;stroke-linecap:round;stroke-linejoin:round;}
	.st16{fill:#79E2F3;}
</style>
<path id="Path_23046" class="st0" d="M68,0c34.5,0,62.5,28,62.5,62.5S102.5,125,68,125S5.5,97,5.5,62.5S33.5,0,68,0z"/>
<g>
	<path id="Path_1470" class="st1" d="M10.4,85c0,0-8.5-2.3-10.4-10.2c0,0,13.2-2.7,13.6,10.9L10.4,85z"/>
	<path id="Path_1471" class="st2" d="M11.4,84.2c0,0-6-9.3-0.8-18.2c0,0,10.1,6.3,5.6,18.2H11.4z"/>
	<path id="Path_1472" class="st3" d="M13,84.2c0,0,3.1-9.9,12.6-11.9c0,0,1.8,6.4-6.1,11.9H13z"/>
	<path id="Path_1473" class="st4" d="M6.8,84l1.8,11.8h10.9L21,84L6.8,84z"/>
	<path id="Path_1476" class="st5" d="M84.6,50.1c0,0,12.4,2.9,15,16.2s2.8,25,10.1,25.4s12.5-27.5,12.5-27.5l5.4,1.4
		c0,0-5.6,60.5-35.1,32.3S84.6,50.1,84.6,50.1z"/>
	<circle id="Ellipse_85" class="st6" cx="108" cy="32" r="14"/>
	<path id="Path_1477" class="st7" d="M84.6,50.1c0,0,12.4,2.9,15,16.2s2.8,25,10.1,25.4s12.5-27.5,12.5-27.5l5.4,1.4
		c0,0-5.6,60.5-35.1,32.3S84.6,50.1,84.6,50.1z"/>
	<path id="Path_1478" class="st8" d="M74,25.1c0,0,1.3,6,0.7,10.2c-0.2,1.7-1.8,2.9-3.5,2.7c0,0,0,0,0,0c-2.7-0.2-5-2-5.9-4.5
		l-2.5-5.1c-0.8-2.2-0.1-4.7,1.7-6.2C67.7,19.3,73.4,21.4,74,25.1z"/>
	<path id="Path_1479" class="st8" d="M63.3,29.3l-0.8,20.2l11.1-0.4l-3.9-14.5L63.3,29.3z"/>
	<path id="Path_1480" class="st4" d="M72.5,25.5c-1.9,0.3-3.8,0.4-5.7,0.2c1.3,1.6,1.6,3.8,0.7,5.6c-0.9,1.8-2.9,2.8-4.8,2.2
		l-0.8-7.9c-0.3-2.3,0.6-4.5,2.5-5.9c0.8-0.6,1.6-1.1,2.5-1.6c2.2-1.2,5.6-0.1,7.5-1.8c0.6-0.6,1.5-0.5,2.1,0.1
		c0.2,0.2,0.3,0.4,0.4,0.6c0.6,2.3,0.7,6.2-2.4,7.8C73.7,25.2,73.1,25.4,72.5,25.5z"/>
	<path id="Path_1481" class="st8" d="M68.1,31.1c0,0-0.3-2.3-2.1-2S64.7,33,67.2,33L68.1,31.1z"/>
	<path id="Path_1482" class="st8" d="M74.5,29l2,2.2c0.4,0.4,0.4,1,0,1.3c-0.1,0.1-0.3,0.2-0.5,0.3l-2.3,0.7L74.5,29z"/>
	<path id="Path_1483" class="st9" d="M70.7,37.7C69.3,37.6,68,37,66.9,36c0,0,0.6,3.6,5,6.8L70.7,37.7z"/>
	<path id="Path_1484" class="st10" d="M64.9,47.7l7.7-0.2c0,0,20.6,0.3,21.9,15.3s-7.5,26.7-4.6,38.4l-27.9,3.6
		C61.9,104.7,16.2,58.7,64.9,47.7z"/>
	<path id="Path_1485" class="st11" d="M61.2,57.8c0,0,9.4,7.6,3.2,21.1s-2.4,17.9,7,15.4s13.2-12.7,13.2-12.7l4.6,14.3
		c0,1.8,0.2,3.5,0.6,5.2l-27.9,3.6l-1-1.1L48.3,85.8L61.2,57.8z"/>
	
		<rect id="Rectangle_1048" x="77.7" y="63.5" transform="matrix(0.161 -0.987 0.987 0.161 4.315 156.8447)" class="st12" width="33.4" height="24.7"/>
	<path id="Path_1486" class="st11" d="M89.6,83.6c0,0,3.3,3.7,0.6,6.2s-6.4,5.6-6.4,5.6l-9.4-1.6L89.6,83.6z"/>
	
		<rect id="Rectangle_1049" x="94.3" y="54.9" transform="matrix(0.161 -0.987 0.987 0.161 22.2243 145.8995)" class="st4" width="5.2" height="10"/>
	<path id="Path_1487" class="st5" d="M62.1,68c4.7-9.2-6.3-18.3-14.5-12.1c-4.9,3.5-8.4,8.8-9.6,14.7c-3.1,16.1-1.3,30.5,9.7,34.7
		s39.7-16.7,39.7-16.7l-3.7-6c0,0-25,17.9-31.1,5.7C48.8,80.6,58,75.9,62.1,68z"/>
	<path id="Path_1488" class="st7" d="M62.1,68c4.7-9.2-6.3-18.3-14.5-12.1c-4.9,3.5-8.4,8.8-9.6,14.7c-3.1,16.1-1.3,30.5,9.7,34.7
		s39.7-16.7,39.7-16.7l-3.7-6c0,0-25,17.9-31.1,5.7C48.8,80.6,58,75.9,62.1,68z"/>
	<path id="Path_1489" class="st8" d="M82.5,83.6c0,0,5-5.2,9.7-2.6s-6,8.6-6,8.6L82.5,83.6z"/>
	<path id="Path_1492" class="st8" d="M121.8,64.6c0,0-0.7-7.7,3.6-7.2s1.8,8.6,1.8,8.6L121.8,64.6z"/>
	
		<rect id="Rectangle_1050" x="117.6" y="43.7" transform="matrix(0.841 -0.541 0.541 0.841 -8.5833 73.1286)" class="st13" width="5.1" height="14.9"/>
	
		<rect id="Rectangle_1051" x="117.6" y="43.7" transform="matrix(0.841 -0.541 0.541 0.841 -8.5833 73.1286)" class="st11" width="5.1" height="14.9"/>
	
		<rect id="Rectangle_1052" x="123.3" y="51.1" transform="matrix(0.8387 -0.5446 0.5446 0.8387 -12.5185 79.0738)" class="st4" width="7.9" height="19.1"/>
	<circle class="st14" cx="107.8" cy="31.8" r="14.5"/>
	<path id="Path_1494" class="st15" d="M103.3,32l4.2,3.7l6-8"/>
	<path id="Path_1521" class="st16" d="M7.2,95.7H128c3.8,0,6.8,2.3,6.8,5.2v2.1c0,3.6-3.8,6.4-8.5,6.4H8.3c-4.3,0-7.7-2.6-7.7-5.9
		v-2.8C0.6,97.9,3.5,95.7,7.2,95.7L7.2,95.7z"/>
</g>
</svg>
