<svg xmlns="http://www.w3.org/2000/svg" width="16" height="15.078" viewBox="0 0 16 15.078">
    <g id="warning">
        <g id="Group_23374" data-name="Group 23374">
            <path id="Path_23155" fill="#fa7628" d="M15.668 26.3l-5.652-10.39a2.344 2.344 0 0 0-4.031 0L.333 26.3a2.343 2.343 0 0 0 2.015 3.54h11.3a2.343 2.343 0 0 0 2.02-3.54zM8 27.961a.937.937 0 1 1 .937-.937.939.939 0 0 1-.937.937zm.937-3.75a.938.938 0 1 1-1.875 0v-4.687a.938.938 0 0 1 1.875 0z" data-name="Path 23155" transform="translate(0 -14.759)"/>
        </g>
    </g>
</svg>
