<svg xmlns="http://www.w3.org/2000/svg" id="phone-call" width="14" height="14" viewBox="0 0 14 14">
    <g id="Group_23424" data-name="Group 23424">
        <path id="Path_23517" fill="#97a2a8" d="M12.895 9.218a8 8 0 0 1-2.511-.4 1.076 1.076 0 0 0-1.093.231L7.7 10.25A8.878 8.878 0 0 1 3.751 6.3l1.167-1.552a1.115 1.115 0 0 0 .273-1.127 8 8 0 0 1-.4-2.516A1.107 1.107 0 0 0 3.684 0H1.105A1.107 1.107 0 0 0 0 1.105 12.91 12.91 0 0 0 12.895 14 1.107 1.107 0 0 0 14 12.895v-2.572a1.107 1.107 0 0 0-1.105-1.105z" data-name="Path 23517"/>
    </g>
</svg>
