<svg xmlns="http://www.w3.org/2000/svg" width="16" height="16" viewBox="0 0 16 16">
    <defs>
        <style>
            .cls-1{fill:#97a2a8}
        </style>
    </defs>
    <g id="surface1" transform="translate(0 -.501)">
        <path id="Union_2" d="M10.521 8.469a.469.469 0 0 1 0-.938 3.917 3.917 0 0 0 3.154-2A9.034 9.034 0 0 0 15.053.937h-2.065a.469.469 0 1 1 0-.937h2.543A.469.469 0 0 1 16 .469a10.161 10.161 0 0 1-1.546 5.58 4.816 4.816 0 0 1-3.932 2.42zm-5.043 0a4.816 4.816 0 0 1-3.932-2.42A10.159 10.159 0 0 1 0 .469.469.469 0 0 1 .469 0h2.543a.469.469 0 1 1 0 .937H.947a9.034 9.034 0 0 0 1.379 4.592 3.917 3.917 0 0 0 3.154 2 .469.469 0 0 1 0 .938z" class="cls-1" data-name="Union 2" transform="translate(0 1.656)"/>
        <path id="Union_1" d="M5.49 13.49H4.234a.469.469 0 0 1-.469-.469v-2.552a6.461 6.461 0 0 1-2.245-2.69A16.73 16.73 0 0 1 0 .469.469.469 0 0 1 .469 0h10.042a.469.469 0 0 1 .469.469 16.73 16.73 0 0 1-1.52 7.31 6.459 6.459 0 0 1-2.245 2.69v2.552a.469.469 0 0 1-.469.469z" class="cls-1" data-name="Union 1" transform="translate(2.51 .501)"/>
        <path id="Union_3" d="M4.234 3.448H.469A.469.469 0 0 1 0 2.979V1.724A1.726 1.726 0 0 1 1.724 0h5.021a1.726 1.726 0 0 1 1.724 1.724v1.255A.469.469 0 0 1 8 3.448z" class="cls-1" data-name="Union 3" transform="translate(3.766 13.053)"/>
        <path id="Union_4" d="M4.736.937H.469a.469.469 0 1 1 0-.937H9a.469.469 0 1 1 0 .937z" class="cls-1" data-name="Union 4" transform="translate(3.264 15.564)"/>
    </g>
</svg>
