<svg xmlns="http://www.w3.org/2000/svg" width="115.129" height="18" viewBox="0 0 115.129 18">
    <g>
        <path fill="none" d="M0 0H115V18H0z" transform="translate(-60 -71) translate(60 71)"/>
        <g fill="#0076c0">
            <path fill-rule="evenodd" d="M366.217 401.469h.568v-1.488h.336c.434 0 .6.151 1.045.939l.311.549h.689l-.424-.682c-.293-.469-.514-.77-.816-.876v-.017a1 1 0 0 0 1-1.01c0-.381-.293-.921-1.16-.921h-1.551v3.506zm.568-1.975v-1.054h.912c.371 0 .629.2.629.523 0 .363-.293.531-.726.531zm3.586.169a2.723 2.723 0 1 1-2.728-2.719 2.729 2.729 0 0 1 2.728 2.719zm.539 0a3.263 3.263 0 1 0-3.267 3.269 3.257 3.257 0 0 0 3.267-3.269z" transform="translate(-60 -71) translate(60 71) translate(-255.781 -396.404)"/>
            <path d="M296.927 404.4h-1.385v-1.46a4.128 4.128 0 0 0 3.788-3.514h1.592v3.027h2.565v2.575h-.069c-.624-.654-.947-.612-1.918-.612h-.579v3.951c0 .76-.021 1.309.718 1.751a3.709 3.709 0 0 0 1.848.382l-1.015 1.789c-.6.042-1.225.148-1.824.148a4.939 4.939 0 0 1-2.89-.822c-.876-.716-.831-1.728-.831-2.72v-4.5zm-1.448 5a9.7 9.7 0 0 1-3.891 1.079 3.115 3.115 0 0 1-3.4-3.129h7.178c-.071-3.244-1.83-5.165-5.489-5.165-3.214 0-5.661 2.132-5.661 5.081a4.8 4.8 0 0 0 2.1 4.142 8.449 8.449 0 0 0 4.625 1.032 10.049 10.049 0 0 0 3.633-.654l.9-2.386zm-7.292-3.838a1.645 1.645 0 0 1 1.689-1.54 1.416 1.416 0 0 1 1.549 1.54zM283 409.4a9.708 9.708 0 0 1-3.891 1.079 3.115 3.115 0 0 1-3.4-3.129h7.177c-.069-3.244-1.829-5.165-5.487-5.165-3.213 0-5.661 2.132-5.661 5.081a4.809 4.809 0 0 0 2.1 4.142 8.449 8.449 0 0 0 4.625 1.032 10.046 10.046 0 0 0 3.635-.654l.9-2.386zm-7.294-3.838a1.643 1.643 0 0 1 1.689-1.54 1.418 1.418 0 0 1 1.551 1.54zm-8.1-7.29a5.82 5.82 0 0 0 2.078-.339h.07v11.912c0 .969-.07 1.582.787 2.26v.063h-5.561v-.068c.855-.677.784-1.29.784-2.26v-9.229c0-1.057.071-1.541-.739-2.28v-.063zm-7.106 10.816c0 1.225.023 2.174 1.024 3.021v.062h-6.274v-.062c1.133-.656.969-1.838.969-2.957v-7.872c0-1.1.164-2.3-.969-2.936v-.062l8.1-.022a2.359 2.359 0 0 0 .97-.126h.069v3.061h-.069c-.625-1-1.937-.873-3.078-.873h-.742v3.45h1.7a2.422 2.422 0 0 0 .862-.107h.1v2.953h-.1c-.3-.8-1.258-.761-2.1-.761l-.465-.02v3.251zm-12.1-4.688h-1.387v-1.46a4.127 4.127 0 0 0 3.789-3.514h1.598v3.027h2.565v2.575h-.065c-.625-.654-.948-.612-1.921-.612h-.579v3.951c0 .76-.022 1.309.717 1.751a3.711 3.711 0 0 0 1.849.382l-1.017 1.789c-.6.042-1.225.148-1.828.148a4.931 4.931 0 0 1-2.886-.822c-.879-.716-.831-1.728-.831-2.72v-4.5zm-3.93-.707a2.472 2.472 0 0 1 2.5-1.5l.856.064v2.584a5.876 5.876 0 0 0-1.2-.169 2.585 2.585 0 0 0-1.826.7c-.393.4-.323.76-.323 1.288v3.189c0 .969-.07 1.6.786 2.26v.063h-5.566v-.072c.853-.655.783-1.266.783-2.26v-5.068c0-.974.07-1.605-.783-2.26v-.065h3.233a3.114 3.114 0 0 0 1.477-.316h.07v1.556zm-5.954 8.685l-.925.064a4.709 4.709 0 0 1-3.146-.966c-1.089-.925-1-1.9-1-3.142v-.7l-.734.318c-.573.252-1.307.569-1.307 1.266a1.366 1.366 0 0 0 1.4 1.373 3.323 3.323 0 0 0 .458-.043l-.988 1.827-1.173.064a5.489 5.489 0 0 1-2.477-.5 2.911 2.911 0 0 1-1.526-2.466c0-3.9 6.346-2.617 6.346-4.39 0-.654-.895-.888-1.467-.888a7.337 7.337 0 0 0-2.911.7l1.087-2.407a12.08 12.08 0 0 1 2.9-.3 5.851 5.851 0 0 1 3.214.8c1.156.8 1.272 2.027 1.272 3.251v1.69c0 1.414-.069 2.575 1.918 2.618l-.947 1.827zm-25.571-8.978a3.443 3.443 0 0 1 2.8-1.218 3.6 3.6 0 0 1 2.772 1.218 4.6 4.6 0 0 1 3.383-1.218 4.861 4.861 0 0 1 2.82.8 2.772 2.772 0 0 1 1.177 2.61v4.245c0 .972-.07 1.585.808 2.259v.064h-5.595v-.06c.859-.674.79-1.266.79-2.259v-3.484c0-.845.115-1.986-1.206-1.986-1.344 0-1.275 1.183-1.275 1.986v3.484c0 .972-.069 1.585.812 2.259v.064h-5.6v-.064c.857-.674.787-1.266.787-2.259v-3.168c0-.885.164-2.3-1.251-2.3-1.438 0-1.229 1.436-1.229 2.3v3.17c0 .969-.069 1.582.811 2.26v.063h-5.593v-.066c.853-.677.787-1.266.787-2.26v-5.068c0-.993.067-1.605-.787-2.26v-.065h3.212a3.666 3.666 0 0 0 1.5-.316h.069v1.269zM196 408.633a8.594 8.594 0 0 0 4.842 1.647c1.036 0 2.441-.316 2.441-1.5 0-2.573-7.029-2.045-7.029-6.772a3.7 3.7 0 0 1 1.708-3.058 7.32 7.32 0 0 1 4.008-1.015 12.049 12.049 0 0 1 3.88.633v2.468a6.583 6.583 0 0 0-3.257-.99c-.9 0-2 .359-2 1.35 0 1.013 1.336 1.414 2.186 1.752a11.541 11.541 0 0 1 3.075 1.581 3.868 3.868 0 0 1 1.713 3.185 4.017 4.017 0 0 1-1.851 3.42 7.651 7.651 0 0 1-4.477 1.1 13.4 13.4 0 0 1-4.473-.759l-.766-3.042z" transform="translate(-60 -71) translate(60 71) translate(-196 -396.404)"/>
        </g>
    </g>
</svg>
