<svg xmlns="http://www.w3.org/2000/svg" width="49.139" height="50" viewBox="0 0 49.139 50">
    <defs>
        <style>
            .cls-1{fill:#79f3c1}.cls-2{fill:#79e2f3}.cls-3{fill:#005aac}.cls-4{fill:#1d80f5}
        </style>
    </defs>
    <g id="copyright">
        <path id="Path_23047" d="M63.582 0L72.2 8.621v38.793A2.586 2.586 0 0 1 69.617 50H36V0z" class="cls-1" data-name="Path 23047" transform="translate(-32.548)"/>
        <g id="Group_23311" data-name="Group 23311">
            <path id="Path_23048" d="M292 0v8.621h8.621z" class="cls-2" data-name="Path 23048" transform="translate(-260.962)"/>
            <path id="Path_23049" d="M41.065 414.034a2.586 2.586 0 0 1-2.586-2.586V408H4v3.448a2.586 2.586 0 0 0 2.586 2.586h34.479z" class="cls-2" data-name="Path 23049" transform="translate(-3.996 -364.034)"/>
        </g>
        <path id="Path_23055" d="M68 104h18.962v2H68z" class="cls-3" data-name="Path 23055" transform="translate(-61.099 -96.642)"/>
        <path id="Path_23062" d="M96.34 307.414L94.812 306l5.188-5.242a1.414 1.414 0 0 1 2 0l3.239 3.242 4.657-4.657 1.521 1.414-5.178 5.243a1.414 1.414 0 0 1-2 0L101 302.758z" class="cls-4" data-name="Path 23062" transform="translate(-87.429 -266.76)"/>
        <path id="Path_23063" fill="#fdd85b" d="M230.338 153.7l-2.438 7.31 7.315-2.438 17.7-17.7-4.881-4.872z" data-name="Path 23063" transform="translate(-203.772 -121.345)"/>
        <path id="Path_23064" d="M365.459 174.822l-1.422 1.42-4.877-4.877 1.422-1.42z" class="cls-4" data-name="Path 23064" transform="translate(-319.982 -151.632)"/>
        <path id="Path_23065" d="M389.342 140.871l-3.657 3.657-4.877-4.877 3.657-3.657z" class="cls-1" data-name="Path 23065" transform="translate(-340.203 -121.339)"/>
        <path id="Path_23066" d="M235.215 305.093l-7.315 2.438 2.438-7.315z" class="cls-4" data-name="Path 23066" transform="translate(-203.772 -267.865)"/>
        <path id="Path_23092" d="M68 104h18.962v2H68z" class="cls-3" data-name="Path 23092" transform="translate(-61.1 -88.721)"/>
        <path id="Path_23093" d="M68 104h18.962v2H68z" class="cls-3" data-name="Path 23093" transform="translate(-61.1 -80.799)"/>
    </g>
</svg>
