<svg xmlns="http://www.w3.org/2000/svg" xmlns:xlink="http://www.w3.org/1999/xlink" width="150" height="100" viewBox="0 0 150 100">
  <defs>
    <style>
      .cls-1, .cls-2 {
        fill: none;
      }

      .cls-1 {
        clip-rule: evenodd;
      }

      .cls-3 {
        fill: #fff;
      }

      .cls-4 {
        clip-path: url(#clip-path);
      }

      .cls-5 {
        isolation: isolate;
      }

      .cls-6 {
        clip-path: url(#clip-path-2);
      }

      .cls-7 {
        clip-path: url(#clip-path-3);
      }

      .cls-8 {
        clip-path: url(#clip-path-4);
      }

      .cls-9 {
        opacity: 0;
      }

      .cls-10 {
        fill: url(#linear-gradient);
      }

      .cls-11 {
        fill: url(#linear-gradient-2);
      }

      .cls-12 {
        filter: url(#Rectangle_21138);
      }

      .cls-13 {
        filter: url(#Rectangle_21137);
      }
    </style>
    <filter id="Rectangle_21137" x="6" y="6" width="144" height="94" filterUnits="userSpaceOnUse">
      <feOffset dx="3" dy="3" input="SourceAlpha"/>
      <feGaussianBlur stdDeviation="4" result="blur"/>
      <feFlood flood-color="#eff3fa"/>
      <feComposite operator="in" in2="blur"/>
      <feComposite in="SourceGraphic"/>
    </filter>
    <filter id="Rectangle_21138" x="0" y="0" width="144" height="94" filterUnits="userSpaceOnUse">
      <feOffset dx="-3" dy="-3" input="SourceAlpha"/>
      <feGaussianBlur stdDeviation="4" result="blur-2"/>
      <feFlood flood-color="#eff3fa"/>
      <feComposite operator="in" in2="blur-2"/>
      <feComposite in="SourceGraphic"/>
    </filter>
    <clipPath id="clip-path">
      <path id="Path_23140" data-name="Path 23140" class="cls-1" d="M36.234-155.967c-.039,3.065,2.731,4.775,4.818,5.791,2.144,1.043,2.864,1.712,2.856,2.645-.016,1.428-1.71,2.058-3.3,2.083a11.5,11.5,0,0,1-5.652-1.344l-1,4.662A16.575,16.575,0,0,0,40.084-141c5.781,0,9.564-2.854,9.584-7.279.023-5.616-7.768-5.927-7.715-8.437.018-.761.745-1.573,2.336-1.78a10.362,10.362,0,0,1,5.427.951l.968-4.511A14.754,14.754,0,0,0,45.534-163c-5.442,0-9.269,2.893-9.3,7.033m23.749-6.645a2.509,2.509,0,0,0-2.342,1.561l-8.259,19.719h5.777l1.15-3.177h7.06l.667,3.177h5.092l-4.443-21.28h-4.7m.808,5.749,1.667,7.991H57.892l2.9-7.991m-31.562-5.749-4.554,21.28h5.505l4.552-21.28h-5.5m-8.144,0-5.73,14.484-2.318-12.315a2.566,2.566,0,0,0-2.539-2.169H1.131L1-161.993a22.92,22.92,0,0,1,5.431,1.811,2.33,2.33,0,0,1,1.307,1.87l4.39,16.982h5.818l8.919-21.28H21.085" transform="translate(-1 163)"/>
    </clipPath>
    <clipPath id="clip-path-2">
      <rect id="Rectangle_21136" data-name="Rectangle 21136" class="cls-2" width="82.629" height="66.349"/>
    </clipPath>
    <clipPath id="clip-path-3">
      <path id="Path_23139" data-name="Path 23139" class="cls-2" d="M-51.15-299.778,15.976-324.5l15.271,41.467-67.125,24.721" transform="translate(51.15 324.499)"/>
    </clipPath>
    <clipPath id="clip-path-4">
      <path id="Path_23138" data-name="Path 23138" class="cls-2" d="M1-140.975H69.128V-163H1Z" transform="translate(-1 163)"/>
    </clipPath>
    <linearGradient id="linear-gradient" x1="-0.105" y1="2.002" x2="-0.105" y2="-4.358" gradientUnits="objectBoundingBox">
      <stop offset="0"/>
      <stop offset="0" stop-color="#222357"/>
      <stop offset="0.1" stop-color="#22275f"/>
      <stop offset="0.2" stop-color="#232b67"/>
      <stop offset="0.3" stop-color="#232f6e"/>
      <stop offset="0.4" stop-color="#233376"/>
      <stop offset="0.5" stop-color="#24377e"/>
      <stop offset="0.6" stop-color="#243a86"/>
      <stop offset="0.7" stop-color="#243e8e"/>
      <stop offset="0.8" stop-color="#244295"/>
      <stop offset="0.9" stop-color="#25469d"/>
      <stop offset="1" stop-color="#254aa5"/>
      <stop offset="1"/>
    </linearGradient>
    <linearGradient id="linear-gradient-2" x1="0.091" y1="0.968" x2="0.933" y2="0.008" gradientUnits="objectBoundingBox">
      <stop offset="0" stop-color="#222357"/>
      <stop offset="0.1" stop-color="#22275f"/>
      <stop offset="0.2" stop-color="#232b67"/>
      <stop offset="0.3" stop-color="#232f6e"/>
      <stop offset="0.4" stop-color="#233376"/>
      <stop offset="0.5" stop-color="#24377e"/>
      <stop offset="0.6" stop-color="#243a86"/>
      <stop offset="0.7" stop-color="#243e8e"/>
      <stop offset="0.8" stop-color="#244295"/>
      <stop offset="0.9" stop-color="#25469d"/>
      <stop offset="1" stop-color="#254aa5"/>
    </linearGradient>
  </defs>
  <g id="Group_23476" data-name="Group 23476" transform="translate(-123 -998)">
    <g id="W_Card_Bg_with_shadow" data-name="W/Card Bg with shadow" transform="translate(138 1013)">
      <g class="cls-13" transform="matrix(1, 0, 0, 1, -15, -15)">
        <rect id="Rectangle_21137-2" data-name="Rectangle 21137" class="cls-3" width="120" height="70" rx="6" transform="translate(15 15)"/>
      </g>
      <g class="cls-12" transform="matrix(1, 0, 0, 1, -15, -15)">
        <rect id="Rectangle_21138-2" data-name="Rectangle 21138" class="cls-3" width="120" height="70" rx="6" transform="translate(15 15)"/>
      </g>
    </g>
    <g id="Group_23472" data-name="Group 23472" transform="translate(163 1200)">
      <g id="Group_23471" data-name="Group 23471" class="cls-4" transform="translate(1 -163)">
        <g id="Group_23470" data-name="Group 23470" class="cls-5" transform="translate(-7.251 -22.162)">
          <g id="Group_23469" data-name="Group 23469" class="cls-6">
            <g id="Group_23468" data-name="Group 23468" class="cls-7" transform="translate(0.116 0.069)">
              <g id="Group_23467" data-name="Group 23467" class="cls-8" transform="translate(7.134 22.093)">
                <g id="Group_23465" data-name="Group 23465" class="cls-9" transform="translate(0)">
                  <g id="Group_23464" data-name="Group 23464">
                    <path id="Path_23136" data-name="Path 23136" class="cls-10" d="M52.15-322.32h68.128v22.025H52.15Z" transform="translate(-52.15 322.32)"/>
                  </g>
                </g>
                <g id="Group_23466" data-name="Group 23466" transform="translate(0)">
                  <path id="Path_23137" data-name="Path 23137" class="cls-11" d="M52.15-322.32h68.128v22.025H52.15Z" transform="translate(-52.15 322.32)"/>
                </g>
              </g>
            </g>
          </g>
        </g>
      </g>
    </g>
  </g>
</svg>
