<svg xmlns="http://www.w3.org/2000/svg" width="15.75" height="17.306" viewBox="0 0 15.75 17.306">
    <defs>
        <style>
            .cls-1{fill:none;stroke:#97a2a8;stroke-linecap:round;stroke-linejoin:round;stroke-width:1.75px}
        </style>
    </defs>
    <g id="trash-2_1_" transform="translate(.875 .875)">
        <path id="Path_23121" d="M3 6h14" class="cls-1" transform="translate(-3 -2.889)"/>
        <path id="Path_23122" d="M15.889 5.111V16a1.556 1.556 0 0 1-1.556 1.556H6.556A1.556 1.556 0 0 1 5 16V5.111m2.333 0V3.556A1.556 1.556 0 0 1 8.889 2H12a1.556 1.556 0 0 1 1.556 1.556v1.555" class="cls-1" transform="translate(-3.444 -2)"/>
        <path id="Line_1674" d="M0 0L0 4.667" class="cls-1" transform="translate(5.444 7)"/>
        <path id="Line_1675" d="M0 0L0 4.667" class="cls-1" transform="translate(8.556 7)"/>
    </g>
</svg>
