<svg xmlns="http://www.w3.org/2000/svg" id="warning" width="33.958" height="32" viewBox="0 0 33.958 32">
    <g id="Group_23374" data-name="Group 23374">
        <path id="Path_23155" fill="#fd3c4b" d="M33.252 39.245l-12-22.051a4.975 4.975 0 0 0-8.555 0l-12 22.051a4.972 4.972 0 0 0 4.277 7.514h24.001a4.973 4.973 0 0 0 4.277-7.514zm-16.273 3.534a1.99 1.99 0 1 1 1.99-1.99 1.992 1.992 0 0 1-1.99 1.99zm1.99-7.959a1.99 1.99 0 1 1-3.979 0v-9.948a1.99 1.99 0 0 1 3.979 0z" data-name="Path 23155" transform="translate(0 -14.759)"/>
    </g>
</svg>
