<svg xmlns="http://www.w3.org/2000/svg" width="20" height="20" viewBox="0 0 20 20">
    <path fill="none" d="M0 0H20V20H0z"/>
    <path fill="#6e7b93" d="M-4.416 0h-4.145v-1.016l1.395-1.41q.6-.625.781-.854a1.87 1.87 0 0 0 .256-.393.844.844 0 0 0 .072-.344.447.447 0 0 0-.143-.35.59.59 0 0 0-.407-.133 1.108 1.108 0 0 0-.545.154 3.909 3.909 0 0 0-.623.455l-.848-.992a4.572 4.572 0 0 1 .742-.564 2.651 2.651 0 0 1 .654-.26 3.232 3.232 0 0 1 .795-.09 2.4 2.4 0 0 1 .99.2 1.55 1.55 0 0 1 .676.557 1.431 1.431 0 0 1 .24.811 2.191 2.191 0 0 1-.084.621 2.193 2.193 0 0 1-.26.561 3.875 3.875 0 0 1-.467.58q-.291.3-1.24 1.156v.039h2.16zM.455-1.105h-.629V0H-1.7v-1.105h-2.275v-1.133L-1.6-5.711h1.426v3.453h.629zM-1.7-2.258v-.664q0-.187.014-.506a3.283 3.283 0 0 1 .021-.334h-.043a4.122 4.122 0 0 1-.3.563l-.633.941zm5.8-3.535L1.967.078H.615l2.129-5.871zM4.928 0l1.961-4.426H4.416V-5.7h4.121v.91L6.525 0z" transform="translate(10 14)"/>
</svg>
