<svg xmlns="http://www.w3.org/2000/svg" id="Automation" width="20" height="20" viewBox="0 0 20 20">
    <defs>
        <style>
            .cls-2{fill:none;stroke:#6e7a93;stroke-linecap:round;stroke-linejoin:round;stroke-width:1.75px}
        </style>
    </defs>
    <path id="Rectangle_21654" fill="none" d="M0 0H20V20H0z"/>
    <g id="settings" transform="translate(1.157 1.157)">
        <circle id="Ellipse_2268" cx="2.45" cy="2.45" r="2.45" class="cls-2" transform="translate(6.533 6.533)"/>
        <path id="Path_25918" d="M16.026 12.433a1.347 1.347 0 0 0 .269 1.486l.049.049a1.634 1.634 0 1 1-2.311 2.311l-.049-.049a1.358 1.358 0 0 0-2.3.964v.139a1.633 1.633 0 1 1-3.267 0v-.073a1.347 1.347 0 0 0-.882-1.233 1.347 1.347 0 0 0-1.486.269L6 16.345a1.634 1.634 0 1 1-2.311-2.311l.049-.049a1.358 1.358 0 0 0-.964-2.3h-.141a1.633 1.633 0 1 1 0-3.267h.073a1.347 1.347 0 0 0 1.234-.885 1.347 1.347 0 0 0-.27-1.486L3.621 6a1.634 1.634 0 1 1 2.311-2.313l.049.049a1.347 1.347 0 0 0 1.486.269h.065a1.347 1.347 0 0 0 .818-1.233v-.139a1.633 1.633 0 1 1 3.267 0v.073a1.358 1.358 0 0 0 2.3.964l.049-.049a1.634 1.634 0 1 1 2.311 2.311l-.049.049a1.347 1.347 0 0 0-.269 1.486v.065a1.347 1.347 0 0 0 1.233.817h.139a1.633 1.633 0 1 1 0 3.267h-.073a1.347 1.347 0 0 0-1.232.817z" class="cls-2" transform="translate(-1 -1)"/>
    </g>
</svg>
