<svg xmlns="http://www.w3.org/2000/svg" width="22.854" height="22.854" viewBox="0 0 22.854 22.854">
    <g>
        <g>
            <path fill="none" d="M0 0H20V20H0z" transform="translate(1.427 1.427)"/>
            <g>
                <g>
                    <g fill="none" stroke-linejoin="round">
                        <path d="M2.077 1.731L12.905 0l-2.077 10.685L0 12.416z" transform="translate(1.427 1.427) translate(1.048 1.048) rotate(45 4.39 10.597)"/>
                        <path fill="#6e7a93" d="M12.905 0L2.077 1.73 0 12.417l10.828-1.73L12.905 0m0-1.75c.47 0 .926.19 1.258.533.397.411.57.99.46 1.55L12.546 11.02c-.14.721-.716 1.278-1.441 1.394L.276 14.143c-.092.016-.184.023-.276.023-.47 0-.926-.19-1.258-.534-.397-.41-.569-.99-.46-1.55L.36 1.397C.499.675 1.075.119 1.8.003l10.828-1.731c.092-.015.185-.022.276-.022z" transform="translate(1.427 1.427) translate(1.048 1.048) rotate(45 4.39 10.597)"/>
                    </g>
                    <path fill="#6e7a93" d="M-3.583-2.83a.615.615 0 0 0-.537.282 1.362 1.362 0 0 0-.193.778q0 1.03.784 1.03a1.605 1.605 0 0 0 .459-.066 4.592 4.592 0 0 0 .447-.159v.815a2.473 2.473 0 0 1-1.011.2 1.6 1.6 0 0 1-1.239-.47A1.933 1.933 0 0 1-5.3-1.775a2.162 2.162 0 0 1 .2-.974 1.494 1.494 0 0 1 .6-.646 1.814 1.814 0 0 1 .922-.226 2.539 2.539 0 0 1 1.106.251l-.3.759a3.321 3.321 0 0 0-.4-.156 1.382 1.382 0 0 0-.411-.063zM1.471 0H.206L-1.1-2.515h-.022q.046.593.046.906V0h-.854v-3.569h1.26l1.3 2.48h.016q-.034-.54-.034-.867v-1.613h.859zm2.2-2.09h1.545v1.924a4.235 4.235 0 0 1-1.379.215A1.667 1.667 0 0 1 2.561-.43a1.916 1.916 0 0 1-.45-1.365A1.793 1.793 0 0 1 2.6-3.14a1.9 1.9 0 0 1 1.382-.481 3.059 3.059 0 0 1 .636.063 2.686 2.686 0 0 1 .521.161l-.305.757a1.887 1.887 0 0 0-.847-.19.806.806 0 0 0-.653.275 1.188 1.188 0 0 0-.231.785 1.2 1.2 0 0 0 .209.763.724.724 0 0 0 .6.262 1.766 1.766 0 0 0 .4-.042v-.559h-.636z" transform="translate(1.427 1.427) translate(1.048 1.048) translate(8.952 10.968)"/>
                </g>
            </g>
        </g>
    </g>
</svg>
