<svg xmlns="http://www.w3.org/2000/svg" width="20" height="20" viewBox="0 0 20 20">
    <path fill="none" d="M0 0H20V20H0z"/>
    <g>
        <g>
            <path fill="none" stroke="#6e7a93" stroke-width="1.75px" d="M23.308 20.846a.693.693 0 0 0-.692-.692h-6.924a.693.693 0 0 0-.692.692h-.692a.693.693 0 0 0-.692-.692h-2.77a.693.693 0 0 0-.692.692h-.692v-4.154A.693.693 0 0 0 8.769 16H6.692a.693.693 0 0 0-.692.692v9.692a.693.693 0 0 0 .692.692h2.077a.693.693 0 0 0 .692-.692v-2.076h11.077v2.077a.693.693 0 0 0 .692.692h2.077a.693.693 0 0 0 .693-.692v-4.847a.693.693 0 0 0-.692-.692z" transform="translate(-5 -12) translate(6 16) translate(-6 -16)"/>
        </g>
    </g>
</svg>
