<svg xmlns="http://www.w3.org/2000/svg" width="32" height="50" viewBox="0 0 32 50">
    <defs>
        <style>
            .cls-3{fill:#0369dd}.cls-4{fill:none}
        </style>
    </defs>
    <g id="Group_31051" transform="translate(-916 -565)">
        <g id="Group_30989" transform="translate(-201 304)">
            <g id="Ellipse_2275" fill="#fff" stroke="#354463" stroke-width="1.5px" transform="translate(1121 289)">
                <circle cx="11" cy="11" r="11" stroke="none"/>
                <circle cx="11" cy="11" r="10.25" class="cls-4"/>
            </g>
            <circle id="Ellipse_2276" cx="6.111" cy="6.111" r="6.111" fill="#354463" transform="translate(1125.889 293.889)"/>
        </g>
        <g id="Store_Pointer" transform="translate(916 565)">
            <g id="Group_30975">
                <circle id="Ellipse_2314" cx="16" cy="16" r="16" class="cls-3"/>
                <path id="Path_26068" d="M18621.385 3132h9.98l-4.932 5.99z" class="cls-3" transform="translate(-18610.719 -3100.914)"/>
            </g>
            <g id="Group_30976" transform="translate(7.111 7.111)">
                <path id="Rectangle_21771" d="M0 0H17.778V17.778H0z" class="cls-4"/>
                <g id="Group_30796" transform="translate(2.222 1.481)">
                    <path id="Icon_metro-gas-station" fill="#fff" d="M20.456 9.845l.012-.012-3.01-3-.857.857 1.705 1.705a2.017 2.017 0 0 0 .719 3.9 2 2 0 0 0 .808-.17v5.826a.808.808 0 0 1-1.616 0v-3.635A1.616 1.616 0 0 0 16.6 13.7h-.808V8.043a1.616 1.616 0 0 0-1.616-1.616H9.328a1.616 1.616 0 0 0-1.616 1.616v12.929h8.081v-6.06h1.212v4.04a2.02 2.02 0 1 0 4.04 0v-7.677a2.029 2.029 0 0 0-.59-1.43zm-6.279 2.238H9.328v-4.04h4.848zm4.848 0a.808.808 0 1 1 .808-.808.81.81 0 0 1-.808.808z" transform="translate(-7.712 -6.427)"/>
                </g>
            </g>
        </g>
    </g>
</svg>
