<svg xmlns="http://www.w3.org/2000/svg" width="20" height="20" viewBox="0 0 20 20">
    <defs>
        <style>
            .cls-1,.cls-2,.cls-3{fill:none}.cls-3{stroke:#0369dd;stroke-width:1.75px}.cls-4,.cls-5{stroke:none}.cls-5{fill:#0369dd}
        </style>
    </defs>
    <g id="Group_30074" transform="translate(-.359)">
        <path id="Rectangle_21654" d="M0 0H20V20H0z" class="cls-1" transform="translate(.359)"/>
        <g id="Group_30045" transform="translate(4 1)">
            <g id="Subtraction_1" class="cls-2">
                <path d="M2 0h7.875a2 2 0 0 1 2 2v11.183a2 2 0 0 1-2 2H2a2 2 0 0 1-2-2V2a2 2 0 0 1 2-2z" class="cls-4" transform="translate(0 3.732)"/>
                <path d="M2 1.75c-.138 0-.25.112-.25.25v11.183c0 .138.112.25.25.25h7.875c.138 0 .25-.112.25-.25V2c0-.138-.112-.25-.25-.25H2M2 0h7.875c1.104 0 2 .895 2 2v11.183c0 1.104-.896 2-2 2H2c-1.105 0-2-.896-2-2V2C0 .895.895 0 2 0z" class="cls-5" transform="translate(0 3.732)"/>
            </g>
            <g id="Rectangle_21437" class="cls-3" transform="translate(0 3.817)">
                <rect width="11.875" height="15.183" class="cls-4" rx="2"/>
                <rect width="10.125" height="13.433" x=".875" y=".875" class="cls-1" rx="1.125"/>
            </g>
            <path id="Path_25461" d="M-1935 7390.817V7387" class="cls-3" transform="translate(1938.223 -7387)"/>
            <path id="Path_25462" d="M-1935 7390.817V7387" class="cls-3" transform="translate(1943.482 -7387)"/>
            <path id="Path_25464" d="M-1903 7409.06v-2.126" class="cls-3" transform="translate(1908.938 -7405.243)"/>
            <path id="Path_25469" d="M-1920.554 7406.933h8.677" class="cls-3" transform="translate(1922.056 -7406.387)"/>
            <path id="Path_25466" d="M-1973 7473.05h11.01" class="cls-3" transform="translate(1973 -7464.606)"/>
            <g id="Path_25468" class="cls-2">
                <path d="M2.078-17c.526.006 2.078 2.372 2.078 3.52a2.078 2.078 0 0 1-2.078 2.08A2.078 2.078 0 0 1 0-13.48c0-1.148 1.552-3.526 2.078-3.52z" class="cls-4" transform="translate(4.071 27.391)"/>
                <path d="M2.077-14.304c-.234.455-.314.75-.327.84.008.173.152.312.328.312.176 0 .32-.139.328-.313-.013-.09-.094-.384-.329-.84m0-2.695h.001c.526.006 2.078 2.372 2.078 3.52 0 1.148-.93 2.078-2.078 2.078C.93-11.402 0-12.332 0-13.48 0-14.626 1.548-17 2.076-17z" class="cls-5" transform="translate(4.071 27.391)"/>
            </g>
        </g>
    </g>
</svg>
