<svg xmlns="http://www.w3.org/2000/svg" width="40" height="40" viewBox="0 0 40 40">
    <defs>
        <style>
            .cls-3{fill:none;stroke:#6e7a93;stroke-linecap:round;stroke-linejoin:round;stroke-width:1.75px}
        </style>
    </defs>
    <g id="Group_30849" transform="translate(-.359)">
        <rect id="Rectangle_21685" width="40" height="40" fill="#eff3fa" rx="20" transform="translate(.359)"/>
        <g id="Group_30868" transform="translate(10.007 10)">
            <g id="Group_30070">
                <path id="Rectangle_21654" fill="none" d="M0 0H20V20H0z" transform="translate(.359)"/>
                <g id="settings" transform="translate(.353 1)">
                    <circle id="Ellipse_2268" cx="2.455" cy="2.455" r="2.455" class="cls-3" transform="translate(6.545 6.545)"/>
                    <path id="Path_25918" d="M16.055 12.455a1.35 1.35 0 0 0 .27 1.489l.049.049a1.637 1.637 0 1 1-2.315 2.315l-.049-.049a1.361 1.361 0 0 0-2.307.965v.139a1.636 1.636 0 0 1-3.273 0v-.073a1.35 1.35 0 0 0-.884-1.235 1.35 1.35 0 0 0-1.489.27l-.049.049a1.637 1.637 0 1 1-2.315-2.315l.049-.049a1.361 1.361 0 0 0-.967-2.31h-.139a1.636 1.636 0 1 1 0-3.273h.074a1.35 1.35 0 0 0 1.235-.884 1.35 1.35 0 0 0-.27-1.489l-.049-.049a1.637 1.637 0 1 1 2.316-2.313l.049.049a1.35 1.35 0 0 0 1.489.27h.065a1.35 1.35 0 0 0 .818-1.235v-.14a1.636 1.636 0 1 1 3.273 0v.074a1.361 1.361 0 0 0 2.307.965l.049-.049a1.637 1.637 0 1 1 2.315 2.315l-.049.049a1.35 1.35 0 0 0-.27 1.489v.065a1.35 1.35 0 0 0 1.235.818h.139a1.636 1.636 0 0 1 0 3.273h-.072a1.35 1.35 0 0 0-1.235.82z" class="cls-3" transform="translate(-1 -1)"/>
                </g>
            </g>
        </g>
    </g>
</svg>
