<svg xmlns="http://www.w3.org/2000/svg" id="Lubricants" width="20" height="20" viewBox="0 0 20 20">
    <defs>
        <style>
            .cls-2{fill:#0369dd;stroke:#0268dc}
        </style>
    </defs>
    <path id="Rectangle_21794" fill="none" d="M0 0H20V20H0z"/>
    <g id="noun_Oil_3473531" transform="translate(-10 -1)">
        <g id="Group_32189" transform="translate(15 2)">
            <path id="Path_26123" d="M24.628 10.588l-4.334-4.877V2.882A.882.882 0 0 0 19.412 2h-3.53a.882.882 0 0 0-.882.882v15.883a.882.882 0 0 0 .882.882h8.235a.882.882 0 0 0 .883-.882v-7.2a1.467 1.467 0 0 0-.372-.977zm-9.04-7.706a.294.294 0 0 1 .294-.294h3.529a.294.294 0 0 1 .294.294v2.574h-4.117zm8.824 15.882a.294.294 0 0 1-.294.294h-8.236a.294.294 0 0 1-.294-.294V6.118h4.28l4.321 4.861a.882.882 0 0 1 .223.586z" class="cls-2" transform="translate(-15 -2)"/>
            <path id="Path_26125" d="M29.217 41.223a2.22 2.22 0 0 0 2.217-2.217c0-1.064-1.543-3.352-1.852-3.8a.46.46 0 0 0-.73 0c-.31.447-1.852 2.735-1.852 3.8a2.22 2.22 0 0 0 2.217 2.217zm0-4.963a8.629 8.629 0 0 1 1.33 2.746 1.33 1.33 0 0 1-2.661 0 8.629 8.629 0 0 1 1.331-2.746z" class="cls-2" transform="translate(-24.326 -26.203)"/>
        </g>
    </g>
</svg>
