<svg xmlns="http://www.w3.org/2000/svg" width="20" height="20" viewBox="0 0 20 20">
    <path fill="none" d="M0 0H20V20H0z"/>
    <g>
        <g>
            <path fill="#6e7a93" stroke="#6e7b93" stroke-width="0.8px" d="M13.912 19.988h6.875v-1.577L22 11.939 21.6 3h-.4c-1.132 0-1.7.445-1.941 1.739l-.687-1.416-.324.121a1.723 1.723 0 0 0-1.132.971c-.4.89-.2 2.306.647 4.611L15 8.7l-3.96 3.522.081.243a1.717 1.717 0 0 0 .971 1.173 1.96 1.96 0 0 0-.971.93l-.121.243 2.912 3.317zm6.066-.809h-5.257V17.8l-2.75-3.115a.87.87 0 0 1 .485-.364 1.6 1.6 0 0 1 1.213.364l1.739 1.254h.121a2.263 2.263 0 0 0 2.224-2.427 2.889 2.889 0 0 0-.526-1.658 2.056 2.056 0 0 0-1.7-.769h-.121l-1.739 1.294c-.728.485-1.132.526-1.335.445-.162-.04-.283-.2-.4-.4l3.316-2.953 3.721.485-.243-.647c-.93-2.386-1.254-3.883-.89-4.611a1.584 1.584 0 0 1 .324-.4l1.82 3.64v-1.7c0-1.942.324-2.346.809-2.427l.4 8.049-1.211 6.47zM15.651 11.9a1.4 1.4 0 0 1 .93.485 1.73 1.73 0 0 1 .364 1.133 1.483 1.483 0 0 1-1.294 1.618L14.154 14a2.606 2.606 0 0 0-.971-.445 6.913 6.913 0 0 0 .93-.485z" transform="translate(-6 -1) translate(11 3) translate(-11 -3)"/>
        </g>
    </g>
</svg>
