<svg xmlns="http://www.w3.org/2000/svg" width="20" height="20" viewBox="0 0 20 20">
    <path fill="none" d="M0 0H20V20H0z"/>
    <g>
        <g>
            <path fill="#6e7a93" d="M19.2 959.353a5.418 5.418 0 0 0-4.843 7.053L7.7 973.06a2.51 2.51 0 0 0 3.549 3.549l6.654-6.654a5.429 5.429 0 0 0 6.713-7.112.837.837 0 0 0-1.373-.294l-2.621 2.621-1.15-.333-.327-1.15 2.615-2.615a.837.837 0 0 0-.294-1.379 5.444 5.444 0 0 0-2.268-.34zm.216 1.7l-1.8 1.8a.837.837 0 0 0-.209.817l.588 2.072a.837.837 0 0 0 .575.575l2.072.588a.837.837 0 0 0 .824-.209l1.8-1.8a3.692 3.692 0 0 1-1.059 2.536 3.764 3.764 0 0 1-4.177.784.837.837 0 0 0-.928.176l-7.027 7.027a.837.837 0 0 1-1.183-1.183l7.027-7.027a.837.837 0 0 0 .176-.928 3.764 3.764 0 0 1 .784-4.177 3.7 3.7 0 0 1 2.543-1.059z" transform="translate(-5.972 -5.98) translate(0 -952.362)"/>
        </g>
    </g>
</svg>
