<svg xmlns="http://www.w3.org/2000/svg" xmlns:xlink="http://www.w3.org/1999/xlink" width="150" height="100" viewBox="0 0 150 100">
  <defs>
    <style>
      .cls-1 {
        fill: #fff;
      }

      .cls-2 {
        fill: #006fcf;
      }

      .cls-3 {
        filter: url(#Rectangle_21138);
      }

      .cls-4 {
        filter: url(#Rectangle_21137);
      }
    </style>
    <filter id="Rectangle_21137" x="6" y="6" width="144" height="94" filterUnits="userSpaceOnUse">
      <feOffset dx="3" dy="3" input="SourceAlpha"/>
      <feGaussianBlur stdDeviation="4" result="blur"/>
      <feFlood flood-color="#eff3fa"/>
      <feComposite operator="in" in2="blur"/>
      <feComposite in="SourceGraphic"/>
    </filter>
    <filter id="Rectangle_21138" x="0" y="0" width="144" height="94" filterUnits="userSpaceOnUse">
      <feOffset dx="-3" dy="-3" input="SourceAlpha"/>
      <feGaussianBlur stdDeviation="4" result="blur-2"/>
      <feFlood flood-color="#eff3fa"/>
      <feComposite operator="in" in2="blur-2"/>
      <feComposite in="SourceGraphic"/>
    </filter>
  </defs>
  <g id="Group_23480" data-name="Group 23480" transform="translate(-747 -998)">
    <g id="W_Card_Bg_with_shadow" data-name="W/Card Bg with shadow" transform="translate(762 1013)">
      <g class="cls-4" transform="matrix(1, 0, 0, 1, -15, -15)">
        <rect id="Rectangle_21137-2" data-name="Rectangle 21137" class="cls-1" width="120" height="70" rx="6" transform="translate(15 15)"/>
      </g>
      <g class="cls-3" transform="matrix(1, 0, 0, 1, -15, -15)">
        <rect id="Rectangle_21138-2" data-name="Rectangle 21138" class="cls-1" width="120" height="70" rx="6" transform="translate(15 15)"/>
      </g>
    </g>
    <g id="_01_Latest_Amex-logo-8a3X2q" data-name="01_Latest Amex-logo-8a3X2q" transform="translate(800 1026)">
      <path id="logo-blue-box-small-45-9x45-a" class="cls-1" d="M44.98,44.98H0V0H44.98Z"/>
      <path id="Path_23141" data-name="Path 23141" class="cls-2" d="M44.98,24.243V-.1H0V44.88H44.98V31.757c-.1,0,0-7.513,0-7.513" transform="translate(0 0.12)"/>
      <path id="Path_23142" data-name="Path 23142" class="cls-1" d="M39.47,21.714h3.406V13.8H39.17v1.1l-.7-1.1H35.263v1.4l-.6-1.4H28.751c-.2,0-.4.1-.6.1s-.3.1-.5.2-.3.1-.5.2v-.5H10.218l-.5,1.3-.5-1.3H5.209v1.4l-.6-1.4H1.4L0,17.206v4.508H2.3l.4-1.1h.8l.4,1.1H21.538v-1l.7,1h4.909v-.6c.1.1.3.1.4.2s.3.1.4.2a1.271,1.271,0,0,0,.6.1h3.606l.4-1.1h.8l.4,1.1h4.909v-1l.8,1.1Zm5.51,10.018V24.319H17.431l-.7,1-.7-1H8.014v7.914h8.014l.7-1,.7,1H22.44v-1.7h-.2a4.853,4.853,0,0,0,1.8-.3v2.1h3.606v-1l.7,1H43.277a8.525,8.525,0,0,0,1.7-.6Z" transform="translate(0 0.145)"/>
      <path id="Path_23143" data-name="Path 23143" class="cls-2" d="M43.277,29.826h-2.7v1.1h2.6a1.658,1.658,0,0,0,1.8-1.7,1.4,1.4,0,0,0-1.6-1.5h-1.2a.5.5,0,0,1,0-1h2.3l.5-1.1h-2.7a1.639,1.639,0,0,0-1.8,1.6,1.4,1.4,0,0,0,1.6,1.5h1.2a.473.473,0,0,1,.5.5c.1.4-.1.6-.5.6Zm-4.909,0h-2.7v1.1h2.6a1.658,1.658,0,0,0,1.8-1.7,1.4,1.4,0,0,0-1.6-1.5h-1.2a.5.5,0,1,1,0-1h2.3l.5-1.1h-2.7a1.639,1.639,0,0,0-1.8,1.6,1.4,1.4,0,0,0,1.6,1.5h1.2a.473.473,0,0,1,.5.5.467.467,0,0,1-.5.6ZM34.862,26.62v-1.1H30.654v5.309h4.207v-1.1H31.857v-1.1h2.905v-1.1H31.857v-1h3.005v.1Zm-6.812,0c.5,0,.7.3.7.6s-.2.6-.7.6h-1.5v-1.3l1.5.1Zm-1.5,2.3h.6l1.6,1.9h1.5l-1.8-2a1.606,1.606,0,0,0,1.4-1.6,1.658,1.658,0,0,0-1.8-1.7h-2.8v5.309h1.2l.1-1.9Zm-3.206-1.6a.633.633,0,0,1-.7.7h-1.6v-1.4h1.5a.715.715,0,0,1,.8.7Zm-3.506-1.8v5.309h1.2v-1.8h1.6a1.763,1.763,0,0,0,1.9-1.8,1.736,1.736,0,0,0-1.8-1.8l-2.905.1Zm-1.8,5.309h1.5l-2.1-2.7,2.1-2.6h-1.5l-1.3,1.7-1.3-1.7h-1.5l2.1,2.6-2.1,2.6h1.5l1.3-1.7,1.3,1.8ZM13.524,26.62v-1.1H9.317v5.309h4.207v-1.1H10.519v-1.1h2.905v-1.1H10.519v-1h3.005ZM37.867,17.2l2.1,3.206h1.5V15.1h-1.2v3.506l-.3-.5-1.9-3.005h-1.6v5.309h1.2V16.8l.2.4Zm-5.209-.1.4-1.1.4,1.1.5,1.2h-1.8l.5-1.2Zm2.1,3.306h1.3L33.76,15.1h-1.6l-2.3,5.309h1.3l.5-1.1h2.6l.5,1.1Zm-5.61,0,.5-1.1h-.3a1.344,1.344,0,0,1-1.4-1.5v-.1a1.344,1.344,0,0,1,1.4-1.5h1.3V15.1h-1.4a2.393,2.393,0,0,0-2.5,2.6v.1A2.321,2.321,0,0,0,29.152,20.409Zm-4.508,0h1.2V15.2h-1.2Zm-2.6-4.207c.5,0,.7.3.7.6s-.2.6-.7.6h-1.5V16.1l1.5.1Zm-1.5,2.3h.6l1.6,1.9h1.5l-1.8-2a1.606,1.606,0,0,0,1.4-1.6,1.658,1.658,0,0,0-1.8-1.7h-2.8v5.309h1.2l.1-1.9Zm-2.2-2.3V15.1H14.125v5.309h4.207v-1.1H15.327v-1.1h2.905V17.1H15.327v-1h3.005ZM9.216,20.409h1.1l1.5-4.308v4.308h1.2V15.1h-2l-1.2,3.606L8.615,15.1h-2v5.309h1.2V16.1l1.4,4.308ZM2.7,17.1l.4-1.1.4,1.1.5,1.2H2.2l.5-1.2Zm2.1,3.306h1.3L3.807,15.1H2.3L0,20.409H1.3l.5-1.1h2.6l.4,1.1Z" transform="translate(0 0.147)"/>
    </g>
  </g>
</svg>
