<svg xmlns="http://www.w3.org/2000/svg" id="Component_701_1" width="125" height="125" viewBox="0 0 125 125">
    <defs>
        <style>
            .cls-4{fill:#d9d9d9}.cls-5{fill:#ffc402}.cls-7{fill:#ffdc00}
        </style>
    </defs>
    <g id="Group_29810">
        <path id="Path_23046" fill="#daf5fd" d="M62.5 0A62.5 62.5 0 1 1 0 62.5 62.5 62.5 0 0 1 62.5 0z"/>
        <g id="form" transform="translate(35.153 26.909)">
            <path id="Path_23762" fill="#354463" d="M62.671 86.193h-44.13a5.806 5.806 0 0 1-5.806-5.806V22.322a5.806 5.806 0 0 1 5.806-5.806H62.67a5.806 5.806 0 0 1 5.806 5.806v58.065a5.806 5.806 0 0 1-5.805 5.806z" transform="translate(-12.735 -14.193)"/>
            <path id="Path_23764" fill="#fff" d="M91.057 49.548H46.928a1.161 1.161 0 0 0-1.161 1.161v58.065a1.161 1.161 0 0 0 1.161 1.161h33.677l11.614-11.613V50.709a1.161 1.161 0 0 0-1.162-1.161z" transform="translate(-41.122 -42.58)"/>
            <path id="Path_23765" d="M126.67 241.807H96.476a1.161 1.161 0 0 1-1.161-1.161 1.161 1.161 0 0 1 1.161-1.161h30.194a1.161 1.161 0 0 1 1.161 1.161 1.161 1.161 0 0 1-1.161 1.161z" class="cls-4" transform="translate(-83.702 -205.807)"/>
            <path id="Path_23766" d="M126.67 283.1H96.476a1.161 1.161 0 0 1-1.161-1.161 1.161 1.161 0 0 1 1.161-1.161h30.194a1.161 1.161 0 0 1 1.161 1.161 1.161 1.161 0 0 1-1.161 1.161z" class="cls-4" transform="translate(-83.702 -241.29)"/>
            <path id="Path_23767" d="M120.864 324.388H96.477a1.161 1.161 0 0 1-1.161-1.161 1.161 1.161 0 0 1 1.161-1.161h24.387a1.161 1.161 0 0 1 1.161 1.161 1.161 1.161 0 0 1-1.161 1.161z" class="cls-4" transform="translate(-83.703 -276.775)"/>
            <path id="Path_23768" d="M116.219 365.678H96.477a1.161 1.161 0 0 1-1.161-1.161 1.161 1.161 0 0 1 1.161-1.161h19.742a1.161 1.161 0 0 1 1.161 1.161 1.161 1.161 0 0 1-1.161 1.161z" class="cls-4" transform="translate(-83.703 -312.258)"/>
            <path id="Path_23769" d="M155.187 8.129h-16.258a2.323 2.323 0 0 1-2.323-2.323V2.323A2.323 2.323 0 0 1 138.929 0h16.258a2.323 2.323 0 0 1 2.323 2.323v3.483a2.322 2.322 0 0 1-2.323 2.323z" class="cls-5" transform="translate(-119.187)"/>
            <path id="Path_23770" fill="#79e2f3" d="M294.67 396.387a1.161 1.161 0 0 0-1.161 1.161V408l11.613-11.613z" transform="translate(-254.025 -340.645)"/>
            <path id="Path_23775" d="M155.187 27.1h-16.258a2.323 2.323 0 0 1-2.323-2.323V27.1a2.323 2.323 0 0 0 2.323 2.323h16.258a2.323 2.323 0 0 0 2.323-2.323v-2.326a2.322 2.322 0 0 1-2.323 2.326z" class="cls-7" transform="translate(-119.187 -21.29)"/>
            <path id="Path_23776" fill="#6be4c1" d="M257.99 150.656l-4.906 2.726a.58.58 0 0 1-.788-.788l2.726-4.906a5.8 5.8 0 0 1 .97-1.286l27.344-27.344a1.161 1.161 0 0 1 1.642 0l1.642 1.642a1.161 1.161 0 0 1 0 1.642l-27.344 27.344a5.807 5.807 0 0 1-1.286.97z" transform="translate(-218.542 -102.023)"/>
            <path id="Path_23777" fill="#01d195" d="M284.982 119.057a1.161 1.161 0 0 0-1.642 0L256 146.4a5.811 5.811 0 0 0-.97 1.286l-2.726 4.906a.566.566 0 0 0 .123.711l33.4-33.4z" transform="translate(-218.546 -102.023)"/>
            <path id="Path_23778" fill="#ffedb1" d="M255.991 314.081a5.811 5.811 0 0 0-.97 1.286l-2.726 4.906a.58.58 0 0 0 .788.788l4.906-2.726a5.8 5.8 0 0 0 1.286-.97l.246-.246-3.285-3.285z" transform="translate(-218.542 -269.702)"/>
            <path id="Path_23779" d="M459.256 124.805l2.464-2.463a1.161 1.161 0 0 0 0-1.642l-1.642-1.642a1.161 1.161 0 0 0-1.642 0l-2.464 2.463z" class="cls-7" transform="translate(-393.641 -102.023)"/>
            <path id="Path_23780" d="M460.077 119.057a1.161 1.161 0 0 0-1.642 0l-2.464 2.463 1.665 1.665 3.285-3.285z" class="cls-5" transform="translate(-393.641 -102.023)"/>
            <path id="Path_23781" fill="#5d5360" d="M253.721 341.351l-1.427 2.569a.58.58 0 0 0 .788.788l2.569-1.427z" transform="translate(-218.541 -293.349)"/>
            <path id="Path_23782" d="M126.67 241.807H96.476a1.161 1.161 0 0 1-1.161-1.161 1.161 1.161 0 0 1 1.161-1.161h30.194a1.161 1.161 0 0 1 1.161 1.161 1.161 1.161 0 0 1-1.161 1.161z" class="cls-4" transform="translate(-83.702 -217.43)"/>
            <path id="Path_23783" d="M126.67 283.1H96.476a1.161 1.161 0 0 1-1.161-1.161 1.161 1.161 0 0 1 1.161-1.161h30.194a1.161 1.161 0 0 1 1.161 1.161 1.161 1.161 0 0 1-1.161 1.161z" class="cls-4" transform="translate(-83.702 -252.931)"/>
            <path id="Path_23784" d="M126.67 283.1H96.476a1.161 1.161 0 0 1-1.161-1.161 1.161 1.161 0 0 1 1.161-1.161h30.194a1.161 1.161 0 0 1 1.161 1.161 1.161 1.161 0 0 1-1.161 1.161z" class="cls-4" transform="translate(-83.702 -264.509)"/>
        </g>
    </g>
</svg>
