<svg xmlns="http://www.w3.org/2000/svg" id="W_Icon_Header_Logo" width="49.23" height="72" data-name="W/Icon/Header/Logo" viewBox="0 0 49.23 72">
    <defs>
        <style>
            .cls-1{fill:#fff}.cls-5{fill:#ffdc00}.cls-6{fill:#0076c0}.cls-5{fill-rule:evenodd}
        </style>
    </defs>
    <path id="Rectangle_21081" d="M0 0H49.23V72H0z" class="cls-1" data-name="Rectangle 21081"/>
    <g id="Group_23273" data-name="Group 23273" transform="translate(3.6 3.6)">
        <path id="Rectangle_484" fill="#ffdc00" d="M0 0H42.009V56.461H0z" data-name="Rectangle 484" transform="translate(.005)"/>
        <path id="Rectangle_485" d="M0 0H41.009V33.051H0z" class="cls-1" data-name="Rectangle 485" transform="translate(.469 .682)"/>
        <g id="Group_21370" data-name="Group 21370" transform="translate(6.85 4.082)">
            <path id="Path_1028" fill="#0076c0" fill-rule="evenodd" d="M299.541-196.589a14.105 14.105 0 0 1 14.1 14.053 14.106 14.106 0 0 1-14.1 14.054 14.106 14.106 0 0 1-14.1-14.054 14.105 14.105 0 0 1 14.1-14.053" data-name="Path 1028" transform="translate(-285.438 196.589)"/>
            <path id="Path_1031" fill="#fff" fill-rule="evenodd" d="M299.079-189.468a9.44 9.44 0 0 1 9.471 9.373 9.439 9.439 0 0 1-9.471 9.371 9.439 9.439 0 0 1-9.471-9.371 9.44 9.44 0 0 1 9.471-9.373m0-1.378a10.828 10.828 0 0 1 10.864 10.746 10.828 10.828 0 0 1-10.863 10.749 10.828 10.828 0 0 1-10.864-10.749 10.828 10.828 0 0 1 10.863-10.751" data-name="Path 1031" transform="translate(-284.923 196.997)"/>
            <g id="Group_21371" data-name="Group 21371" transform="translate(7.068 10.292)">
                <path id="Path_1029" d="M304.794-184.533c-4.577-3.456-11.4-.3-11.156 4.583.119 5.386 5.822 4.6 5.908.953.249-4.608 2.225-5.419 5.248-5.536" class="cls-5" data-name="Path 1029" transform="translate(-293.631 185.992)"/>
                <path id="Path_1030" d="M295.826-172.446l.1.094c4.694 3.591 10.951-.055 10.8-4.81-.273-5.736-5.972-4.215-5.832-.684-.216 4.051-1.534 5.084-5.063 5.4" class="cls-5" data-name="Path 1030" transform="translate(-292.826 184.467)"/>
            </g>
        </g>
        <path id="Path_1032" d="M288.2-165.036c.549 0 .881.005 1 .016a.717.717 0 0 1 .438.182.52.52 0 0 1 .147.383.513.513 0 0 1-.17.4.84.84 0 0 1-.471.184c-.111.01-.392.016-.847.016h-.764v-1.185zm-1.837 4.268h1.964q1.115 0 1.406-.032a1.8 1.8 0 0 0 .781-.243 1.431 1.431 0 0 0 .5-.524 1.375 1.375 0 0 0 .183-.679 1.138 1.138 0 0 0-.283-.768 1.555 1.555 0 0 0-.808-.466 1.309 1.309 0 0 0 .593-.455 1.131 1.131 0 0 0 .219-.671 1.073 1.073 0 0 0-.179-.606 1.394 1.394 0 0 0-.442-.433 1.561 1.561 0 0 0-.6-.214 7.515 7.515 0 0 0-1.022-.051h-2.308zm2.108-2.209a4.567 4.567 0 0 1 1.033.071.723.723 0 0 1 .364.229.594.594 0 0 1 .126.381.561.561 0 0 1-.164.424.763.763 0 0 1-.424.2 5.827 5.827 0 0 1-.8.034h-1.078v-1.337z" class="cls-6" data-name="Path 1032" transform="translate(-277.186 202.458)"/>
        <path id="Path_1033" d="M292.685-165.91v1.888a1.717 1.717 0 0 1 1.277-.552 1.778 1.778 0 0 1 .688.127 1.126 1.126 0 0 1 .462.321 1.105 1.105 0 0 1 .212.434 3.477 3.477 0 0 1 .057.74v2.185h-1.109v-1.97a2.671 2.671 0 0 0-.063-.745.515.515 0 0 0-.222-.25.78.78 0 0 0-.4-.091 1 1 0 0 0-.49.117.7.7 0 0 0-.316.361 1.96 1.96 0 0 0-.1.71v1.87h-1.109v-5.142z" class="cls-6" data-name="Path 1033" transform="translate(-276.753 202.458)"/>
        <path id="Path_1034" d="M298.311-162.463a1.656 1.656 0 0 1-.043.478.623.623 0 0 1-.261.327 1.025 1.025 0 0 1-.568.176.641.641 0 0 1-.438-.151.455.455 0 0 1-.172-.355.4.4 0 0 1 .213-.348 2.093 2.093 0 0 1 .6-.17c.305-.057.528-.108.668-.15zm-1.214-1.362a.858.858 0 0 1 .462-.1 1.041 1.041 0 0 1 .595.12.479.479 0 0 1 .157.406v.1a6.454 6.454 0 0 1-1.071.244 3.936 3.936 0 0 0-.877.227 1.073 1.073 0 0 0-.474.379.971.971 0 0 0-.168.563.979.979 0 0 0 .37.786 1.544 1.544 0 0 0 1.016.309 1.964 1.964 0 0 0 .688-.12 1.987 1.987 0 0 0 .605-.362l.038.115c.044.13.078.227.107.292h1.1a1.94 1.94 0 0 1-.2-.5 3.438 3.438 0 0 1-.054-.721l.012-1.155a1.835 1.835 0 0 0-.147-.88 1.068 1.068 0 0 0-.508-.4 2.926 2.926 0 0 0-1.1-.156 2.324 2.324 0 0 0-1.225.26 1.387 1.387 0 0 0-.581.8l.992.164a.74.74 0 0 1 .268-.37" class="cls-6" data-name="Path 1034" transform="translate(-276.409 202.56)"/>
        <path id="Path_1035" d="M301.049-160.87h-1.109v-3.73h1.028v.526a1.569 1.569 0 0 1 .474-.49 1 1 0 0 1 .479-.113 1.545 1.545 0 0 1 .729.186l-.347.86a1.048 1.048 0 0 0-.516-.159.663.663 0 0 0-.393.113.754.754 0 0 0-.252.411 5.142 5.142 0 0 0-.093 1.248z" class="cls-6" data-name="Path 1035" transform="translate(-276.056 202.56)"/>
        <path id="Path_1036" d="M305.057-162.463a1.7 1.7 0 0 1-.043.478.639.639 0 0 1-.261.327 1.035 1.035 0 0 1-.57.176.642.642 0 0 1-.437-.151.455.455 0 0 1-.172-.355.4.4 0 0 1 .214-.348 2.08 2.08 0 0 1 .6-.17c.3-.057.529-.108.67-.15zm-1.215-1.362a.857.857 0 0 1 .462-.1 1.049 1.049 0 0 1 .6.12.483.483 0 0 1 .157.406v.1a6.5 6.5 0 0 1-1.072.244 3.935 3.935 0 0 0-.877.227 1.079 1.079 0 0 0-.474.379.981.981 0 0 0-.169.563.977.977 0 0 0 .373.786 1.539 1.539 0 0 0 1.015.309 1.954 1.954 0 0 0 .688-.12 1.976 1.976 0 0 0 .605-.362l.039.115c.043.13.078.227.107.292h1.1a1.865 1.865 0 0 1-.2-.5 3.447 3.447 0 0 1-.053-.721l.011-1.155a1.852 1.852 0 0 0-.146-.88 1.086 1.086 0 0 0-.51-.4 2.921 2.921 0 0 0-1.1-.156 2.316 2.316 0 0 0-1.223.26 1.39 1.39 0 0 0-.582.8l.992.164a.74.74 0 0 1 .268-.37" class="cls-6" data-name="Path 1036" transform="translate(-275.846 202.56)"/>
        <path id="Path_1037" d="M308.691-164.507v.786h-.759v1.5a3.805 3.805 0 0 0 .021.532l.1.124.184.049a1.568 1.568 0 0 0 .439-.092l.1.766a2.559 2.559 0 0 1-.87.138 1.546 1.546 0 0 1-.537-.087.744.744 0 0 1-.351-.227.835.835 0 0 1-.155-.386 4.073 4.073 0 0 1-.037-.694v-1.626h-.513v-.786h.513v-.737l1.109-.574v1.311z" class="cls-6" data-name="Path 1037" transform="translate(-275.526 202.465)"/>
        <path id="Path_1038" d="M281.9-157.943a5.994 5.994 0 0 1 .834.035.825.825 0 0 1 .466.227.62.62 0 0 1 .183.464.651.651 0 0 1-.131.4.764.764 0 0 1-.362.252 3.407 3.407 0 0 1-.915.08h-.635v-1.46zm-.56 4.269v-1.935h.757a7.156 7.156 0 0 0 1.206-.077 1.8 1.8 0 0 0 .6-.242 1.461 1.461 0 0 0 .488-.509 1.53 1.53 0 0 0 .192-.8 1.484 1.484 0 0 0-.334-1 1.544 1.544 0 0 0-.83-.5 7.594 7.594 0 0 0-1.384-.075h-1.865v5.142z" class="cls-6" data-name="Path 1038" transform="translate(-277.702 203.048)"/>
        <path id="Path_1039" d="M285.832-155.949a.851.851 0 0 1 .232-.647.8.8 0 0 1 .6-.239.8.8 0 0 1 .573.227.9.9 0 0 1 .248.659zm1.324 1.4a.736.736 0 0 1-.438.127.89.89 0 0 1-.638-.243.927.927 0 0 1-.268-.68h2.767a2.252 2.252 0 0 0-.515-1.688 1.972 1.972 0 0 0-1.471-.547 1.9 1.9 0 0 0-1.372.523 1.921 1.921 0 0 0-.541 1.449 1.958 1.958 0 0 0 .412 1.281 1.975 1.975 0 0 0 1.612.627 2.178 2.178 0 0 0 1.146-.279 1.628 1.628 0 0 0 .671-.819l-1.1-.161a.781.781 0 0 1-.268.409" class="cls-6" data-name="Path 1039" transform="translate(-277.327 203.151)"/>
        <path id="Path_1040" d="M290.938-157.414v.788h-.759v1.5a3.631 3.631 0 0 0 .021.533l.1.125.184.049a1.564 1.564 0 0 0 .438-.093l.1.765a2.558 2.558 0 0 1-.87.139 1.6 1.6 0 0 1-.538-.086.77.77 0 0 1-.351-.229.841.841 0 0 1-.155-.386 4.233 4.233 0 0 1-.036-.694v-1.626h-.513v-.788h.513v-.736l1.109-.574v1.31z" class="cls-6" data-name="Path 1040" transform="translate(-277.004 203.056)"/>
        <path id="Path_1041" d="M292.374-153.776h-1.109v-3.733h1.027v.526a1.587 1.587 0 0 1 .474-.489 1.011 1.011 0 0 1 .479-.113 1.541 1.541 0 0 1 .729.185l-.346.861a1.047 1.047 0 0 0-.517-.159.659.659 0 0 0-.392.113.763.763 0 0 0-.255.409 5.325 5.325 0 0 0-.091 1.25z" class="cls-6" data-name="Path 1041" transform="translate(-276.778 203.151)"/>
        <path id="Path_1042" d="M295.24-156.492a.992.992 0 0 1 .728-.292.981.981 0 0 1 .725.292 1.143 1.143 0 0 1 .295.842 1.159 1.159 0 0 1-.295.856.979.979 0 0 1-.725.295.989.989 0 0 1-.728-.295 1.145 1.145 0 0 1-.3-.848 1.146 1.146 0 0 1 .3-.849m-1.157 1.888a1.682 1.682 0 0 0 .794.674 2.719 2.719 0 0 0 1.1.229 2.224 2.224 0 0 0 1.543-.552 1.8 1.8 0 0 0 .614-1.4 1.788 1.788 0 0 0-.609-1.389 2.238 2.238 0 0 0-1.556-.546 2.511 2.511 0 0 0-1.114.243 1.76 1.76 0 0 0-.771.7 1.845 1.845 0 0 0-.272.95 2.061 2.061 0 0 0 .272 1.088" class="cls-6" data-name="Path 1042" transform="translate(-276.568 203.151)"/>
        <path id="Rectangle_486" d="M0 0H1.109V5.142H0z" class="cls-6" data-name="Rectangle 486" transform="translate(22.273 44.232)"/>
        <path id="Path_1043" d="M301.233-155.949a.859.859 0 0 1 .232-.647.8.8 0 0 1 .6-.239.8.8 0 0 1 .573.227.908.908 0 0 1 .247.659zm1.324 1.4a.733.733 0 0 1-.438.127.889.889 0 0 1-.637-.243.928.928 0 0 1-.269-.68h2.767a2.253 2.253 0 0 0-.515-1.688 1.971 1.971 0 0 0-1.47-.547 1.9 1.9 0 0 0-1.374.523 1.923 1.923 0 0 0-.543 1.449 1.959 1.959 0 0 0 .414 1.281 1.978 1.978 0 0 0 1.613.627 2.171 2.171 0 0 0 1.145-.279 1.622 1.622 0 0 0 .671-.819l-1.1-.161a.768.768 0 0 1-.268.409" class="cls-6" data-name="Path 1043" transform="translate(-276.045 203.151)"/>
        <path id="Path_1044" d="M307.123-153.782v-.557a1.525 1.525 0 0 1-.6.465 1.888 1.888 0 0 1-.782.166 1.728 1.728 0 0 1-.754-.161 1.015 1.015 0 0 1-.483-.46 1.88 1.88 0 0 1-.148-.823v-2.361h1.108v1.709a4.273 4.273 0 0 0 .062.965.529.529 0 0 0 .22.282.747.747 0 0 0 .405.1.936.936 0 0 0 .5-.14.726.726 0 0 0 .306-.343 3.663 3.663 0 0 0 .081-1v-1.573h1.109v3.733z" class="cls-6" data-name="Path 1044" transform="translate(-275.689 203.157)"/>
        <path id="Path_1045" d="M308.7-157.509h1.017v.509a1.743 1.743 0 0 1 1.307-.58 1.57 1.57 0 0 1 .7.145 1.226 1.226 0 0 1 .486.439 1.926 1.926 0 0 1 .6-.439 1.626 1.626 0 0 1 .682-.145 1.678 1.678 0 0 1 .781.166 1.08 1.08 0 0 1 .479.485 1.942 1.942 0 0 1 .114.776v2.38h-1.109v-2.131a1.414 1.414 0 0 0-.114-.716.549.549 0 0 0-.473-.211.839.839 0 0 0-.44.126.72.72 0 0 0-.3.373 2.443 2.443 0 0 0-.091.772v1.787h-1.109v-2.042a2.532 2.532 0 0 0-.059-.706.435.435 0 0 0-.184-.234.633.633 0 0 0-.335-.076.882.882 0 0 0-.464.121.7.7 0 0 0-.295.354 2.4 2.4 0 0 0-.089.772v1.81H308.7z" class="cls-6" data-name="Path 1045" transform="translate(-275.328 203.151)"/>
        <path id="Rectangle_487" d="M0 0H42.009V4.198H0z" class="cls-6" data-name="Rectangle 487" transform="translate(.002 52.262)"/>
        <path id="Path_1046" d="M280.771-141.87a.316.316 0 0 1-.057.2 2.31 2.31 0 0 1-1.557.724 1.406 1.406 0 0 1-.61-.134.945.945 0 0 1-.555-.507 1.971 1.971 0 0 1-.1-.626 2.308 2.308 0 0 1 .434-1.357.651.651 0 0 1 .571-.29 1.079 1.079 0 0 1 .272.038c.2.079.4.157.6.23a1.036 1.036 0 0 1 .467.53l.013.127a.661.661 0 0 1-.3.53 1.533 1.533 0 0 1-.468.224c-.138.035-.279.074-.424.118a.818.818 0 0 0-.361.224l-.033.127c0 .184.061.3.181.336a1.015 1.015 0 0 0 .247.029 1.716 1.716 0 0 0 .843-.283c.441-.259.689-.4.746-.418s.1.041.1.179m-1.932-.685c.027.084.063.126.112.126a.706.706 0 0 0 .233-.141.708.708 0 0 0 .351-.537.286.286 0 0 0-.273-.194l-.091.03a1.13 1.13 0 0 0-.331.716m2.256-1.052a.317.317 0 0 0-.311.216.844.844 0 0 1 .164.626 7.566 7.566 0 0 1-.073.881q-.1.783-.11.872a.707.707 0 0 0 .473.179l.118-.008.467-1.283q.3-.73.589-.678c.168.03.253.187.253.47a4.091 4.091 0 0 1-.032.425c-.022.189-.033.318-.033.388a.5.5 0 0 0 .246.4.775.775 0 0 0 .415.112 5.644 5.644 0 0 0 .61-.1c.242-.065.356-.158.343-.284l-.117-.112a1.172 1.172 0 0 0-.308.093.748.748 0 0 1-.327.078c-.108-.039-.161-.168-.161-.388 0-.069.007-.19.022-.357s.023-.3.023-.38l-.013-.2a.838.838 0 0 0-.525-.523 3.521 3.521 0 0 0-.719-.11.319.319 0 0 0-.279.138 1.931 1.931 0 0 0-.233.519l-.026-.441a1.083 1.083 0 0 0-.083-.379.443.443 0 0 0-.372-.149m5.922 1.736a.317.317 0 0 1-.06.2 2.308 2.308 0 0 1-1.557.724 1.408 1.408 0 0 1-.609-.134.946.946 0 0 1-.555-.507 1.942 1.942 0 0 1-.1-.626 2.316 2.316 0 0 1 .434-1.357.654.654 0 0 1 .572-.29 1.064 1.064 0 0 1 .271.038c.2.079.4.157.6.23a1.017 1.017 0 0 1 .467.53l.013.127a.663.663 0 0 1-.3.53 1.545 1.545 0 0 1-.468.224c-.139.035-.281.074-.425.118a.824.824 0 0 0-.361.224l-.033.127c0 .184.062.3.182.336a1.015 1.015 0 0 0 .247.029 1.723 1.723 0 0 0 .843-.283c.441-.259.689-.4.745-.418s.1.041.1.179m-1.934-.685c.026.084.063.126.11.126a.684.684 0 0 0 .233-.141.708.708 0 0 0 .351-.537.285.285 0 0 0-.273-.194l-.091.03a1.128 1.128 0 0 0-.33.716m3.574-1.261l-.136.008a.682.682 0 0 0-.434.3q-.163.224-.324.456a.2.2 0 0 1-.047-.157c0-.04.005-.1.014-.175s.013-.128.013-.152l-.006-.076a.407.407 0 0 0-.214-.075c-.143 0-.25.122-.324.366a1.926 1.926 0 0 0-.084.595q-.007.107-.013.325c0 .148-.006.259-.006.333a2.837 2.837 0 0 0 .122.88.319.319 0 0 0 .306.142.586.586 0 0 0 .389-.12.98.98 0 0 1-.085-.425 2.333 2.333 0 0 1 .177-.828 3.451 3.451 0 0 1 .4-.762l.138-.081a.694.694 0 0 1 .182.049.462.462 0 0 0 .229.033c.108-.064.164-.13.164-.2l-.02-.09q0-.343-.441-.342m1.951.112a1.971 1.971 0 0 1 .791.243 2.193 2.193 0 0 0 .642.243l.11-.022q-.039.266-.208 2.012a6.807 6.807 0 0 1-.227 1.469.967.967 0 0 1-.927.456 2.708 2.708 0 0 1-.629-.083c-.379-.1-.571-.231-.571-.394l.039-.143a.189.189 0 0 1 .176-.126 1.182 1.182 0 0 1 .451.2 1.128 1.128 0 0 0 .5.206.389.389 0 0 0 .338-.246 3.531 3.531 0 0 0 .1-.62c.039-.373.065-.6.078-.686l-.156-.075a.517.517 0 0 0-.259.142.512.512 0 0 1-.279.142l-.2.022a.748.748 0 0 1-.682-.439 4.124 4.124 0 0 1-.078-.76 2.031 2.031 0 0 1 .229-1.015.861.861 0 0 1 .757-.53m.311 1.734a1.907 1.907 0 0 0 .344-.914l-.033-.141c-.078-.149-.168-.223-.273-.223s-.239.083-.369.253a1.481 1.481 0 0 0-.239.44 2.207 2.207 0 0 0-.091.663q0 .388.13.432c.126.036.3-.135.531-.51m1.83-2.113l-.014-.119q0-.366.455-.516l.116-.014a.35.35 0 0 1 .4.4.274.274 0 0 1-.137.29c-.1.044-.2.086-.3.127q-.408 0-.518-.164m1.232 2.706a.594.594 0 0 1-.33.134.562.562 0 0 1-.24-.061c-.156-.093-.233-.392-.233-.894a2.006 2.006 0 0 1 .194-1.089c-.281-.19-.489-.19-.622 0a1.455 1.455 0 0 0-.162.8 4.631 4.631 0 0 0 .162 1.264.742.742 0 0 0 .628.259h.363c.4-.154.6-.295.6-.426l-.047-.126a.581.581 0 0 0-.311.134m2.412-2.193a1.86 1.86 0 0 0-.81-.216.455.455 0 0 0-.182.029 1.365 1.365 0 0 0-.719 1.208.685.685 0 0 0 .363.455c.035.025.219.112.55.261.182.084.262.164.242.238a.3.3 0 0 1-.3.195 1.807 1.807 0 0 1-.461-.109 1.821 1.821 0 0 0-.485-.107l-.13.022-.058.127s.019.074.058.2a1.208 1.208 0 0 0 .561.239 3.684 3.684 0 0 0 .851.1.967.967 0 0 0 .61-.135.86.86 0 0 0 .274-.529c0-.154-.115-.3-.344-.43-.208-.107-.415-.213-.622-.323-.217-.134-.311-.288-.279-.463a.527.527 0 0 1 .174-.3.4.4 0 0 1 .33-.115 1.161 1.161 0 0 1 .348.2.794.794 0 0 0 .328.183c.086 0 .138-.087.155-.261.013-.159-.139-.317-.454-.478m1.1-.513l-.013-.119q0-.366.453-.516l.118-.014a.348.348 0 0 1 .394.4.274.274 0 0 1-.135.29c-.1.044-.2.086-.3.127-.273 0-.445-.054-.519-.164m1.232 2.706a.6.6 0 0 1-.33.134.563.563 0 0 1-.241-.061c-.155-.093-.234-.392-.234-.894a1.993 1.993 0 0 1 .2-1.089c-.281-.19-.49-.19-.622 0a1.455 1.455 0 0 0-.163.8 4.631 4.631 0 0 0 .163 1.264.741.741 0 0 0 .628.259h.363c.4-.154.6-.295.6-.426l-.045-.126a.584.584 0 0 0-.312.134m.654-2.229a.314.314 0 0 0-.31.216.855.855 0 0 1 .161.626 7.7 7.7 0 0 1-.07.881q-.106.783-.111.872a.705.705 0 0 0 .473.179l.116-.008.467-1.283c.2-.486.4-.713.59-.678q.252.046.252.47a3.786 3.786 0 0 1-.032.425c-.021.189-.031.318-.031.388a.5.5 0 0 0 .246.4.777.777 0 0 0 .416.112 5.754 5.754 0 0 0 .61-.1c.242-.065.356-.158.342-.284l-.117-.112a1.173 1.173 0 0 0-.308.093.748.748 0 0 1-.327.078c-.108-.039-.162-.168-.162-.388 0-.069.006-.19.023-.357s.022-.3.022-.38l-.012-.2a.838.838 0 0 0-.525-.523 3.522 3.522 0 0 0-.72-.11.32.32 0 0 0-.278.138 1.931 1.931 0 0 0-.233.519l-.026-.441a1.058 1.058 0 0 0-.084-.379.441.441 0 0 0-.37-.149m4.151-.1a1.976 1.976 0 0 1 .791.243 2.182 2.182 0 0 0 .642.243l.109-.022q-.037.266-.206 2.012a6.737 6.737 0 0 1-.229 1.469.965.965 0 0 1-.927.456 2.7 2.7 0 0 1-.628-.083c-.381-.1-.57-.231-.57-.394l.038-.143a.187.187 0 0 1 .174-.126 1.176 1.176 0 0 1 .451.2 1.132 1.132 0 0 0 .5.206.387.387 0 0 0 .337-.246 3.424 3.424 0 0 0 .1-.62c.038-.373.065-.6.078-.686l-.156-.075a.527.527 0 0 0-.26.142.513.513 0 0 1-.278.142l-.2.022a.746.746 0 0 1-.68-.439 4.031 4.031 0 0 1-.078-.76 2.031 2.031 0 0 1 .227-1.015.863.863 0 0 1 .758-.53m.311 1.734a1.906 1.906 0 0 0 .344-.914l-.034-.141c-.077-.149-.168-.223-.272-.223s-.24.083-.369.253a1.485 1.485 0 0 0-.239.44 2.176 2.176 0 0 0-.091.663c0 .259.042.4.13.432.125.036.3-.135.531-.51m4.662-4.172a.585.585 0 0 0-.486.246.644.644 0 0 1 .137.461 5.227 5.227 0 0 1-.163 1.007c-.116.522-.183.876-.2 1.066q-.07.79-.07 1.014a1.65 1.65 0 0 0 .252.977.933.933 0 0 0 .739.35 1.02 1.02 0 0 0 .344-.06q.816-.349.758-.619c-.017-.065-.075-.1-.175-.1a2.589 2.589 0 0 0-.544.112 2.578 2.578 0 0 1-.532.113c-.1 0-.159-.036-.169-.105a4.989 4.989 0 0 1-.044-.671 7.038 7.038 0 0 1 .227-1.647l.4-1.641c-.029-.338-.188-.507-.473-.507m1.337 2.058l-.014-.119q0-.366.455-.516l.116-.014a.349.349 0 0 1 .4.4.275.275 0 0 1-.135.29c-.1.044-.2.086-.3.127-.272 0-.444-.054-.518-.164m1.232 2.706a.6.6 0 0 1-.331.134.566.566 0 0 1-.241-.061c-.155-.093-.233-.392-.233-.894a1.993 1.993 0 0 1 .195-1.089c-.281-.19-.488-.19-.622 0a1.444 1.444 0 0 0-.164.8 4.59 4.59 0 0 0 .164 1.264.744.744 0 0 0 .628.259h.363c.4-.154.6-.295.6-.426l-.046-.126a.584.584 0 0 0-.311.134m1.115-2.161a.336.336 0 0 0-.246-.113.677.677 0 0 0-.286.081c-.091.055-.183.107-.278.157a5.714 5.714 0 0 0 .59 1.939c.177.359.389.535.635.535a1.7 1.7 0 0 0 .389-.074 6.576 6.576 0 0 0 .883-2.236l-.169-.151-.2-.059a3.387 3.387 0 0 0-.349.8 1.944 1.944 0 0 1-.409.739 7.956 7.956 0 0 1-.564-1.625m5.038 1.668a.316.316 0 0 1-.057.2 2.308 2.308 0 0 1-1.556.724 1.407 1.407 0 0 1-.611-.134.946.946 0 0 1-.554-.507 1.941 1.941 0 0 1-.1-.626 2.31 2.31 0 0 1 .435-1.357.651.651 0 0 1 .57-.29 1.081 1.081 0 0 1 .273.038c.2.079.4.157.6.23a1.031 1.031 0 0 1 .467.53l.013.127a.66.66 0 0 1-.305.53 1.541 1.541 0 0 1-.467.224c-.138.035-.28.074-.424.118a.818.818 0 0 0-.361.224l-.031.127c0 .184.06.3.181.336a1 1 0 0 0 .246.029 1.72 1.72 0 0 0 .843-.283c.442-.259.69-.4.746-.418s.1.041.1.179m-1.931-.685c.025.084.061.126.111.126a.706.706 0 0 0 .233-.141.706.706 0 0 0 .35-.537.284.284 0 0 0-.272-.194l-.091.03a1.128 1.128 0 0 0-.33.716m4.013-1.015a1.86 1.86 0 0 0-.81-.216.455.455 0 0 0-.182.029 1.366 1.366 0 0 0-.72 1.208.69.69 0 0 0 .364.455q.052.037.551.261c.181.084.261.164.239.238a.293.293 0 0 1-.3.195 1.8 1.8 0 0 1-.459-.109 1.836 1.836 0 0 0-.486-.107l-.13.022-.058.127.058.2a1.209 1.209 0 0 0 .561.239 3.673 3.673 0 0 0 .853.1.963.963 0 0 0 .609-.135.863.863 0 0 0 .273-.529c0-.154-.115-.3-.344-.43-.207-.107-.414-.213-.621-.323-.218-.134-.31-.288-.279-.463a.533.533 0 0 1 .174-.3.4.4 0 0 1 .331-.115 1.159 1.159 0 0 1 .347.2.8.8 0 0 0 .327.183c.087 0 .138-.087.156-.261.013-.159-.138-.317-.454-.478" class="cls-6" data-name="Path 1046" transform="translate(-277.893 204.103)"/>
    </g>
</svg>
