<svg xmlns="http://www.w3.org/2000/svg" width="20.245" height="18.284" viewBox="0 0 20.245 18.284">
    <defs>
        <style>
            .cls-1{fill:#6e7a93;stroke:#6e7a93;stroke-width:.5px}
        </style>
    </defs>
    <g id="noun_feedback_2044720" transform="translate(-7.75 -11.705)">
        <g id="Group_28911" transform="translate(8 12)">
            <path id="Path_25458" d="M60.721 14.114l-1.97-1.97a.493.493 0 0 0-.7 0l-5.91 5.91A.492.492 0 0 0 52 18.4v1.97a.492.492 0 0 0 .493.493h1.97a.492.492 0 0 0 .348-.144l5.91-5.91a.493.493 0 0 0 0-.7zm-6.462 5.766h-1.274v-1.273l5.415-5.418 1.274 1.274z" class="cls-1" transform="translate(-41.165 -12)"/>
            <path id="Path_25459" d="M25.418 32h-4.925a.493.493 0 1 0 0 .985h4.925a.493.493 0 0 0 0-.985z" class="cls-1" transform="translate(-17.045 -27.075)"/>
            <path id="Path_25460" d="M20.493 44.985h4.925a.493.493 0 1 0 0-.985h-4.925a.493.493 0 1 0 0 .985z" class="cls-1" transform="translate(-17.045 -36.12)"/>
            <path id="Path_25461" d="M20.493 56.985h9.85a.493.493 0 1 0 0-.985h-9.85a.493.493 0 1 0 0 .985z" class="cls-1" transform="translate(-17.045 -45.165)"/>
            <path id="Path_25462" d="M24.253 26.9a.492.492 0 0 0-.493.493v2.955a1.479 1.479 0 0 1-1.478 1.478h-4.924a.491.491 0 0 0-.3.1l-3.148 2.357v-1.97a.492.492 0 0 0-.493-.492h-2.954a1.479 1.479 0 0 1-1.478-1.478v-7.88a1.479 1.479 0 0 1 1.478-1.478h8.865a.493.493 0 0 0 0-.985h-8.865A2.465 2.465 0 0 0 8 22.463v7.88a2.465 2.465 0 0 0 2.463 2.463h2.463v2.463a.492.492 0 0 0 .788.394l3.809-2.857h4.761a2.465 2.465 0 0 0 2.463-2.463v-2.955a.492.492 0 0 0-.493-.493z" class="cls-1" transform="translate(-8 -18.03)"/>
        </g>
    </g>
</svg>
