<svg xmlns="http://www.w3.org/2000/svg" width="16" height="16" viewBox="0 0 16 16">
    <g id="Group_23446" data-name="Group 23446" transform="translate(-528.917 -210.598)">
        <ellipse id="Ellipse_11" cx="5.566" cy="6.131" fill="#fff" data-name="Ellipse 11" rx="5.566" ry="6.131" transform="translate(531.505 212.912)"/>
        <path id="Path_222" fill="#01d169" d="M536.21 417.61a8 8 0 1 1-8-8 8 8 0 0 1 8 8zm-8.924 4.235l5.934-5.934a.516.516 0 0 0 0-.73l-.73-.725a.515.515 0 0 0-.729 0l-4.84 4.84-2.26-2.265a.518.518 0 0 0-.73 0l-.73.734a.518.518 0 0 0 0 .73l3.355 3.354a.516.516 0 0 0 .73 0z" data-name="Path 222" transform="translate(8.707 -199.012)"/>
    </g>
</svg>
