<svg xmlns="http://www.w3.org/2000/svg" id="W_Illustrations_Forgot_Password" width="134.217" height="125" data-name="W/Illustrations/Forgot Password" viewBox="0 0 134.217 125">
    <defs>
        <style>
            .cls-3{fill:#6e7a93}.cls-4{fill:#354463}.cls-9{fill:#24285b}
        </style>
    </defs>
    <g id="Group_23400" data-name="Group 23400" transform="translate(4.931)">
        <path id="Path_23046" fill="#79e2f3" d="M62.5 0A62.5 62.5 0 1 1 0 62.5 62.5 62.5 0 0 1 62.5 0z" data-name="Path 23046" opacity="0.201"/>
    </g>
    <path id="Path_1521" fill="#79e2f3" d="M6.643 250.213H127.4c3.767 0 6.821 2.324 6.821 5.19v2.052c0 3.56-3.793 6.445-8.471 6.445H7.725C3.457 263.9 0 261.267 0 258.02v-2.755c0-2.791 2.974-5.054 6.643-5.054z" data-name="Path 1521" transform="translate(0 -154.559)"/>
    <g id="Group_23402" data-name="Group 23402" transform="translate(23.653 20.608)">
        <path id="Path_23404" d="M317.09 582.68s2.205 14.884 15.212 19.846H279.61c13.007-4.961 15.213-19.846 15.213-19.846z" class="cls-3" data-name="Path 23404" transform="translate(-262.468 -530.595)"/>
        <path id="Rectangle_21120" d="M0 0H53.189V3.144H0z" class="cls-3" data-name="Rectangle 21120" transform="translate(16.877 71.928)"/>
        <path id="Path_23462" d="M0 0h52.692v2.425H0z" class="cls-4" data-name="Path 23462" transform="translate(17.142 71.928)"/>
        <path id="Path_23406" d="M204.2 137.387h-86.98V90.4a1.135 1.135 0 0 1 1.138-1.133h84.7A1.135 1.135 0 0 1 204.2 90.4z" class="cls-3" data-name="Path 23406" transform="translate(-117.22 -89.27)"/>
        <path id="Path_23407" d="M202.124 553.027h-82.743a2.111 2.111 0 0 1-2.111-2.111v-5.826h86.97v5.821a2.111 2.111 0 0 1-2.117 2.117z" class="cls-4" data-name="Path 23407" transform="translate(-117.265 -496.973)"/>
        <rect id="Rectangle_21122" width="80.707" height="41.766" fill="#c5f2f8" data-name="Rectangle 21122" rx="1" transform="translate(3.405 2.975)"/>
    </g>
    <g id="Group_23401" data-name="Group 23401" transform="translate(105.047 66.009)">
        <path id="Path_1470" fill="#01d195" d="M91.558 248.912s-8.523-2.29-10.408-10.206c0 0 13.182-2.727 13.61 10.907z" data-name="Path 1470" opacity="0.58" transform="translate(-81.15 -229.872)"/>
        <path id="Path_1471" fill="#01d195" d="M95.016 245.621s-5.983-9.349-.779-18.191c0 0 10.058 6.326 5.648 18.191z" data-name="Path 1471" opacity="0.73" transform="translate(-83.571 -227.43)"/>
        <path id="Path_1472" fill="#01d195" d="M97.81 247.415s3.116-9.949 12.6-11.865c0 0 1.807 6.443-6.1 11.865z" data-name="Path 1472" transform="translate(-84.831 -229.224)"/>
        <path id="Path_1473" d="M89.89 250.53l1.768 11.795h10.876l1.55-11.795z" class="cls-9" data-name="Path 1473" transform="translate(-83.081 -232.534)"/>
    </g>
    <g id="Group_23412" data-name="Group 23412" transform="translate(-572.9 -195)">
        <path id="Path_23463" fill="#fff" d="M492.319 289.272c-.254 0-.46.129-.46.289v11.931c0 .159.206.288.46.289h44.039c.254 0 .46-.129.46-.289V289.56c0-.159-.206-.288-.46-.289z" data-name="Path 23463" transform="translate(125.58 -56.28)"/>
    </g>
    <g id="Group_23411" data-name="Group 23411" transform="translate(-592.325 -110)">
        <path id="Rectangle_21126" d="M0 0H18V23H0z" class="cls-9" data-name="Rectangle 21126" transform="translate(613.425 178)"/>
        <path id="Path_23403" fill="#ffc402" d="M562.942 264.616h-2.986v-5.8a11.928 11.928 0 1 0-23.855-.161v5.962h-2.98a4.986 4.986 0 0 0-4.97 4.97v23.853a4.986 4.986 0 0 0 4.97 4.97h29.821a4.983 4.983 0 0 0 4.968-4.97v-23.854a4.983 4.983 0 0 0-4.968-4.97zm-13.169 15.506v8.543a1.783 1.783 0 0 1-1.653 1.79 1.744 1.744 0 0 1-1.825-1.741v-8.6a3.967 3.967 0 1 1 3.478 0zm6.709-15.506h-16.9v-5.962a8.448 8.448 0 1 1 16.9 0z" data-name="Path 23403" transform="translate(74.113 -92.229)"/>
    </g>
    <g id="Dots" transform="translate(-592.325 -98)">
        <circle id="Ellipse_2182" cx="1.25" cy="1.25" r="1.25" class="cls-9" data-name="Ellipse 2182" transform="translate(642.425 141)"/>
        <circle id="Ellipse_2183" cx="1.25" cy="1.25" r="1.25" class="cls-9" data-name="Ellipse 2183" transform="translate(646.425 141)"/>
        <circle id="Ellipse_2184" cx="1.25" cy="1.25" r="1.25" class="cls-9" data-name="Ellipse 2184" transform="translate(650.425 141)"/>
        <circle id="Ellipse_2185" cx="1.25" cy="1.25" r="1.25" class="cls-9" data-name="Ellipse 2185" transform="translate(654.425 141)"/>
        <circle id="Ellipse_2186" cx="1.25" cy="1.25" r="1.25" class="cls-9" data-name="Ellipse 2186" transform="translate(658.425 141)"/>
        <circle id="Ellipse_2187" cx="1.25" cy="1.25" r="1.25" class="cls-9" data-name="Ellipse 2187" transform="translate(662.425 141)"/>
        <circle id="Ellipse_2188" cx="1.25" cy="1.25" r="1.25" class="cls-9" data-name="Ellipse 2188" transform="translate(666.425 141)"/>
        <circle id="Ellipse_2189" cx="1.25" cy="1.25" r="1.25" class="cls-9" data-name="Ellipse 2189" transform="translate(670.425 141)"/>
        <circle id="Ellipse_2190" cx="1.25" cy="1.25" r="1.25" class="cls-9" data-name="Ellipse 2190" transform="translate(674.425 141)"/>
    </g>
</svg>
