<svg xmlns="http://www.w3.org/2000/svg" width="404.567" height="131" viewBox="0 0 404.567 131">
    <defs>
        <style>
            .cls-1{fill:#ffc402}.cls-5{fill:#84ead2}.cls-3{fill:#79e2f3}.cls-7{fill:#7abbf2}.cls-8{fill:#005cad}.cls-9{fill:#00305a}.cls-12{fill:#08f}.cls-14{fill:#fff}
        </style>
    </defs>
    <g id="Group_29605" transform="translate(-437.699 -292)">
        <g id="W_Illustrations_Smartfleet" transform="translate(437.699 292)">
            <g id="undraw_Astronaut_xko2" transform="translate(-107.659 -130.003)">
                <path id="Path_23135" d="M536.351 223.76h-.779c-.159 0-.551-.623-.551-.8v-.724c0-.565-.639-2.115-1.2-2.115s-1.2 1.55-1.2 2.115v.724c0 .255-.2.8-.437.8h-.78c-.565 0-2.115.438-2.115 1s1.55 1 2.115 1h.93c.294 0 .287.3.287.457v.966c0 .565.639 2.115 1.2 2.115s1.2-1.55 1.2-2.115v-.966c0-.128.258-.457.4-.457h.93c.565 0 2.116-.438 2.116-1s-1.551-1-2.116-1z" class="cls-1" transform="translate(-292.176 -70.234)"/>
                <path id="Path_23139" d="M712.7 257.593h-.9c-.182 0-.715-.708-.715-.914v-.832c0-.649-.8-2.429-1.447-2.429s-1.447 1.78-1.447 2.429v.832c0 .293-.017.914-.293.914h-.9c-.649 0-2.43.436-2.43 1.085s1.781 1.085 2.43 1.085h1.068c.338 0 .12.49.12.667v1.109c0 .649.8 2.429 1.447 2.429s1.447-1.78 1.447-2.429v-1.109c0-.147.379-.667.543-.667h1.077c.649 0 2.43-.436 2.43-1.085s-1.779-1.085-2.43-1.085z" class="cls-1" transform="translate(-329.285 -54.781)"/>
                <path id="Path_23142" d="M362.889 314.689h-.916c-.187 0-.732-.724-.732-.935v-.854c0-.664-.816-2.485-1.48-2.485s-1.48 1.821-1.48 2.485v.851c0 .3-.017.935-.3.935h-.916c-.664 0-2.486.446-2.486 1.11s1.822 1.11 2.486 1.11h1.092c.346 0 .123.5.123.682v1.135c0 .664.816 2.485 1.48 2.485s1.48-1.821 1.48-2.485v-1.135c0-.15.388-.682.555-.682h1.092c.664 0 2.486-.446 2.486-1.11s-1.82-1.107-2.484-1.107z" class="cls-1" transform="translate(-204.247 -104.927)"/>
                <circle id="Ellipse_1774" cx="2.492" cy="2.492" r="2.492" fill="#84ead2" opacity="0.7" transform="translate(238.881 202.891)"/>
                <ellipse id="Ellipse_1775" cx="6.936" cy="6.935" class="cls-3" rx="6.936" ry="6.935" transform="translate(131.522 133.158)"/>
                <ellipse id="Ellipse_1776" cx="3.468" cy="3.467" class="cls-1" rx="3.468" ry="3.467" transform="translate(120.579 176.668)"/>
                <circle id="Ellipse_1783" cx="3.696" cy="3.696" r="3.696" class="cls-3" transform="translate(190.438 175.036)"/>
                <path id="Path_23151" d="M814 271.092h-.851c-.173 0-.6-.68-.6-.875v-.79c0-.617-.7-2.308-1.314-2.308s-1.314 1.691-1.314 2.308v.79c0 .278-.215.875-.477.875h-.851c-.617 0-2.308.478-2.308 1.1s1.692 1.1 2.308 1.1h1.007c.321 0 .313.33.313.5v1.054c0 .617.7 2.308 1.314 2.308s1.314-1.691 1.314-2.308v-1.054c0-.14.282-.5.438-.5H814c.617 0 2.309-.478 2.309-1.1s-1.696-1.1-2.309-1.1z" class="cls-1" transform="translate(-328.138 -101.657)"/>
                <ellipse id="Ellipse_1790" cx="3.489" cy="3.488" fill="#ffdc00" rx="3.489" ry="3.488" transform="translate(505.249 234.027)"/>
                <ellipse id="Ellipse_1791" cx="3.489" cy="3.488" class="cls-3" rx="3.489" ry="3.488" transform="translate(414.273 154.439)"/>
                <ellipse id="Ellipse_1804" cx="3.468" cy="3.467" class="cls-3" rx="3.468" ry="3.467" transform="translate(467.089 130.003)"/>
                <circle id="Ellipse_1808" cx="3.696" cy="3.696" r="3.696" class="cls-5" transform="translate(443.659 198.807)"/>
                <circle id="Ellipse_2194" cx="3.696" cy="3.696" r="3.696" class="cls-5" transform="translate(107.659 234.807)"/>
            </g>
        </g>
        <g id="Group_29604">
            <g id="WM_Illus-B2B_Reset-pass" transform="translate(573 298)">
                <path id="Path_23046" fill="#daf5fd" d="M62.5 0A62.5 62.5 0 1 1 0 62.5 62.5 62.5 0 0 1 62.5 0z" transform="translate(4.932)"/>
                <path id="Path_1521" d="M6.643 250.213H127.4c3.767 0 6.821 2.324 6.821 5.19v2.052c0 3.56-3.793 6.445-8.471 6.445H7.725C3.457 263.9 0 261.267 0 258.019v-2.755c0-2.792 2.974-5.054 6.643-5.054z" class="cls-7" transform="translate(0 -154.559)"/>
                <path id="Path_23404" d="M307.095 582.68s1.617 14.884 11.156 19.846H279.61c9.539-4.961 11.156-19.846 11.156-19.846z" class="cls-8" transform="translate(-230.955 -509.987)"/>
                <path id="Path_23462" d="M0 0h38.64v3.116H0z" class="cls-9" transform="translate(48.656 92.536)"/>
                <path id="Path_23406" d="M204.2 137.387h-86.98V90.4a1.135 1.135 0 0 1 1.138-1.133h84.7A1.135 1.135 0 0 1 204.2 90.4z" class="cls-8" transform="translate(-93.566 -68.662)"/>
                <path id="Path_23407" d="M202.124 553.027h-82.743a2.111 2.111 0 0 1-2.111-2.111v-5.826h86.97v5.82a2.111 2.111 0 0 1-2.117 2.117z" class="cls-9" transform="translate(-93.611 -476.365)"/>
                <rect id="Rectangle_21122" width="80.707" height="41.766" class="cls-7" rx="1" transform="translate(27.059 23.583)"/>
                <path id="Path_1470" fill="#08f" d="M91.558 248.912s-8.523-2.29-10.408-10.206c0 0 13.182-2.727 13.61 10.907z" opacity="0.58" transform="translate(23.896 -163.863)"/>
                <path id="Path_1471" fill="#08f" d="M95.016 245.621s-5.983-9.349-.779-18.191c0 0 10.058 6.326 5.648 18.191z" opacity="0.73" transform="translate(21.477 -161.421)"/>
                <path id="Path_1472" d="M97.81 247.415s3.116-9.949 12.6-11.865c0 0 1.807 6.443-6.1 11.865z" class="cls-12" transform="translate(20.217 -163.215)"/>
                <path id="Path_1473" fill="#24285b" d="M89.89 250.53l1.768 11.795h10.876l1.55-11.795z" transform="translate(21.967 -166.525)"/>
                <g id="Group_23412" transform="translate(44.539 37.992)">
                    <path id="Path_23463" d="M492.319 289.272c-.254 0-.46.129-.46.289v11.931c0 .159.206.288.46.289h44.039c.254 0 .46-.129.46-.289V289.56c0-.159-.206-.288-.46-.289z" class="cls-14" transform="translate(-491.859 -289.272)"/>
                </g>
                <g id="Dots" transform="translate(50.1 43)">
                    <circle id="Ellipse_2182" cx="1.25" cy="1.25" r="1.25" class="cls-9"/>
                    <circle id="Ellipse_2183" cx="1.25" cy="1.25" r="1.25" class="cls-9" transform="translate(4)"/>
                    <circle id="Ellipse_2184" cx="1.25" cy="1.25" r="1.25" class="cls-9" transform="translate(8)"/>
                    <circle id="Ellipse_2185" cx="1.25" cy="1.25" r="1.25" class="cls-9" transform="translate(12)"/>
                    <circle id="Ellipse_2186" cx="1.25" cy="1.25" r="1.25" class="cls-9" transform="translate(16)"/>
                    <circle id="Ellipse_2187" cx="1.25" cy="1.25" r="1.25" class="cls-9" transform="translate(20)"/>
                    <circle id="Ellipse_2188" cx="1.25" cy="1.25" r="1.25" class="cls-9" transform="translate(24)"/>
                    <circle id="Ellipse_2189" cx="1.25" cy="1.25" r="1.25" class="cls-9" transform="translate(28)"/>
                    <circle id="Ellipse_2190" cx="1.25" cy="1.25" r="1.25" class="cls-9" transform="translate(32)"/>
                </g>
                <ellipse id="Ellipse_2191" cx="24.371" cy="23.951" class="cls-12" rx="24.371" ry="23.951" transform="translate(6.807 47.902)"/>
                <g id="key" transform="rotate(180 21.375 41.761)">
                    <path id="Path_23464" d="M21.287 11.078a6.489 6.489 0 1 0-10.136-1.219L0 21.01l2.178 2.178 1.31-1.31L4.911 23.3l2.014-2.014L5.5 19.863l2.086-2.086L9.011 19.2l2.014-2.014L9.6 15.763l3.727-3.727a6.491 6.491 0 0 0 7.958-.958zm-4.375-4.8a1.672 1.672 0 1 1 2.364 0 1.672 1.672 0 0 1-2.364-.002z" class="cls-14"/>
                    <path id="Path_23465" d="M12.24 10.135l-3.727 3.728 1.423 1.423L7.922 17.3 6.5 15.877l-2.087 2.085 1.423 1.423L3.822 21.4 2.4 19.976l-1.31 1.31L0 20.2 15.823 4.375a1.672 1.672 0 0 0 2.364-2.364L20.2 0a6.49 6.49 0 0 1-7.96 10.135z" class="cls-14" transform="translate(1.089 1.901)"/>
                </g>
            </g>
            <g id="Tick" transform="translate(126.703 81.402)">
                <path id="Ellipse_11" d="M16.649 0a16.692 16.692 0 0 1 16.842 16.537 16.692 16.692 0 0 1-16.842 16.538c-9.3 0-14.873-6.953-14.873-16.086S7.347 0 16.649 0z" class="cls-14" transform="translate(531.984 216.128)"/>
                <path id="Path_222" fill="#01d195" d="M562.218 430.615a21 21 0 1 1-21-21 21 21 0 0 1 21 21zm-23.431 11.118l15.581-15.581a1.354 1.354 0 0 0 0-1.917l-1.917-1.9a1.351 1.351 0 0 0-1.914 0l-12.709 12.705-5.933-5.947a1.359 1.359 0 0 0-1.917 0l-1.917 1.928a1.359 1.359 0 0 0 0 1.917l8.809 8.806a1.354 1.354 0 0 0 1.917 0z" transform="translate(8.707 -199.012)"/>
            </g>
        </g>
    </g>
</svg>
