<svg xmlns="http://www.w3.org/2000/svg" width="16.5" height="18.5" viewBox="0 0 16.5 18.5">
    <g>
        <g>
            <path fill="#6e7a93" stroke="#6e7a93" stroke-width="0.5px" d="M39 0a7.964 7.964 0 0 0-8 7.91v4.29a1.593 1.593 0 0 0 1.6 1.582h.625a1.6 1.6 0 0 0 3.108-.527v-4.29a1.6 1.6 0 0 0-3.108-.527H32.6a1.609 1.609 0 0 0-.533.091V7.91a6.934 6.934 0 0 1 13.867 0v.618a1.609 1.609 0 0 0-.533-.091h-.625a1.6 1.6 0 0 0-3.108.527v4.289a1.593 1.593 0 0 0 1.6 1.582 1.611 1.611 0 0 0 .464-.068 1.6 1.6 0 0 1-1.532 1.124h-1.692a1.582 1.582 0 1 0 0 1.055H42.2a2.655 2.655 0 0 0 2.667-2.637v-.527h.533A1.593 1.593 0 0 0 47 12.2V7.91A7.964 7.964 0 0 0 39 0zm-4.8 8.965a.533.533 0 0 1 1.067 0v4.289a.533.533 0 0 1-1.067 0zm-1.6.527h.533v3.234H32.6a.531.531 0 0 1-.533-.527V10.02a.531.531 0 0 1 .533-.528zm6.4 7.453a.527.527 0 1 1 .533-.527.531.531 0 0 1-.533.527zm4.8-3.691a.533.533 0 0 1-1.067 0V8.965a.533.533 0 0 1 1.067 0zm2.133-1.054a.531.531 0 0 1-.533.527h-.533V9.492h.533a.531.531 0 0 1 .533.527z" transform="translate(.25 .25) translate(-31)"/>
        </g>
    </g>
</svg>
