<svg xmlns="http://www.w3.org/2000/svg" width="28.476" height="41.25" viewBox="0 0 28.476 41.25">
    <g>
        <path fill="#ffdfba" d="M101.025 37.317c0 3.911-25.493.478-27.58 0a6.68 6.68 0 0 1 3.918-6.083 10.472 10.472 0 0 1-3.426-3.928 9.468 9.468 0 0 1 .648-9.364 9.21 9.21 0 0 0 1.546-5.108v-3.88A8.954 8.954 0 0 1 85.086 0h4.3a8.954 8.954 0 0 1 8.954 8.954c0 4.109-.1 4.914.395 6.548.7 2.31 1.622 2.6 2.334 4.947A9.474 9.474 0 0 1 97.9 30.6l-.793.631a6.68 6.68 0 0 1 3.918 6.086z" transform="translate(-72.997)"/>
        <path fill="#79f3c1" d="M105.581 345.47c-.139 5.726-27.341 4.74-27.58 0a6.678 6.678 0 0 1 6.677-6.677 3.705 3.705 0 0 0 1.538-.332l.022.048 5.113 3.959a.717.717 0 0 0 .877 0l5.113-3.959.022-.048a3.705 3.705 0 0 0 1.538.332 6.678 6.678 0 0 1 6.68 6.677z" transform="translate(-77.553 -308.153)"/>
        <path fill="#ffebd2" d="M150.053 114.248a.717.717 0 0 1 .678.715v4.288a8.865 8.865 0 1 1-17.73 0v-4.226a.715.715 0 0 1 .778-.714 18.534 18.534 0 0 0 12.082-3.089.714.714 0 0 1 1.088.4 3.342 3.342 0 0 0 3.1 2.626z" transform="translate(-127.628 -101.152)"/>
        <path fill="#005aac" d="M97.906 30.6l-.793.631a6.661 6.661 0 0 0-2.759-.595 3.7 3.7 0 0 1-3.71-3.7v-.612l-.013-.033a8.866 8.866 0 0 0 5.475-8.191v-4.288a.717.717 0 0 0-.678-.715 3.34 3.34 0 0 1-3.1-2.626.714.714 0 0 0-1.088-.4 18.535 18.535 0 0 1-12.086 3.089.715.715 0 0 0-.778.714V18.1a8.866 8.866 0 0 0 5.476 8.193l-.013.033v.612a3.7 3.7 0 0 1-3.71 3.7 6.661 6.661 0 0 0-2.759.595l-.793-.631a9.474 9.474 0 0 1-1.984-12.661 9.21 9.21 0 0 0 1.546-5.108V8.954A8.955 8.955 0 0 1 85.092 0h4.3a8.955 8.955 0 0 1 8.954 8.954v3.88a9.215 9.215 0 0 0 1.546 5.108A9.474 9.474 0 0 1 97.906 30.6z" transform="translate(-73.003)"/>
        <path fill="#ffd6a6" d="M199.879 295.133a8.889 8.889 0 0 1-7.008 0 5.549 5.549 0 0 0 .1-1.47l.013-.033a8.883 8.883 0 0 0 6.779 0l.013.033a5.547 5.547 0 0 0 .103 1.47z" transform="translate(-182.137 -267.337)"/>
    </g>
</svg>
