<svg xmlns="http://www.w3.org/2000/svg" width="20" height="20" viewBox="0 0 20 20">
    <path fill="none" d="M0 0H20V20H0z"/>
    <path fill="#97a2a8" d="M113.818 190.9h-11.636a2.183 2.183 0 0 0-2.182 2.182v8a2.183 2.183 0 0 0 2.182 2.182h11.636a2.183 2.183 0 0 0 2.182-2.182v-8a2.183 2.183 0 0 0-2.182-2.182zm-11.636 1.454h11.636a.723.723 0 0 1 .644.406L108 197.286l-6.462-4.524a.719.719 0 0 1 .644-.408zm11.636 9.456h-11.636a.729.729 0 0 1-.728-.728v-6.6l6.128 4.29a.721.721 0 0 0 .832 0l6.128-4.29v6.6a.722.722 0 0 1-.724.728z" transform="translate(-98 -187.082)"/>
</svg>
