<svg xmlns="http://www.w3.org/2000/svg" width="20" height="20" viewBox="0 0 20 20">
    <path fill="none" d="M0 0H20V20H0z"/>
    <path fill="#97a2a8" d="M115.986 92.165c0-.026 0-.052-.01-.08a2.177 2.177 0 0 0-.906-1.586l-6.236-4.362a1.456 1.456 0 0 0-1.668 0L100.93 90.5a2.173 2.173 0 0 0-.906 1.586c-.006.026-.006.052-.01.08s-.014.082-.014.122v7.97a2.183 2.183 0 0 0 2.182 2.182h11.636a2.183 2.183 0 0 0 2.182-2.181V92.29c0-.043-.012-.082-.014-.125zm-14.222-.472L108 87.329l6.236 4.364a.712.712 0 0 1 .22.25L108 96.462l-6.456-4.52a.744.744 0 0 1 .22-.248zm12.054 9.292h-11.636a.729.729 0 0 1-.728-.728v-6.6l6.128 4.29a.722.722 0 0 0 .832 0l6.128-4.29v6.6a.722.722 0 0 1-.724.729z" transform="translate(-98 -84.158)"/>
</svg>
