<svg xmlns="http://www.w3.org/2000/svg" id="M_Illus-B2B_PetroCorp-Registration-Successful" width="128.977" height="110" viewBox="0 0 128.977 110">
    <defs>
        <clipPath id="clip-path">
            <path id="Path_23046" d="M49.787 0A50 50 0 1 1 0 50 49.894 49.894 0 0 1 49.787 0z" class="cls-1"/>
        </clipPath>
        <style>
            .cls-1{fill:#79e2f3;opacity:.201}.cls-11,.cls-3,.cls-4{fill:#7abbf2}.cls-12,.cls-13,.cls-3,.cls-9{stroke:transparent;stroke-miterlimit:10}.cls-5,.cls-9{fill:#00305a}.cls-7{fill:#08f}.cls-12,.cls-8{fill:#005cad}.cls-11{opacity:.997}.cls-13{fill:#79baf1}.cls-15{fill:#f2f0e4}.cls-16{fill:#fff}
        </style>
    </defs>
    <g id="WM_Illus-B2B_Petrocorp" transform="translate(14 10)">
        <path id="Path_25664" d="M50 0A49.9 49.9 0 1 1 0 49.9 49.948 49.948 0 0 1 50 0z" class="cls-1"/>
        <g id="Mask_Group_132" clip-path="url(#clip-path)">
            <g id="Group_29589" transform="translate(7.966 16)">
                <path id="Union_37" d="M2.671 47.4V0h2.67v47.4zM0 47.4V0h2.67v47.4z" class="cls-3" transform="translate(68.734 13.196)"/>
                <path id="Rectangle_21700" d="M0 0H12.652V4.77H0z" class="cls-4" transform="translate(65.181 13.32)"/>
                <path id="Rectangle_21440" d="M0 0H83.225V5.829H0z" class="cls-4" transform="translate(0 60.627)"/>
                <g id="Group_29523" transform="translate(18.415 35.435)">
                    <g id="Group_29508" transform="translate(0 4.918)">
                        <path id="Path_25558" d="M41.227 163.466h-.137a2.783 2.783 0 0 1-2.542-1.315c-1.132-1.988.144-5.748 1.581-8.364a10.063 10.063 0 0 0 1.066-6.414.2.2 0 1 1 .387-.087 10.268 10.268 0 0 1-1.106 6.694c-1.5 2.725-2.566 6.248-1.584 7.974a2.415 2.415 0 0 0 2.209 1.115 2.286 2.286 0 0 0 2.15-.933c1.126-1.754-.188-5.47-.415-5.937a.2.2 0 0 1 .178-.286h2.8a.2.2 0 0 1 0 .4H43.3c.36.986 1.417 4.272.282 6.041a2.6 2.6 0 0 1-2.355 1.112z" class="cls-5" transform="translate(-38.114 -147.129)"/>
                    </g>
                    <g id="Group_29518" transform="translate(2.494 .74)">
                        <g id="Group_29509" transform="translate(.502 5.094)">
                            <path id="Path_25559" d="M45.1 149.017v.286a.232.232 0 0 1-.229.236h-.321a.232.232 0 0 1-.235-.23v-.286z" class="cls-5" transform="translate(-44.315 -149.017)"/>
                        </g>
                        <g id="Group_29510" transform="translate(1.369 3.646)">
                            <path id="Path_25560" fill="#212c36" d="M46.674 147.384a3.391 3.391 0 0 1-.333-.842.089.089 0 0 1 .027-.07 1.05 1.05 0 0 1 .525-.205v-.233a1.259 1.259 0 0 0-.691.281.323.323 0 0 0-.086.251 3.689 3.689 0 0 0 .359.929z" transform="translate(-46.109 -146.034)"/>
                        </g>
                        <g id="Group_29512" transform="translate(1.761)">
                            <g id="Group_29511">
                                <path id="Path_25561" d="M47.27 140.381l.547-.894 1.084-.607-.2-.361-1.131.633a.207.207 0 0 0-.075.072l-.575.94z" class="cls-7" transform="translate(-46.92 -138.519)"/>
                            </g>
                        </g>
                        <g id="Group_29515" transform="translate(.284 2.768)">
                            <g id="Group_29514">
                                <g id="Group_29513">
                                    <path id="Path_25562" d="M43.864 144.482l.027 1.967a.232.232 0 0 0 .235.23l1.648-.022a.233.233 0 0 0 .226-.237l-.027-1.967a.232.232 0 0 0-.235-.23l-1.647.023a.232.232 0 0 0-.227.236zm.734.467a.122.122 0 0 1 .12-.124l.807-.011a.122.122 0 0 1 .123.12l.019 1.368a.122.122 0 0 1-.12.124l-.807.011a.122.122 0 0 1-.123-.12z" class="cls-8" transform="translate(-43.864 -144.223)"/>
                                </g>
                            </g>
                        </g>
                        <g id="Group_29516" transform="translate(0 1.413)">
                            <path id="Path_25563" d="M43.561 143.141l-.285-.423.314-.724 1.068-.564 1.02.647-.006 1.034z" class="cls-5" transform="translate(-43.276 -141.431)"/>
                        </g>
                        <g id="Group_29517" transform="translate(1.459 1.31)">
                            <path id="Path_25564" d="M46.3 141.493l.152-.223a.119.119 0 0 1 .167-.031l.549.379a.12.12 0 0 1 .031.167l-.152.223z" class="cls-5" transform="translate(-46.296 -141.218)"/>
                        </g>
                    </g>
                    <path id="Rectangle_21467" d="M0 0H1.875V2.314H0z" class="cls-8" transform="translate(5.844 12.741)"/>
                    <g id="Group_29519" transform="translate(6.483)">
                        <path id="Union_31" d="M5.781 25.162H0V.839A.836.836 0 0 1 .835 0h9.892a.836.836 0 0 1 .835.838v24.324z" class="cls-9"/>
                    </g>
                </g>
                <path id="Union_34" d="M2.671 47.4V0h2.67v47.4zM0 47.4V0h2.67v47.4z" class="cls-3" transform="translate(9.451 13.196)"/>
                <g id="Group_29559" transform="translate(28.441 43.055)">
                    <path id="Rectangle_21506" fill="#283541" d="M0 0H3.495V1.235H0z" transform="translate(47.544 12.158)"/>
                    <path id="Path_25586" d="M169.511 157.242c1.137.476 1.061.909-.171.961l-32.67 1.786c-1.231.053-1.364-.409-.3-1.025l8.224-4.771a10.406 10.406 0 0 1 4.182-1.173l8.871-.319a12.583 12.583 0 0 1 4.307.814z" class="cls-7" transform="translate(-125.609 -152.699)"/>
                    <path id="Path_25587" d="M146 155.276a9.89 9.89 0 0 1 3.914-1.1l8.995-.321a12.222 12.222 0 0 1 3.956.772l7.332 3.619-32.374 1.771z" class="cls-5" transform="translate(-126.73 -153.296)"/>
                    <path id="Path_25589" d="M154.043 159.917l3.877-5.388c.132-.013.258-.022.377-.024l.4-.014-3.737 5.376z" class="cls-11" transform="translate(-135.114 -153.621)"/>
                    <path id="Path_25590" d="M176.637 153.858c.053 0 .112 0 .167.005l-3.76 5.2-.92.05 3.863-5.233z" class="cls-11" transform="translate(-144.46 -153.296)"/>
                    <path id="Rectangle_21507" d="M0 0H0.653V7.135H0z" class="cls-7" transform="translate(23.078 .562)"/>
                    <path id="Rectangle_21508" d="M0 0H0.653V7.135H0z" class="cls-7" transform="translate(34.025 .422)"/>
                    <path id="Path_25592" d="M115.708 172.63H163a1.864 1.864 0 0 0 .839-1.936l-.553-3.308-.561-3.386a2.289 2.289 0 0 0-.2-.636 2.531 2.531 0 0 0-2.392-1.442l-39.926 2.5a5.864 5.864 0 0 0-4.07 1.917 2.548 2.548 0 0 0-.553 1.13l-.215 1.006-.472 2.22a1.832 1.832 0 0 0 .811 1.935z" class="cls-7" transform="translate(-114.865 -157.447)"/>
                    <path id="Path_25593" d="M115.624 177.192h47.463a1.868 1.868 0 0 0 .755-1.88l-.553-3.312-.186-1.11H116.2l-.057.065a2.548 2.548 0 0 0-.553 1.13l-.215 1.006-.472 2.22a1.838 1.838 0 0 0 .721 1.881z" class="cls-7" transform="translate(-114.865 -162.066)"/>
                    <path id="Path_25594" d="M115.6 183.063a1.858 1.858 0 0 0 1.53.734h45.208a1.888 1.888 0 0 0 1.54-.734z" class="cls-7" transform="translate(-115.244 -168.33)"/>
                    <path id="Path_25595" d="M178.436 165.34a.386.386 0 0 0 .4.377l1.688-.045a.386.386 0 0 0 .375-.4.386.386 0 0 0-.4-.377l-1.688.045a.386.386 0 0 0-.375.4z" class="cls-5" transform="translate(-147.722 -158.979)"/>
                    <path id="Path_25596" d="M154.866 166.156a.386.386 0 0 0 .4.376l1.688-.044a.386.386 0 0 0 .375-.4.385.385 0 0 0-.4-.377l-1.688.044a.387.387 0 0 0-.375.4z" class="cls-5" transform="translate(-135.54 -159.399)"/>
                    <g id="Group_29546" transform="translate(.506 8.894)">
                        <path id="Union_35" d="M.2 2.154a1.207 1.207 0 0 1-.2-.018l.2-.93h3.457a1.07 1.07 0 0 1-1.057.948zm0-.949l.017-.077A2.54 2.54 0 0 1 .768 0H2.6a1.054 1.054 0 0 1 .756.315 1.078 1.078 0 0 1 .315.764.986.986 0 0 1-.013.127z" class="cls-12"/>
                    </g>
                    <g id="Group_29547" transform="translate(45.053 5.921)">
                        <path id="Union_36" d="M1.535 4.017A1.532 1.532 0 0 1 .068 2.908h3.117l.186 1.109zM.068 2.908A1.561 1.561 0 0 1 0 2.475v-.933A1.539 1.539 0 0 1 1.535 0h1.072a2.262 2.262 0 0 1 .2.637l.379 2.271z" class="cls-12"/>
                    </g>
                    <g id="Group_29548" transform="translate(.695 11.363)">
                        <path id="Rectangle_21510" d="M0 0H0.847V1.229H0z" class="cls-5"/>
                    </g>
                    <g id="Group_29549" transform="translate(47.032 10.68)">
                        <path id="Rectangle_21512" d="M0 0H0.847V1.229H0z" class="cls-5"/>
                    </g>
                    <g id="Group_29553" transform="translate(7.693 11.088)">
                        <path id="Path_25601" d="M131.552 179.646c-.009-.1-.015-.193-.015-.29a3.039 3.039 0 1 1 6.078 0c0 .1-.006.194-.015.29h.753q.011-.144.011-.29a3.788 3.788 0 1 0-7.575 0c0 .1 0 .194.011.29z" class="cls-8" transform="translate(-130.788 -175.551)"/>
                        <g id="Group_29550" transform="translate(.582 .583)">
                            <path id="Union_23" d="M3.206 0a3.22 3.22 0 0 1 0 6.439zM0 3.22A3.215 3.215 0 0 1 3.206 0v6.439A3.214 3.214 0 0 1 0 3.22z" class="cls-9"/>
                        </g>
                        <g id="Group_29551" transform="translate(2.105 2.114)">
                            <path id="Union_24" d="M1.681 0a1.689 1.689 0 0 1 0 3.377zM0 1.69A1.685 1.685 0 0 1 1.68 0v3.377A1.683 1.683 0 0 1 0 1.69z" class="cls-13"/>
                        </g>
                        <g id="Group_29552" transform="translate(2.588 2.6)">
                            <path id="Union_25" d="M0 1.2a1.2 1.2 0 1 1 1.2 1.2A1.2 1.2 0 0 1 0 1.2z" class="cls-12"/>
                        </g>
                    </g>
                    <g id="Group_29558" transform="translate(36.674 10.88)">
                        <g id="Group_29554">
                            <path id="Path_25608" d="M191.573 179.6a3.181 3.181 0 0 1-.041-.5 3.206 3.206 0 1 1 6.413 0 3.177 3.177 0 0 1-.041.5h.418a3.67 3.67 0 0 0 .035-.5 3.62 3.62 0 1 0-7.239 0 3.67 3.67 0 0 0 .035.5z" class="cls-8" transform="translate(-190.951 -175.302)"/>
                            <path id="Path_25609" d="M191.145 179.425a3.452 3.452 0 1 1 6.865-.5 3.4 3.4 0 0 1-.039.5h.34a3.787 3.787 0 1 0-7.506 0z" class="cls-8" transform="translate(-190.771 -175.123)"/>
                            <path id="Path_25610" d="M191.962 179.368a3.038 3.038 0 1 1 6.077 0 3 3 0 0 1-.042.5h.338a3.346 3.346 0 0 0 .04-.5 3.375 3.375 0 1 0-6.749 0 3.343 3.343 0 0 0 .04.5H192a2.993 2.993 0 0 1-.038-.5z" class="cls-8" transform="translate(-191.213 -175.563)"/>
                        </g>
                        <g id="Group_29555" transform="translate(.581 .584)">
                            <path id="Union_26" d="M3.207 6.439a3.219 3.219 0 0 1 0-6.439 3.219 3.219 0 0 1 0 6.439z" class="cls-9"/>
                        </g>
                        <g id="Group_29556" transform="translate(2.106 2.115)">
                            <path id="Union_27" d="M0 1.689A1.686 1.686 0 0 1 1.681 0v3.376A1.684 1.684 0 0 1 0 1.689zM1.683 0a1.688 1.688 0 0 1 0 3.376z" class="cls-13"/>
                        </g>
                        <g id="Group_29557" transform="translate(2.588 2.599)">
                            <path id="Union_28" d="M1.2 0a1.2 1.2 0 0 1 0 2.407zm0 2.407A1.2 1.2 0 0 1 1.2 0v2.407z" class="cls-12"/>
                        </g>
                    </g>
                </g>
                <path id="Rectangle_21514" d="M0 0H12.652V4.77H0z" class="cls-4" transform="translate(5.898 13.32)"/>
                <g id="Group_29560" transform="translate(2.174 5.509)">
                    <path id="Rectangle_21515" d="M0 0H54.636V9.352H0z" class="cls-8"/>
                    <path id="Rectangle_21516" d="M0 0H41.108V9.352H0z" class="cls-8" transform="translate(38.598)"/>
                </g>
                <g id="Group_29561" transform="translate(11.641)">
                    <path id="Rectangle_21517" fill="#fc0" d="M0 0H45.104V10.186H0z" transform="translate(.066)"/>
                    <path id="Rectangle_21518" d="M0 0H62.014V10.186H0z" class="cls-7"/>
                </g>
                <g id="Group_29577" transform="translate(28.533 2.566)">
                    <path id="Path_25656" d="M89.056 69.334h2.49c.725 0 1.606.227 1.606 1.794 0 1.774-.943 1.9-1.606 1.873-.316-.014-1.343-.135-1.382-.159v2.308h-1.108zm2.4 2.685c.351 0 .578-.18.578-.879s-.3-.818-.578-.818h-1.292v1.7z" class="cls-15" transform="translate(-89.056 -69.294)"/>
                    <path id="Path_25657" d="M99.03 70.541a1.109 1.109 0 0 1 1.258-1.208s2.039.057 2.548.127v.92h-2.287c-.411 0-.411.23-.411.445v.907l2.338.084v.914l-2.338.076v.907c0 .421.261.413.49.413h2.208v.912c-.448.061-2.469.135-2.469.135-.516.023-1.337-.094-1.337-1.167z" class="cls-15" transform="translate(-94.211 -69.294)"/>
                    <path id="Path_25658" d="M107.882 69.334h4.28v1.025h-1.61v4.791h-1.108v-4.791h-1.562z" class="cls-15" transform="translate(-98.786 -69.294)"/>
                    <path id="Path_25659" d="M117.924 69.334h2.534c.9 0 1.577.425 1.577 1.813 0 1.44-.6 1.611-.922 1.712l1.1 2.29h-1.247l-.957-2.2-.973-.111v2.312h-1.108zm2.425 2.63c.386 0 .569-.114.569-.817 0-.66-.221-.824-.569-.824h-1.313v1.641z" class="cls-15" transform="translate(-103.977 -69.294)"/>
                    <path id="Path_25660" d="M129.845 69.252c1.369 0 2.323.262 2.323 2.987 0 2.566-.9 2.9-2.323 2.9s-2.329-.254-2.329-2.9c0-2.725 1.001-2.987 2.329-2.987zm0 4.862c.93 0 1.215-.308 1.215-1.875 0-1.812-.335-1.963-1.215-1.963-.856 0-1.221.112-1.221 1.963 0 1.588.233 1.875 1.221 1.875z" class="cls-15" transform="translate(-108.934 -69.252)"/>
                    <path id="Path_25661" d="M138.692 69.334h1.108v4.378c0 .421.261.413.49.413h1.986v1.025H139.9c-.631 0-1.207-.234-1.207-1.132z" class="cls-15" transform="translate(-114.711 -69.294)"/>
                </g>
                <g id="Disp_Board" transform="translate(26.445 36.724)">
                    <rect id="Rectangle_21692" width="8.469" height="6.768" class="cls-16" rx="1"/>
                    <path id="Rectangle_21693" d="M.5 0h5.775a.5.5 0 0 1 .5.5v2.038H0V.5A.5.5 0 0 1 .5 0z" class="cls-8" transform="translate(.847 .846)"/>
                    <path id="Rectangle_21694" d="M0 0H0.904V1.335H0z" class="cls-8" transform="translate(1.412 4.15)"/>
                    <path id="Rectangle_21695" d="M0 0H0.904V1.335H0z" class="cls-8" transform="translate(6.352 4.15)"/>
                    <path id="Rectangle_21696" d="M0 0H0.904V1.335H0z" class="cls-8" transform="translate(2.823 4.15)"/>
                    <path id="Rectangle_21697" d="M0 0H0.904V1.335H0z" class="cls-8" transform="translate(4.94 4.15)"/>
                </g>
            </g>
        </g>
    </g>
    <g id="Group_30402" transform="translate(0 9)">
        <path id="Path_25667" d="M533.59 222.338h-.475c-.1 0-.336-.38-.336-.489v-.441c0-.344-.39-1.289-.734-1.289s-.734.945-.734 1.289v.441c0 .155-.12.489-.266.489h-.475c-.344 0-1.289.267-1.289.612s.945.612 1.289.612h.567c.179 0 .175.185.175.278v.589c0 .344.39 1.289.734 1.289s.734-.945.734-1.289v-.589c0-.078.158-.278.245-.278h.567c.344 0 1.289-.267 1.289-.612s-.947-.612-1.291-.612z" class="cls-8" transform="translate(-506.347 -215.414)"/>
        <path id="Path_25668" d="M708.89 255.634h-.475c-.1 0-.38-.376-.38-.485v-.441c0-.344-.424-1.289-.768-1.289s-.768.945-.768 1.289v.441c0 .155-.009.485-.155.485h-.475c-.344 0-1.289.231-1.289.576s.945.576 1.289.576h.567c.18 0 .064.26.064.354v.589c0 .344.423 1.289.768 1.289s.768-.945.768-1.289v-.589c0-.078.2-.354.288-.354h.567c.344 0 1.289-.231 1.289-.576s-.946-.576-1.29-.576z" class="cls-8" transform="translate(-604.843 -163.46)"/>
        <ellipse id="Ellipse_2288" cx="1.994" cy="1.993" fill="#9ac7ee" opacity="0.7" rx="1.994" ry="1.993" transform="translate(22.754 91.911)"/>
        <circle id="Ellipse_2289" cx="2" cy="2" r="2" class="cls-7" transform="translate(0 41.626)"/>
        <circle id="Ellipse_2290" cx="2.4" cy="2.4" r="2.4" class="cls-4" transform="translate(111.868 7.549)"/>
        <circle id="Ellipse_2291" cx="2.4" cy="2.4" r="2.4" class="cls-7" transform="translate(124.177 53.443)"/>
    </g>
    <g id="Group_29600" transform="translate(-31.346 -4)">
        <g id="Tick" transform="translate(-420.43 -206.598)">
            <path id="Ellipse_11" d="M14.522 0a14.3 14.3 0 0 1 14.433 14.172 14.3 14.3 0 0 1-14.433 14.172c-7.971 0-12.746-5.959-12.746-13.786S6.55 0 14.522 0z" class="cls-16" transform="translate(531.291 215.337)"/>
            <path id="Path_222" fill="#01d195" d="M556.21 427.611a18 18 0 1 1-18-18 18 18 0 0 1 18 18zm-20.08 9.528l13.352-13.352a1.16 1.16 0 0 0 0-1.643l-1.643-1.631a1.158 1.158 0 0 0-1.641 0l-10.89 10.89-5.085-5.1a1.165 1.165 0 0 0-1.643 0l-1.643 1.653a1.165 1.165 0 0 0 0 1.643l7.549 7.547a1.16 1.16 0 0 0 1.643 0z" transform="translate(8.707 -199.012)"/>
        </g>
    </g>
</svg>
