<svg xmlns="http://www.w3.org/2000/svg" id="M_Illustrations_Password_Reset" width="128.977" height="102.446" viewBox="0 0 128.977 102.446">
    <defs>
        <style>
            .cls-1{fill:#7abbf2}.cls-6{fill:#005cad}.cls-3{fill:#08f}.cls-7{fill:#00305a}.cls-11{fill:#fff}
        </style>
    </defs>
    <g id="Group_23400" transform="translate(0 1)">
        <path id="Path_25667" d="M533.59 222.338h-.475c-.1 0-.336-.38-.336-.489v-.441c0-.344-.39-1.289-.734-1.289s-.734.945-.734 1.289v.441c0 .155-.12.489-.266.489h-.475c-.344 0-1.289.267-1.289.612s.945.612 1.289.612h.567c.18 0 .175.185.175.278v.589c0 .344.39 1.289.734 1.289s.734-.945.734-1.289v-.589c0-.078.158-.278.245-.278h.567c.344 0 1.289-.267 1.289-.612s-.947-.612-1.291-.612z" class="cls-1" transform="translate(-506.347 -215.414)"/>
        <path id="Path_25668" d="M708.89 255.634h-.475c-.1 0-.38-.376-.38-.485v-.441c0-.344-.424-1.289-.768-1.289s-.768.945-.768 1.289v.441c0 .155-.009.485-.155.485h-.475c-.344 0-1.289.231-1.289.576s.945.576 1.289.576h.567c.179 0 .064.26.064.354v.589c0 .344.424 1.289.768 1.289s.768-.945.768-1.289v-.589c0-.078.2-.354.288-.354h.567c.345 0 1.289-.231 1.289-.576s-.946-.576-1.29-.576z" class="cls-1" transform="translate(-604.844 -163.46)"/>
        <ellipse id="Ellipse_2288" cx="1.994" cy="1.993" fill="#005cad" opacity="0.7" rx="1.994" ry="1.993" transform="translate(22.754 91.911)"/>
        <circle id="Ellipse_2289" cx="2" cy="2" r="2" class="cls-3" transform="translate(0 41.626)"/>
        <circle id="Ellipse_2290" cx="2.4" cy="2.4" r="2.4" fill="#3ba5fe" transform="translate(111.868 7.549)"/>
        <circle id="Ellipse_2291" cx="2.4" cy="2.4" r="2.4" class="cls-1" transform="translate(124.177 53.443)"/>
    </g>
    <g id="WM_Illus-B2B_Reset-pass" transform="translate(9)">
        <path id="Path_23046" fill="#daf5fd" d="M51.223 0A51.223 51.223 0 1 1 0 51.223 51.223 51.223 0 0 1 51.223 0z" transform="translate(4.042)"/>
        <path id="Path_1521" d="M5.445 250.213h98.965c3.088 0 5.591 1.9 5.591 4.253v1.681c0 2.917-3.108 5.282-6.943 5.282H6.331c-3.5 0-6.333-2.158-6.331-4.819v-2.258c0-2.288 2.438-4.143 5.445-4.143z" class="cls-1" transform="translate(0 -171.817)"/>
        <path id="Path_23404" d="M302.135 582.68s1.325 12.2 9.143 16.265H279.61c7.817-4.066 9.143-16.265 9.143-16.265z" class="cls-6" transform="translate(-239.734 -523.103)"/>
        <path id="Path_23462" d="M0 0h31.668v2.553H0z" class="cls-7" transform="translate(39.877 75.839)"/>
        <path id="Path_23406" d="M188.5 128.705h-71.28V90.2a.93.93 0 0 1 .933-.928h69.419a.93.93 0 0 1 .931.928z" class="cls-6" transform="translate(-97.834 -72.38)"/>
        <path id="Path_23407" d="M186.813 551.6H119a1.73 1.73 0 0 1-1.73-1.73v-4.78h71.278v4.77a1.73 1.73 0 0 1-1.735 1.735z" class="cls-7" transform="translate(-97.88 -488.765)"/>
        <rect id="Rectangle_21122" width="66.145" height="34.23" class="cls-1" rx="1" transform="translate(22.176 19.327)"/>
        <path id="Path_1470" fill="#08f" d="M89.68 247.031s-6.985-1.877-8.53-8.364c0 0 10.8-2.235 11.154 8.939z" opacity="0.58" transform="translate(4.942 -177.327)"/>
        <path id="Path_1471" fill="#08f" d="M94.491 242.339s-4.9-7.662-.638-14.909c0 0 8.243 5.184 4.629 14.909z" opacity="0.73" transform="translate(.982 -173.331)"/>
        <path id="Path_1472" d="M97.81 245.274s2.554-8.153 10.324-9.724c0 0 1.481 5.28-5 9.724z" class="cls-3" transform="translate(-1.079 -176.267)"/>
        <path id="Path_1473" fill="#24285b" d="M89.89 250.53l1.449 9.667h8.913l1.271-9.667z" transform="translate(1.784 -181.682)"/>
        <g id="Group_23412" transform="translate(36.503 31.137)">
            <path id="Path_23463" d="M492.236 289.272c-.208 0-.377.106-.377.237v9.778c0 .131.169.236.377.236h36.092c.208 0 .377-.106.377-.236v-9.778c0-.131-.169-.236-.377-.237z" class="cls-11" transform="translate(-491.859 -289.272)"/>
        </g>
        <g id="Dots" transform="translate(41.06 35.241)">
            <circle id="Ellipse_2182" cx="1.024" cy="1.024" r="1.024" class="cls-7"/>
            <circle id="Ellipse_2183" cx="1.024" cy="1.024" r="1.024" class="cls-7" transform="translate(3.278)"/>
            <circle id="Ellipse_2184" cx="1.024" cy="1.024" r="1.024" class="cls-7" transform="translate(6.557)"/>
            <circle id="Ellipse_2185" cx="1.024" cy="1.024" r="1.024" class="cls-7" transform="translate(9.835)"/>
            <circle id="Ellipse_2186" cx="1.024" cy="1.024" r="1.024" class="cls-7" transform="translate(13.113)"/>
            <circle id="Ellipse_2187" cx="1.024" cy="1.024" r="1.024" class="cls-7" transform="translate(16.391)"/>
            <circle id="Ellipse_2188" cx="1.024" cy="1.024" r="1.024" class="cls-7" transform="translate(19.67)"/>
            <circle id="Ellipse_2189" cx="1.024" cy="1.024" r="1.024" class="cls-7" transform="translate(22.948)"/>
            <circle id="Ellipse_2190" cx="1.024" cy="1.024" r="1.024" class="cls-7" transform="translate(26.226)"/>
        </g>
        <ellipse id="Ellipse_2191" cx="19.974" cy="19.629" class="cls-3" rx="19.974" ry="19.629" transform="translate(5.578 39.259)"/>
        <g id="key" transform="rotate(180 17.518 34.227)">
            <path id="Path_23464" d="M17.446 9.079a5.318 5.318 0 1 0-8.307-1L0 17.219 1.785 19l1.074-1.07 1.166 1.17 1.651-1.651-1.167-1.17 1.71-1.709 1.166 1.166 1.651-1.651-1.167-1.166 3.055-3.055a5.32 5.32 0 0 0 6.522-.785zM13.86 5.143a1.37 1.37 0 1 1 1.938 0 1.37 1.37 0 0 1-1.938 0z" class="cls-11"/>
            <path id="Path_23465" d="M10.032 8.307l-3.055 3.054 1.166 1.166-1.651 1.651-1.166-1.166-1.709 1.709 1.166 1.166-1.651 1.651-1.166-1.166-1.074 1.074L0 16.554 12.968 3.586a1.37 1.37 0 0 0 1.938-1.938L16.554 0a5.319 5.319 0 0 1-6.522 8.307z" class="cls-11" transform="translate(.892 1.558)"/>
        </g>
        <g id="Tick" transform="translate(-451.297 -210.598)">
            <path id="Ellipse_11" d="M10.273 0A9.536 9.536 0 0 1 19.9 9.448a9.536 9.536 0 0 1-9.627 9.452c-5.314 0-8.5-3.972-8.5-9.19S4.959 0 10.273 0z" class="cls-11" transform="translate(529.908 213.758)"/>
            <path id="Path_222" fill="#01d195" d="M544.21 421.61a12 12 0 1 1-12-12 12 12 0 0 1 12 12zm-13.387 6.352l8.9-8.9a.774.774 0 0 0 0-1.1l-1.1-1.087a.772.772 0 0 0-1.094 0l-7.26 7.26-3.39-3.4a.777.777 0 0 0-1.1 0l-1.1 1.1a.777.777 0 0 0 0 1.1l5.033 5.031a.773.773 0 0 0 1.1 0z" transform="translate(8.707 -199.012)"/>
        </g>
    </g>
</svg>
