<svg xmlns="http://www.w3.org/2000/svg" width="134.311" height="125" viewBox="0 0 134.311 125">
    <defs>
        <style>
            .cls-2{fill:none;stroke:#10b0cb;stroke-linecap:round;stroke-dasharray:3 5}.cls-7{fill:#007ce8}.cls-8{fill:#3ea5ff}.cls-9{fill:#1290ff}
        </style>
    </defs>
    <g id="Component_1831_3" transform="translate(.503)">
        <g id="Group_30069">
            <path id="Path_23046" d="M68 0A62.5 62.5 0 1 1 5.5 62.5 62.523 62.523 0 0 1 68 0z" transform="translate(-3.587)" style="isolation:isolate" fill="#79e2f3" opacity="0.201"/>
            <path id="Path_26021" d="M4750.269 2903.256c-2.937 4.174-8.978 15.387 1.583 28.968s35.4 5.053 37.167-4.187" class="cls-2" transform="translate(-4745.87 -2852.936)"/>
            <g id="Group_30067" transform="rotate(174.87 63.205 39.865)">
                <path id="Path_26022" d="M3.818 0c-2.55 4.174-7.791 15.387 1.374 28.968s30.724 5.053 32.255-4.187" class="cls-2"/>
            </g>
            <g id="iphone" transform="translate(37.618 10.044)">
                <path id="Path_25966" fill="#004b8d" d="M234.315 0h-37.279a9.941 9.941 0 0 0-9.93 9.93v86.3a9.941 9.941 0 0 0 9.93 9.93h37.279a9.941 9.941 0 0 0 9.93-9.93V9.93a9.941 9.941 0 0 0-9.93-9.93z" transform="translate(-187.106)"/>
                <path id="Path_25967" fill="#004079" d="M192.607 96.232V9.93a9.941 9.941 0 0 1 9.93-9.93h-5.5a9.941 9.941 0 0 0-9.93 9.93v86.3a9.941 9.941 0 0 0 9.93 9.93h5.5a9.942 9.942 0 0 1-9.93-9.928z" transform="translate(-187.106)"/>
                <path id="Path_25968" fill="#bee1ff" d="M259.776 117.263a4.428 4.428 0 0 1-4.428 4.428h-37.28a4.428 4.428 0 0 1-4.428-4.428v-86.3a4.428 4.428 0 0 1 4.428-4.428h4.646a1.657 1.657 0 0 1 1.657 1.657v1.051a2.571 2.571 0 0 0 2.563 2.563h19.546a2.571 2.571 0 0 0 2.563-2.563v-1.52a1.188 1.188 0 0 1 1.188-1.188h5.115a4.428 4.428 0 0 1 4.428 4.428z" transform="translate(-208.138 -21.031)"/>
                <path id="Path_25969" fill="#a8d5fc" d="M218.923 117.259v-86.3a4.427 4.427 0 0 1 4.035-4.408c-.257-.038.016-.012-4.89-.02a4.428 4.428 0 0 0-4.428 4.428v86.3a4.428 4.428 0 0 0 4.428 4.428h5.283a4.429 4.429 0 0 1-4.428-4.428z" transform="translate(-208.138 -21.027)"/>
                <path id="Path_25994" d="M244.238 441.243h-4.287a.717.717 0 0 1-.715-.715v-4.287a.717.717 0 0 1 .715-.715h4.287a.717.717 0 0 1 .715.715v4.287a.717.717 0 0 1-.715.715z" class="cls-7" transform="translate(-228.427 -345.222)"/>
                <path id="Path_25995" d="M292.914 441.243h-4.287a.717.717 0 0 1-.715-.715v-4.287a.717.717 0 0 1 .715-.715h4.287a.717.717 0 0 1 .715.715v4.287a.717.717 0 0 1-.715.715z" class="cls-8" transform="translate(-267.01 -345.222)"/>
                <path id="Path_25996" d="M341.59 441.243h-4.29a.717.717 0 0 1-.714-.715v-4.287a.717.717 0 0 1 .714-.715h4.287a.717.717 0 0 1 .714.715v4.287a.717.717 0 0 1-.711.715z" class="cls-8" transform="translate(-305.593 -345.222)"/>
                <path id="Path_25997" d="M390.266 441.243h-4.287a.717.717 0 0 1-.715-.715v-4.287a.717.717 0 0 1 .715-.715h4.287a.717.717 0 0 1 .715.715v4.287a.717.717 0 0 1-.715.715z" class="cls-7" transform="translate(-344.176 -345.222)"/>
            </g>
            <g id="Group_30064" transform="translate(52.35 44.465)">
                <path id="Path_26013" d="M133.964 114.33h-26.191a.773.773 0 0 1-.773-.773V96.1a.773.773 0 0 1 .773-.773h26.192a.773.773 0 0 1 .773.773v17.462a.773.773 0 0 1-.774.768z" class="cls-7" transform="translate(-107 -95.323)"/>
                <path id="Path_26014" d="M125.97 154.884l-3.541 2.7a.648.648 0 0 1-.785 0l-3.541-2.7-9.689 11.316a.768.768 0 0 0 .6.287H135.2a.768.768 0 0 0 .524-.208z" class="cls-9" transform="translate(-108.238 -147.476)"/>
                <path id="Path_26015" d="M122.861 105.525l13.177-10.033a.765.765 0 0 0-.478-.17h-26.193a.77.77 0 0 0-.546.226l13.1 9.977a.773.773 0 0 0 .94 0z" class="cls-8" transform="translate(-108.595 -95.322)"/>
            </g>
        </g>
        <g id="Group_30070" transform="rotate(30 -63.745 247.557)">
            <path id="Path_26013-2" d="M20.845 14.694H.6a.6.6 0 0 1-.6-.6V.6A.6.6 0 0 1 .6 0h20.245a.6.6 0 0 1 .6.6v13.5a.6.6 0 0 1-.6.594z" class="cls-7"/>
            <path id="Path_26014-2" d="M13.572 0l-2.737 2.084a.5.5 0 0 1-.607 0L7.49 0 0 8.745a.593.593 0 0 0 .461.222h20.248a.594.594 0 0 0 .405-.161z" class="cls-9" transform="translate(.136 5.727)"/>
            <path id="Path_26015-2" d="M10.854 7.888L21.04.132A.592.592 0 0 0 20.67 0H.422A.6.6 0 0 0 0 .175l10.13 7.713a.6.6 0 0 0 .724 0z" class="cls-8" transform="translate(.175)"/>
        </g>
        <g id="Group_30071" transform="rotate(-19 126.372 17.572)">
            <path id="Path_26013-3" d="M18.808 13.258H.539A.539.539 0 0 1 0 12.719V.539A.539.539 0 0 1 .539 0h18.269a.539.539 0 0 1 .539.539v12.18a.539.539 0 0 1-.539.539z" class="cls-7"/>
            <path id="Path_26014-3" d="M12.245 0L9.776 1.881a.452.452 0 0 1-.548 0L6.758 0 0 7.89a.536.536 0 0 0 .416.2h18.269a.536.536 0 0 0 .366-.145z" class="cls-9" transform="translate(.123 5.167)"/>
            <path id="Path_26015-3" d="M9.793 7.117l9.191-7A.534.534 0 0 0 18.65 0H.381A.537.537 0 0 0 0 .158l9.14 6.959a.539.539 0 0 0 .653 0z" class="cls-8" transform="translate(.158)"/>
        </g>
    </g>
</svg>
