<svg xmlns="http://www.w3.org/2000/svg" id="XMLID_30_" width="10.592" height="16.099" viewBox="0 0 10.592 16.099">
    <path id="XMLID_31_" fill="#97a2a8" d="M74.532 7.2h-6.99V4.025a2.754 2.754 0 0 1 5.508 0V5.3a.635.635 0 0 0 1.271 0V4.025a4.025 4.025 0 1 0-8.05 0V7.2h-.212A1.059 1.059 0 0 0 65 8.261v6.779a1.059 1.059 0 0 0 1.059 1.06h8.473a1.059 1.059 0 0 0 1.059-1.059v-6.78A1.059 1.059 0 0 0 74.532 7.2zm-5.508 3.6a1.271 1.271 0 1 1 1.906 1.1v1.865h-1.27V11.9a1.27 1.27 0 0 1-.635-1.1z" transform="translate(-65)"/>
</svg>
