<svg xmlns="http://www.w3.org/2000/svg" width="404.567" height="127.884" viewBox="0 0 404.567 127.884">
    <defs>
        <clipPath id="clip-path">
            <path id="Path_23046" d="M58.787 0A59.1 59.1 0 1 1 0 59.1 58.946 58.946 0 0 1 58.787 0z" class="cls-1"/>
        </clipPath>
        <style>
            .cls-1,.cls-4{fill:#79e2f3}.cls-1{opacity:.201}.cls-2{fill:#ffc402}.cls-6{fill:#84ead2}.cls-5{fill:#ffdc00}.cls-7{fill:#fff}.cls-12{fill:#31404f}.cls-13{fill:#212c36}.cls-15{fill:#01d195}.cls-16{fill:#def3ee}.cls-17{fill:#fefbff}.cls-18{fill:#6e7a93}.cls-19{fill:#354463}.cls-20{fill:#283541}.cls-23{fill:#cff3ff;opacity:.6}.cls-25{fill:#24285b}.cls-26{fill:#ffb60d}.cls-27{fill:#ffcd02}.cls-28{fill:#374246}.cls-29{fill:#2e373b}.cls-30{fill:#dcdcdc}.cls-31{fill:#bfbfbf}.cls-32{fill:#4d4d4d}.cls-33{fill:#585858}.cls-36{fill:#f2f0e4}
        </style>
    </defs>
    <g id="Group_29593" transform="translate(-8501.7 4601)">
        <g id="W_Illustrations_Smartfleet" transform="translate(8501.7 -4601)">
            <g id="undraw_Astronaut_xko2" transform="translate(-107.659 -130.003)">
                <path id="Path_23135" d="M536.351 223.76h-.779c-.159 0-.551-.623-.551-.8v-.724c0-.565-.639-2.115-1.2-2.115s-1.2 1.55-1.2 2.115v.724c0 .255-.2.8-.437.8h-.78c-.565 0-2.115.438-2.115 1s1.55 1 2.115 1h.93c.294 0 .287.3.287.457v.966c0 .565.639 2.115 1.2 2.115s1.2-1.55 1.2-2.115v-.966c0-.128.258-.457.4-.457h.93c.565 0 2.116-.438 2.116-1s-1.551-1-2.116-1z" class="cls-2" transform="translate(-292.176 -70.234)"/>
                <path id="Path_23139" d="M712.7 257.593h-.9c-.182 0-.715-.708-.715-.914v-.832c0-.649-.8-2.429-1.447-2.429s-1.447 1.78-1.447 2.429v.832c0 .293-.017.914-.293.914h-.9c-.649 0-2.43.436-2.43 1.085s1.781 1.085 2.43 1.085h1.068c.338 0 .12.49.12.667v1.109c0 .649.8 2.429 1.447 2.429s1.447-1.78 1.447-2.429v-1.109c0-.147.379-.667.543-.667h1.077c.649 0 2.43-.436 2.43-1.085s-1.779-1.085-2.43-1.085z" class="cls-2" transform="translate(-329.285 -54.781)"/>
                <path id="Path_23142" d="M362.889 314.689h-.916c-.187 0-.732-.724-.732-.935v-.854c0-.664-.816-2.485-1.48-2.485s-1.48 1.821-1.48 2.485v.851c0 .3-.017.935-.3.935h-.916c-.664 0-2.486.446-2.486 1.11s1.822 1.11 2.486 1.11h1.092c.346 0 .123.5.123.682v1.135c0 .664.816 2.485 1.48 2.485s1.48-1.821 1.48-2.485v-1.135c0-.15.388-.682.555-.682h1.092c.664 0 2.486-.446 2.486-1.11s-1.82-1.107-2.484-1.107z" class="cls-2" transform="translate(-204.247 -104.927)"/>
                <circle id="Ellipse_1774" cx="2.492" cy="2.492" r="2.492" fill="#84ead2" opacity="0.7" transform="translate(238.881 202.891)"/>
                <ellipse id="Ellipse_1775" cx="6.936" cy="6.935" class="cls-4" rx="6.936" ry="6.935" transform="translate(131.522 133.158)"/>
                <ellipse id="Ellipse_1776" cx="3.468" cy="3.467" class="cls-2" rx="3.468" ry="3.467" transform="translate(120.579 176.668)"/>
                <circle id="Ellipse_1783" cx="3.696" cy="3.696" r="3.696" class="cls-4" transform="translate(190.438 175.036)"/>
                <path id="Path_23151" d="M814 271.092h-.851c-.173 0-.6-.68-.6-.875v-.79c0-.617-.7-2.308-1.314-2.308s-1.314 1.691-1.314 2.308v.79c0 .278-.215.875-.477.875h-.851c-.617 0-2.308.478-2.308 1.1s1.692 1.1 2.308 1.1h1.007c.321 0 .313.33.313.5v1.054c0 .617.7 2.308 1.314 2.308s1.314-1.691 1.314-2.308v-1.054c0-.14.282-.5.438-.5H814c.617 0 2.309-.478 2.309-1.1s-1.696-1.1-2.309-1.1z" class="cls-2" transform="translate(-328.138 -101.657)"/>
                <ellipse id="Ellipse_1790" cx="3.489" cy="3.488" class="cls-5" rx="3.489" ry="3.488" transform="translate(505.249 234.027)"/>
                <ellipse id="Ellipse_1791" cx="3.489" cy="3.488" class="cls-4" rx="3.489" ry="3.488" transform="translate(414.273 154.439)"/>
                <ellipse id="Ellipse_1804" cx="3.468" cy="3.467" class="cls-4" rx="3.468" ry="3.467" transform="translate(467.089 130.003)"/>
                <circle id="Ellipse_1808" cx="3.696" cy="3.696" r="3.696" class="cls-6" transform="translate(443.659 198.807)"/>
                <circle id="Ellipse_2194" cx="3.696" cy="3.696" r="3.696" class="cls-6" transform="translate(107.659 234.807)"/>
            </g>
            <path id="Ellipse_11" d="M16.649 0a16.692 16.692 0 0 1 16.842 16.537 16.692 16.692 0 0 1-16.842 16.538c-9.3 0-14.873-6.953-14.873-16.086S7.347 0 16.649 0z" class="cls-7" transform="translate(247.987 56.531)"/>
        </g>
        <g id="Group_29592" transform="translate(-1294.531 -127.323)">
            <path id="Path_25664" d="M58.787 0A59.1 59.1 0 1 1 0 59.1 58.946 58.946 0 0 1 58.787 0z" class="cls-1" transform="translate(9940 -4464)"/>
            <g id="Mask_Group_132" clip-path="url(#clip-path)" transform="translate(9940 -4464)">
                <g id="Group_29589" transform="translate(9.406 18.913)">
                    <path id="Rectangle_21440" d="M0 0H98.269V8.89H0z" class="cls-4" transform="translate(0 71.665)"/>
                    <path id="Rectangle_21441" fill="#b9b9b9" d="M0 0H98.269V4.445H0z" transform="translate(0 71.665)"/>
                    <g id="Group_29523" transform="translate(21.744 41.472)">
                        <g id="Group_29507" transform="translate(9.255)">
                            <path id="Path_25556" fill="#ff3100" d="M54.854 136.272a.519.519 0 0 0 0 1.039h4.709v-1.039z" transform="translate(-54.337 -136.272)"/>
                            <path id="Path_25557" fill="#e02b00" d="M68.207 136.272H63.5v1.039h4.709a.519.519 0 0 0 0-1.039z" transform="translate(-58.272 -136.272)"/>
                        </g>
                        <g id="Group_29508" transform="translate(0 6.227)">
                            <path id="Path_25558" d="M41.79 166.441h-.162a3.285 3.285 0 0 1-3-1.554c-1.337-2.35.17-6.795 1.867-9.887a11.907 11.907 0 0 0 1.259-7.582.234.234 0 1 1 .456-.1 12.15 12.15 0 0 1-1.306 7.913c-1.767 3.221-3.03 7.385-1.87 9.426a2.85 2.85 0 0 0 2.608 1.317 2.7 2.7 0 0 0 2.539-1.1c1.329-2.073-.222-6.466-.49-7.018a.235.235 0 0 1 .211-.338h3.311a.235.235 0 0 1 0 .471h-2.97c.426 1.165 1.673 5.05.333 7.141a3.067 3.067 0 0 1-2.786 1.311z" class="cls-12" transform="translate(-38.114 -147.129)"/>
                        </g>
                        <g id="Group_29518" transform="translate(2.945 1.289)">
                            <g id="Group_29509" transform="translate(.593 6.021)">
                                <path id="Path_25559" d="M45.241 149.017v.338a.274.274 0 0 1-.27.279l-.379.005a.274.274 0 0 1-.277-.271v-.338z" class="cls-13" transform="translate(-44.315 -149.017)"/>
                            </g>
                            <g id="Group_29510" transform="translate(1.616 4.31)">
                                <path id="Path_25560" d="M46.776 147.63a4.01 4.01 0 0 1-.394-1 .105.105 0 0 1 .032-.083 1.239 1.239 0 0 1 .62-.243l-.005-.275a1.486 1.486 0 0 0-.816.332.383.383 0 0 0-.1.3 4.363 4.363 0 0 0 .424 1.1z" class="cls-13" transform="translate(-46.109 -146.034)"/>
                            </g>
                            <g id="Group_29512" transform="translate(2.079)">
                                <g id="Group_29511">
                                    <path id="Path_25561" fill="#aab2bd" d="M47.334 140.72l.646-1.057 1.28-.718-.236-.426-1.336.748a.245.245 0 0 0-.089.085l-.679 1.112z" transform="translate(-46.92 -138.519)"/>
                                </g>
                            </g>
                            <g id="Group_29515" transform="translate(.336 3.272)">
                                <g id="Group_29514">
                                    <g id="Group_29513">
                                        <path id="Path_25562" d="M43.864 144.529l.031 2.325a.274.274 0 0 0 .277.271l1.945-.026a.275.275 0 0 0 .27-.279l-.032-2.325a.274.274 0 0 0-.277-.271l-1.945.027a.274.274 0 0 0-.269.278zm.867.552a.144.144 0 0 1 .141-.146l.953-.013a.144.144 0 0 1 .145.142l.022 1.617a.144.144 0 0 1-.141.146l-.953.013a.144.144 0 0 1-.145-.142z" class="cls-15" transform="translate(-43.864 -144.223)"/>
                                    </g>
                                </g>
                            </g>
                            <g id="Group_29516" transform="translate(0 1.67)">
                                <path id="Path_25563" d="M43.613 143.453l-.337-.5.371-.856 1.262-.666 1.2.765-.008 1.222z" class="cls-13" transform="translate(-43.276 -141.431)"/>
                            </g>
                            <g id="Group_29517" transform="translate(1.723 1.548)">
                                <path id="Path_25564" d="M46.3 141.543l.18-.263a.141.141 0 0 1 .2-.037l.648.448a.142.142 0 0 1 .037.2l-.18.264z" class="cls-13" transform="translate(-46.296 -141.218)"/>
                            </g>
                        </g>
                        <path id="Rectangle_21467" d="M0 0H2.214V2.735H0z" class="cls-15" transform="translate(6.9 15.475)"/>
                        <g id="Group_29519" transform="translate(7.654 .413)">
                            <path id="Path_25663" d="M0 0h6.827v17.974H0z" class="cls-5" transform="translate(0 11.769)"/>
                            <path id="Path_25565" d="M58.358 136.992h-5.841a.989.989 0 0 0-.986.991v10.778h6.827z" class="cls-2" transform="translate(-51.531 -136.992)"/>
                            <path id="Path_25566" d="M70.324 148.761v-10.778a.988.988 0 0 0-.986-.991H63.5v11.769z" class="cls-5" transform="translate(-56.671 -136.992)"/>
                            <path id="Path_25662" d="M0 0h6.827v17.974H0z" class="cls-2" transform="translate(6.827 11.769)"/>
                        </g>
                        <path id="Rectangle_21470" d="M0 0H0.014V7.419H0z" class="cls-16" transform="translate(14.481 3.276)"/>
                        <g id="Group_29520" transform="translate(8.586 2.574)">
                            <path id="Path_25567" d="M59.059 140.785H54.15a.988.988 0 0 0-.986.991v4.15h5.9z" class="cls-17" transform="translate(-53.164 -140.771)"/>
                            <path id="Path_25568" d="M59.059 148.9h-5.9v1.786a.988.988 0 0 0 .986.991h4.923v-.014h-.014z" class="cls-16" transform="translate(-53.164 -144.232)"/>
                            <path id="Path_25569" d="M63.512 145.916h5.895v-4.165a.988.988 0 0 0-.986-.991H63.5v.014h.014z" class="cls-16" transform="translate(-57.603 -140.76)"/>
                            <path id="Path_25570" d="M63.522 148.9v2.763h4.909a.988.988 0 0 0 .986-.991V148.9z" class="cls-17" transform="translate(-57.613 -144.232)"/>
                        </g>
                        <path id="Rectangle_21471" d="M0 0H1.281V1.579H0z" class="cls-12" transform="translate(11.772 7.843)"/>
                        <path id="Rectangle_21472" d="M0 0H1.281V1.579H0z" class="cls-13" transform="translate(15.91 7.843)"/>
                        <path id="Rectangle_21473" d="M0 0H1.281V1.579H0z" class="cls-12" transform="translate(9.703 7.843)"/>
                        <path id="Rectangle_21474" d="M0 0H1.28V1.579H0z" class="cls-13" transform="translate(17.979 7.843)"/>
                        <g id="Group_29521" transform="translate(13.841 7.843)">
                            <path id="Rectangle_21475" d="M0 0H0.64V1.579H0z" class="cls-12"/>
                            <path id="Rectangle_21476" d="M0 0H0.64V1.579H0z" class="cls-13" transform="translate(.64)"/>
                        </g>
                        <g id="Group_29522" transform="translate(9.938 3.873)">
                            <path id="Rectangle_21477" d="M0 0H4.539V2.425H0z" class="cls-12"/>
                            <path id="Rectangle_21478" d="M0 0H4.548V2.425H0z" class="cls-13" transform="translate(4.539)"/>
                        </g>
                    </g>
                    <path id="Rectangle_21495" d="M0 0H4.54V56.03H0z" class="cls-18" transform="translate(10.571 15.599)"/>
                    <path id="Rectangle_21496" d="M0 0H4.54V56.03H0z" class="cls-19" transform="translate(15.11 15.599)"/>
                    <path id="Rectangle_21497" d="M0 0H4.54V56.03H0z" class="cls-19" transform="translate(84.699 15.599)"/>
                    <path id="Rectangle_21498" d="M0 0H4.54V56.03H0z" class="cls-18" transform="translate(80.16 15.599)"/>
                    <g id="Group_29559" transform="translate(33.582 50.894)">
                        <path id="Rectangle_21506" d="M0 0H4.126V1.46H0z" class="cls-20" transform="translate(56.139 14.372)"/>
                        <path id="Path_25586" d="M175.631 158.069c1.343.563 1.252 1.074-.2 1.136l-38.576 2.111c-1.454.063-1.61-.483-.35-1.212l9.711-5.639a12.277 12.277 0 0 1 4.938-1.386l10.475-.377a14.844 14.844 0 0 1 5.086.962z" class="cls-15" transform="translate(-123.794 -152.699)"/>
                        <path id="Path_25587" fill="#305172" d="M147.477 155.534a11.667 11.667 0 0 1 4.621-1.3l10.621-.38a14.417 14.417 0 0 1 4.671.913l8.657 4.278-38.226 2.093z" transform="translate(-124.725 -153.193)"/>
                        <path id="Path_25588" fill="#2b4866" d="M146.1 166.14a.5.5 0 0 1-.424.561.5.5 0 0 1-.558-.427l-.418-3.074a.5.5 0 0 1 .424-.561.5.5 0 0 1 .558.427z" transform="translate(-127.68 -156.936)"/>
                        <path id="Path_25589" d="M154.043 160.905l4.578-6.369c.156-.016.305-.026.446-.029l.468-.017-4.413 6.355z" class="cls-23" transform="translate(-131.693 -153.463)"/>
                        <path id="Path_25590" d="M177.453 153.858c.062 0 .132.005.2.006l-4.439 6.147-1.086.06 4.562-6.186z" class="cls-23" transform="translate(-139.459 -153.193)"/>
                        <path id="Path_25591" d="M148.76 157.438l1.672-.971a7.5 7.5 0 0 1 .884-.421l-5.1 5.731-1.517.083z" class="cls-23" transform="translate(-127.68 -154.126)"/>
                        <path id="Rectangle_21507" d="M0 0H0.771V8.435H0z" class="cls-15" transform="translate(27.249 .665)"/>
                        <path id="Rectangle_21508" d="M0 0H0.771V8.435H0z" class="cls-15" transform="translate(40.175 .498)"/>
                        <path id="Path_25592" d="M115.86 174.579h55.84a2.2 2.2 0 0 0 .991-2.289l-.653-3.91-.666-4a2.709 2.709 0 0 0-.236-.752 2.988 2.988 0 0 0-2.824-1.7l-47.143 2.953a6.92 6.92 0 0 0-4.805 2.266 3.014 3.014 0 0 0-.653 1.335l-.254 1.19-.557 2.625a2.166 2.166 0 0 0 .96 2.282z" class="cls-15" transform="translate(-114.865 -156.632)"/>
                        <path id="Path_25593" fill="#02b17e" d="M115.761 178.339H171.8a2.21 2.21 0 0 0 .892-2.223l-.653-3.91-.219-1.312h-55.383l-.068.077a3.014 3.014 0 0 0-.653 1.335l-.254 1.19-.557 2.625a2.174 2.174 0 0 0 .856 2.218z" transform="translate(-114.865 -160.458)"/>
                        <path id="Path_25594" d="M115.6 183.063a2.193 2.193 0 0 0 1.806.868h53.38a2.229 2.229 0 0 0 1.818-.868z" class="cls-20" transform="translate(-115.18 -165.648)"/>
                        <path id="Path_25595" d="M178.436 165.421a.456.456 0 0 0 .467.445l1.993-.053a.456.456 0 0 0 .443-.469.456.456 0 0 0-.467-.446l-1.993.053a.456.456 0 0 0-.443.469z" class="cls-25" transform="translate(-142.17 -157.901)"/>
                        <path id="Path_25596" d="M154.866 166.236a.456.456 0 0 0 .467.445l1.993-.052a.456.456 0 0 0 .443-.469.455.455 0 0 0-.467-.445l-1.993.052a.457.457 0 0 0-.443.469z" class="cls-25" transform="translate(-132.046 -158.249)"/>
                        <g id="Group_29546" transform="translate(.597 10.513)">
                            <path id="Path_25597" d="M120.422 172.3a1.274 1.274 0 0 0-.371-.9 1.244 1.244 0 0 0-.893-.373H117a3.014 3.014 0 0 0-.653 1.335l-.019.09h4.084a1.281 1.281 0 0 0 .01-.152z" class="cls-5" transform="translate(-116.089 -171.029)"/>
                            <path id="Path_25598" d="M116.146 173.514l-.234 1.1a1.378 1.378 0 0 0 .236.022h2.833a1.263 1.263 0 0 0 1.25-1.122z" class="cls-26" transform="translate(-115.912 -172.089)"/>
                        </g>
                        <g id="Group_29547" transform="translate(53.198 6.999)">
                            <path id="Path_25599" d="M211.429 165.654a2.708 2.708 0 0 0-.236-.752h-1.265a1.818 1.818 0 0 0-1.813 1.823v1.1a1.823 1.823 0 0 0 .08.511h3.68z" class="cls-5" transform="translate(-208.116 -164.902)"/>
                            <path id="Path_25600" d="M208.257 170.894a1.809 1.809 0 0 0 1.733 1.312h2.167l-.219-1.312z" class="cls-26" transform="translate(-208.177 -167.457)"/>
                        </g>
                        <g id="Group_29548" transform="translate(.82 13.432)">
                            <path id="Rectangle_21509" d="M0 0H0.604V1.453H0z" class="cls-26" transform="translate(.604)"/>
                            <path id="Rectangle_21510" d="M0 0H0.604V1.453H0z" class="cls-27"/>
                        </g>
                        <g id="Group_29549" transform="translate(55.534 12.625)">
                            <path id="Rectangle_21511" d="M0 0H0.604V1.453H0z" class="cls-26" transform="translate(.604)"/>
                            <path id="Rectangle_21512" d="M0 0H0.604V1.453H0z" class="cls-27"/>
                        </g>
                        <g id="Group_29553" transform="translate(9.084 13.107)">
                            <path id="Path_25601" d="M131.69 180.391c-.011-.114-.018-.228-.018-.342a3.588 3.588 0 1 1 7.176 0c0 .115-.007.229-.018.342h.889q.013-.17.013-.342a4.472 4.472 0 1 0-8.945 0c0 .115 0 .229.013.342z" class="cls-20" transform="translate(-130.788 -175.551)"/>
                            <g id="Group_29550" transform="translate(.686 .69)">
                                <path id="Path_25602" d="M131.991 180.561a3.8 3.8 0 0 0 3.785 3.8v-7.611a3.8 3.8 0 0 0-3.785 3.811z" class="cls-28" transform="translate(-131.991 -176.754)"/>
                                <path id="Path_25603" d="M138.626 176.754v7.611a3.806 3.806 0 0 0 0-7.611z" class="cls-29" transform="translate(-134.84 -176.754)"/>
                            </g>
                            <g id="Group_29551" transform="translate(2.487 2.5)">
                                <path id="Path_25604" d="M135.147 181.907a1.988 1.988 0 0 0 1.984 1.994v-3.991a1.991 1.991 0 0 0-1.984 1.997z" class="cls-30" transform="translate(-135.147 -179.909)"/>
                                <path id="Path_25605" d="M138.626 179.909v3.991a2 2 0 0 0 0-3.991z" class="cls-31" transform="translate(-136.641 -179.909)"/>
                            </g>
                            <g id="Group_29552" transform="translate(3.057 3.073)">
                                <path id="Path_25606" d="M138.626 180.909v2.845a1.422 1.422 0 0 0 0-2.845z" class="cls-32" transform="translate(-137.211 -180.909)"/>
                                <path id="Path_25607" d="M136.146 182.332a1.417 1.417 0 0 0 1.414 1.422v-2.845a1.419 1.419 0 0 0-1.414 1.423z" class="cls-33" transform="translate(-136.146 -180.909)"/>
                            </g>
                        </g>
                        <g id="Group_29558" transform="translate(43.303 12.861)">
                            <g id="Group_29554">
                                <path id="Path_25608" d="M191.655 180.357a3.795 3.795 0 0 1 3.736-4.4 3.8 3.8 0 0 1 3.788 3.808 3.761 3.761 0 0 1-.048.588h.494a4.343 4.343 0 0 0 .042-.588 4.274 4.274 0 1 0-8.548 0 4.341 4.341 0 0 0 .042.588z" class="cls-20" transform="translate(-190.921 -175.271)"/>
                                <path id="Path_25609" d="M191.213 180.209a4.132 4.132 0 0 1-.045-.588 4.076 4.076 0 1 1 8.152 0 4.023 4.023 0 0 1-.046.588h.4a4.472 4.472 0 1 0-8.863 0z" class="cls-20" transform="translate(-190.771 -175.123)"/>
                                <path id="Path_25610" d="M192.023 179.985a3.588 3.588 0 1 1 7.175 0 3.545 3.545 0 0 1-.049.588h.4a3.959 3.959 0 0 0 .047-.588 3.985 3.985 0 1 0-7.969 0 3.957 3.957 0 0 0 .047.588h.4a3.543 3.543 0 0 1-.051-.588z" class="cls-20" transform="translate(-191.138 -175.488)"/>
                            </g>
                            <g id="Group_29555" transform="translate(.686 .69)">
                                <path id="Path_25611" d="M195.759 176.326a3.806 3.806 0 0 0 0 7.611v-7.611z" class="cls-28" transform="translate(-191.973 -176.326)"/>
                                <path id="Path_25612" d="M202.4 180.133a3.8 3.8 0 0 0-3.784-3.807v7.611a3.8 3.8 0 0 0 3.784-3.804z" class="cls-29" transform="translate(-194.824 -176.326)"/>
                            </g>
                            <g id="Group_29556" transform="translate(2.487 2.5)">
                                <path id="Path_25613" d="M197.115 179.482a2 2 0 0 0 0 3.991v-3.991z" class="cls-30" transform="translate(-195.13 -179.482)"/>
                                <path id="Path_25614" d="M200.594 181.479a1.991 1.991 0 0 0-1.983-2v3.991a1.988 1.988 0 0 0 1.983-1.991z" class="cls-31" transform="translate(-196.625 -179.482)"/>
                            </g>
                            <g id="Group_29557" transform="translate(3.057 3.073)">
                                <path id="Path_25615" d="M197.544 180.481a1.422 1.422 0 0 0 0 2.845v-2.845z" class="cls-33" transform="translate(-196.129 -180.481)"/>
                                <path id="Path_25616" d="M200.024 181.9a1.419 1.419 0 0 0-1.413-1.423v2.845a1.417 1.417 0 0 0 1.413-1.422z" class="cls-32" transform="translate(-197.195 -180.481)"/>
                            </g>
                        </g>
                    </g>
                    <path id="Rectangle_21513" d="M0 0H17.711V5.639H0z" class="cls-19" transform="translate(6.255 15.745)"/>
                    <path id="Rectangle_21514" d="M0 0H17.711V5.639H0z" class="cls-19" transform="translate(75.964 15.745)"/>
                    <g id="Group_29560" transform="translate(2.566 6.512)">
                        <path id="Rectangle_21515" d="M0 0H64.513V11.055H0z" class="cls-25"/>
                        <path id="Rectangle_21516" fill="#1a1d46" d="M0 0H48.539V11.055H0z" transform="translate(45.575)"/>
                    </g>
                    <g id="Group_29561" transform="translate(13.745)">
                        <path id="Rectangle_21517" fill="#fc0" d="M0 0H53.258V12.04H0z" transform="translate(.078)"/>
                        <path id="Rectangle_21518" d="M0 0H73.225V12.04H0z" class="cls-2"/>
                    </g>
                    <g id="Group_29577" transform="translate(33.691 3.033)">
                        <path id="Path_25656" d="M89.056 69.334H92c.856 0 1.9.268 1.9 2.12 0 2.1-1.113 2.25-1.9 2.214-.374-.016-1.586-.16-1.632-.188v2.728h-1.312zm2.837 3.174c.414 0 .683-.213.683-1.039s-.355-.966-.683-.966h-1.529v2.005z" class="cls-36" transform="translate(-89.056 -69.287)"/>
                        <path id="Path_25657" d="M99.03 70.761a1.31 1.31 0 0 1 1.486-1.428s2.407.067 3.009.15v1.087h-2.7c-.485 0-.485.272-.485.526v1.073l2.761.1v1.081l-2.761.089v1.072c0 .5.308.489.579.489h2.607v1.078c-.529.072-2.915.159-2.915.159-.61.028-1.579-.111-1.579-1.379z" class="cls-36" transform="translate(-93.34 -69.287)"/>
                        <path id="Path_25658" d="M107.882 69.334h5.054v1.211h-1.9v5.663h-1.308v-5.663h-1.845z" class="cls-36" transform="translate(-97.142 -69.287)"/>
                        <path id="Path_25659" d="M117.924 69.334h2.992c1.068 0 1.862.5 1.862 2.143 0 1.7-.71 1.9-1.089 2.024l1.295 2.707h-1.472l-1.13-2.6-1.149-.131v2.733h-1.308zm2.864 3.109c.455 0 .672-.135.672-.965 0-.781-.261-.974-.672-.974h-1.551v1.94z" class="cls-36" transform="translate(-101.455 -69.287)"/>
                        <path id="Path_25660" d="M130.266 69.252c1.616 0 2.743.31 2.743 3.531 0 3.034-1.061 3.428-2.743 3.428s-2.75-.3-2.75-3.428c0-3.221 1.184-3.531 2.75-3.531zm0 5.748c1.1 0 1.435-.364 1.435-2.216 0-2.142-.4-2.32-1.435-2.32-1.011 0-1.442.132-1.442 2.32 0 1.875.276 2.216 1.442 2.216z" class="cls-36" transform="translate(-105.575 -69.252)"/>
                        <path id="Path_25661" d="M138.692 69.334H140v5.175c0 .5.309.489.579.489h2.345v1.211h-2.807c-.745 0-1.425-.277-1.425-1.338z" class="cls-36" transform="translate(-110.375 -69.287)"/>
                    </g>
                </g>
            </g>
        </g>
        <g id="W_Illustrations_Smartfleet-2" transform="translate(8719.62 -4601)">
            <g id="Tick" transform="translate(-528.917 -210.598)">
                <path id="Ellipse_11-2" d="M16.649 0a16.692 16.692 0 0 1 16.842 16.537 16.692 16.692 0 0 1-16.842 16.538c-9.3 0-14.873-6.953-14.873-16.086S7.347 0 16.649 0z" class="cls-7" transform="translate(531.984 216.128)"/>
                <path id="Path_222" d="M562.218 430.615a21 21 0 1 1-21-21 21 21 0 0 1 21 21zm-23.431 11.118l15.581-15.581a1.354 1.354 0 0 0 0-1.917l-1.917-1.9a1.351 1.351 0 0 0-1.914 0l-12.709 12.705-5.933-5.947a1.359 1.359 0 0 0-1.917 0l-1.917 1.928a1.359 1.359 0 0 0 0 1.917l8.809 8.806a1.354 1.354 0 0 0 1.917 0z" class="cls-15" transform="translate(8.707 -199.012)"/>
            </g>
        </g>
    </g>
</svg>
