<svg xmlns="http://www.w3.org/2000/svg" width="130.974" height="101.58" viewBox="0 0 130.974 101.58">
    <defs>
        <clipPath id="clip-path">
            <path id="Path_23046" d="M47.791 0c26.395 0 47.792 20.635 47.792 46.09s-21.4 46.09-47.791 46.09S0 71.545 0 46.09 21.4 0 47.791 0z" class="cls-1"/>
        </clipPath>
        <style>
            .cls-1,.cls-4{fill:#79e2f3}.cls-1{opacity:.201}.cls-2{fill:#ffc402}.cls-10{fill:#31404f}.cls-11{fill:#212c36}.cls-13{fill:#01d195}.cls-14{fill:#ffdc00}.cls-15{fill:#def3ee}.cls-16{fill:#fefbff}.cls-17{fill:#6e7a93}.cls-18{fill:#354463}.cls-19{fill:#283541}.cls-22{fill:#cff3ff;opacity:.6}.cls-24{fill:#24285b}.cls-25{fill:#ffb60d}.cls-26{fill:#ffcd02}.cls-27{fill:#374246}.cls-28{fill:#2e373b}.cls-29{fill:#dcdcdc}.cls-30{fill:#bfbfbf}.cls-31{fill:#4d4d4d}.cls-32{fill:#585858}.cls-35{fill:#f2f0e4}
        </style>
    </defs>
    <g id="Group_29601" transform="translate(-994 -2247)">
        <g id="undraw_Astronaut_xko2" transform="translate(994 2259)">
            <path id="Path_23135" d="M534.808 222.966h-.608c-.124 0-.431-.487-.431-.627v-.566c0-.442-.5-1.654-.942-1.654s-.942 1.212-.942 1.654v.566c0 .2-.154.627-.342.627h-.609c-.442 0-1.654.343-1.654.785s1.212.785 1.654.785h.727c.23 0 .224.237.224.357v.755c0 .442.5 1.654.942 1.654s.942-1.212.942-1.654v-.755c0-.1.2-.357.314-.357h.727c.442 0 1.654-.343 1.654-.785s-1.214-.785-1.656-.785z" class="cls-2" transform="translate(-520.941 -220.119)"/>
            <path id="Path_23139" d="M710.93 256.683h-.7c-.143 0-.559-.554-.559-.714v-.65c0-.507-.624-1.9-1.131-1.9s-1.131 1.392-1.131 1.9v.65c0 .229-.013.714-.229.714h-.7c-.507 0-1.9.341-1.9.848s1.392.848 1.9.848h.835c.264 0 .094.383.094.521v.867c0 .507.624 1.9 1.131 1.9s1.131-1.392 1.131-1.9v-.867c0-.115.3-.521.424-.521h.835c.508 0 1.9-.341 1.9-.848s-1.393-.848-1.9-.848z" class="cls-2" transform="translate(-588.198 -215.302)"/>
            <circle id="Ellipse_1774" cx="1.948" cy="1.948" r="1.948" fill="#84ead2" opacity="0.7" transform="translate(9.728 41.443)"/>
            <ellipse id="Ellipse_1783" cx="2.89" cy="2.889" class="cls-4" rx="2.89" ry="2.889" transform="translate(0 72.047)"/>
            <ellipse id="Ellipse_1791" cx="2.728" cy="2.727" class="cls-4" rx="2.728" ry="2.727" transform="translate(125.519 4.343)"/>
            <ellipse id="Ellipse_1808" cx="2.89" cy="2.889" fill="#84ead2" rx="2.89" ry="2.889" transform="translate(125.194 69.523)"/>
        </g>
        <g id="Group_29600">
            <g id="Group_29592" transform="translate(1012 2255)">
                <path id="Path_25664" d="M47.791 0A47.79 47.79 0 1 1 0 47.79 47.791 47.791 0 0 1 47.791 0z" class="cls-1" transform="translate(0 -2)"/>
                <g id="Mask_Group_132" clip-path="url(#clip-path)">
                    <g id="Group_29589" transform="translate(7.647 14.749)">
                        <path id="Rectangle_21440" d="M0 0H79.888V6.933H0z" class="cls-4" transform="translate(0 55.886)"/>
                        <path id="Rectangle_21441" fill="#b9b9b9" d="M0 0H79.888V3.466H0z" transform="translate(0 55.886)"/>
                        <g id="Group_29523" transform="translate(17.677 32.341)">
                            <g id="Group_29507" transform="translate(7.524)">
                                <path id="Path_25556" fill="#ff3100" d="M54.757 136.272a.405.405 0 1 0 0 .81h3.828v-.81z" transform="translate(-54.337 -136.272)"/>
                                <path id="Path_25557" fill="#e02b00" d="M67.326 136.272H63.5v.81h3.828a.405.405 0 1 0 0-.81z" transform="translate(-59.249 -136.272)"/>
                            </g>
                            <g id="Group_29508" transform="translate(0 4.856)">
                                <path id="Path_25558" d="M41.1 162.189h-.132a2.7 2.7 0 0 1-2.44-1.212c-1.087-1.833.138-5.3 1.517-7.71a8.945 8.945 0 0 0 1.024-5.913.183.183 0 0 1 .144-.219.19.19 0 0 1 .227.139 9.129 9.129 0 0 1-1.062 6.171c-1.436 2.512-2.464 5.759-1.52 7.35a2.346 2.346 0 0 0 2.12 1.027 2.232 2.232 0 0 0 2.064-.86c1.081-1.616-.18-5.042-.4-5.473a.178.178 0 0 1 .01-.178.192.192 0 0 1 .161-.086h2.697a.184.184 0 1 1 0 .367H43.1c.346.909 1.36 3.938.27 5.568a2.531 2.531 0 0 1-2.27 1.029z" class="cls-10" transform="translate(-38.114 -147.129)"/>
                            </g>
                            <g id="Group_29518" transform="translate(2.394 1.005)">
                                <g id="Group_29509" transform="translate(.482 4.695)">
                                    <path id="Path_25559" d="M45.068 149.017v.263a.218.218 0 0 1-.219.217h-.308a.219.219 0 0 1-.225-.212v-.263z" class="cls-11" transform="translate(-44.315 -149.017)"/>
                                </g>
                                <g id="Group_29510" transform="translate(1.314 3.361)">
                                    <path id="Path_25560" d="M46.651 147.279a3.054 3.054 0 0 1-.32-.776.08.08 0 0 1 .026-.065 1.033 1.033 0 0 1 .5-.189v-.215a1.238 1.238 0 0 0-.664.259.291.291 0 0 0-.083.231 3.322 3.322 0 0 0 .345.856z" class="cls-11" transform="translate(-46.109 -146.034)"/>
                                </g>
                                <g id="Group_29512" transform="translate(1.69)">
                                    <g id="Group_29511">
                                        <path id="Path_25561" fill="#aab2bd" d="M47.256 140.235l.525-.824 1.041-.56-.192-.332-1.086.583a.2.2 0 0 0-.072.067l-.552.867z" transform="translate(-46.92 -138.519)"/>
                                    </g>
                                </g>
                                <g id="Group_29515" transform="translate(.273 2.551)">
                                    <g id="Group_29514">
                                        <g id="Group_29513">
                                            <path id="Path_25562" d="M43.864 144.461l.026 1.813a.219.219 0 0 0 .225.212l1.581-.021a.219.219 0 0 0 .219-.217l-.026-1.813a.219.219 0 0 0-.225-.212l-1.581.021a.218.218 0 0 0-.219.217zm.7.43a.114.114 0 0 1 .115-.114l.775-.01a.115.115 0 0 1 .118.111l.018 1.261a.114.114 0 0 1-.115.114l-.775.01a.115.115 0 0 1-.118-.111z" class="cls-13" transform="translate(-43.864 -144.223)"/>
                                        </g>
                                    </g>
                                </g>
                                <g id="Group_29516" transform="translate(0 1.302)">
                                    <path id="Path_25563" d="M43.55 143.008l-.274-.39.3-.667 1.026-.52.979.6-.006.953z" class="cls-11" transform="translate(-43.276 -141.431)"/>
                                </g>
                                <g id="Group_29517" transform="translate(1.401 1.207)">
                                    <path id="Path_25564" d="M46.3 141.472l.146-.205a.118.118 0 0 1 .16-.029l.527.349a.108.108 0 0 1 .03.154l-.146.206z" class="cls-11" transform="translate(-46.296 -141.218)"/>
                                </g>
                            </g>
                            <path id="Rectangle_21467" d="M0 0H1.8V2.133H0z" class="cls-13" transform="translate(5.61 12.068)"/>
                            <g id="Group_29519" transform="translate(6.223 .322)">
                                <path id="Path_25663" d="M0 0h5.55v14.017H0z" class="cls-14" transform="translate(0 9.178)"/>
                                <path id="Path_25565" d="M57.081 136.992h-4.749a.788.788 0 0 0-.8.773v8.405h5.55z" class="cls-2" transform="translate(-51.531 -136.992)"/>
                                <path id="Path_25566" d="M69.048 146.17v-8.405a.787.787 0 0 0-.8-.773H63.5v9.178z" class="cls-14" transform="translate(-57.948 -136.992)"/>
                                <path id="Path_25662" d="M0 0h5.55v14.017H0z" class="cls-2" transform="translate(5.55 9.178)"/>
                            </g>
                            <path id="Rectangle_21470" d="M0 0H0.011V5.785H0z" class="cls-15" transform="translate(11.773 2.555)"/>
                            <g id="Group_29520" transform="translate(6.98 2.007)">
                                <path id="Path_25567" d="M57.957 140.785h-3.992a.787.787 0 0 0-.8.773v3.236h4.793z" class="cls-16" transform="translate(-53.164 -140.774)"/>
                                <path id="Path_25568" d="M57.957 148.9h-4.793v1.393a.787.787 0 0 0 .8.773h4v-.011h-.011z" class="cls-15" transform="translate(-53.164 -145.26)"/>
                                <path id="Path_25569" d="M63.509 144.781H68.3v-3.248a.787.787 0 0 0-.8-.773h-4v.011h.011z" class="cls-15" transform="translate(-58.705 -140.76)"/>
                                <path id="Path_25570" d="M63.522 148.9v2.155h3.991a.787.787 0 0 0 .8-.773V148.9z" class="cls-16" transform="translate(-58.718 -145.26)"/>
                            </g>
                            <path id="Rectangle_21471" d="M0 0H1.041V1.231H0z" class="cls-10" transform="translate(9.57 6.116)"/>
                            <path id="Rectangle_21472" d="M0 0H1.041V1.231H0z" class="cls-11" transform="translate(12.934 6.116)"/>
                            <path id="Rectangle_21473" d="M0 0H1.041V1.231H0z" class="cls-10" transform="translate(7.888 6.116)"/>
                            <path id="Rectangle_21474" d="M0 0H1.041V1.231H0z" class="cls-11" transform="translate(14.616 6.116)"/>
                            <g id="Group_29521" transform="translate(11.252 6.116)">
                                <path id="Rectangle_21475" d="M0 0H0.52V1.231H0z" class="cls-10"/>
                                <path id="Rectangle_21476" d="M0 0H0.52V1.231H0z" class="cls-11" transform="translate(.52)"/>
                            </g>
                            <g id="Group_29522" transform="translate(8.079 3.02)">
                                <path id="Rectangle_21477" d="M0 0H3.69V1.891H0z" class="cls-10"/>
                                <path id="Rectangle_21478" d="M0 0H3.697V1.891H0z" class="cls-11" transform="translate(3.69)"/>
                            </g>
                        </g>
                        <path id="Rectangle_21495" d="M0 0H3.69V43.694H0z" class="cls-17" transform="translate(8.593 12.164)"/>
                        <path id="Rectangle_21496" d="M0 0H3.691V43.694H0z" class="cls-18" transform="translate(12.284 12.164)"/>
                        <path id="Rectangle_21497" d="M0 0H3.69V43.694H0z" class="cls-18" transform="translate(68.857 12.164)"/>
                        <path id="Rectangle_21498" d="M0 0H3.691V43.694H0z" class="cls-17" transform="translate(65.166 12.164)"/>
                        <g id="Group_29559" transform="translate(27.301 39.688)">
                            <path id="Rectangle_21506" d="M0 0H3.355V1.138H0z" class="cls-19" transform="translate(45.638 11.208)"/>
                            <path id="Path_25586" d="M168.154 156.886c1.092.439 1.018.838-.164.886l-31.36 1.646c-1.182.049-1.309-.377-.284-.945l7.894-4.4a10.305 10.305 0 0 1 4.014-1.081l8.515-.294a12.521 12.521 0 0 1 4.135.751z" class="cls-13" transform="translate(-126.012 -152.699)"/>
                            <path id="Path_25587" fill="#305172" d="M145.671 155.165a9.794 9.794 0 0 1 3.757-1.011l8.634-.3a12.158 12.158 0 0 1 3.8.712l7.038 3.336-31.076 1.633z" transform="translate(-127.175 -153.34)"/>
                            <path id="Path_25588" fill="#2b4866" d="M145.841 165.368a.391.391 0 0 1-.345.437.4.4 0 0 1-.454-.333l-.339-2.4a.391.391 0 0 1 .345-.437.4.4 0 0 1 .454.333z" transform="translate(-130.863 -158.19)"/>
                            <path id="Path_25589" d="M154.043 159.493l3.721-4.966c.127-.012.248-.02.362-.022l.381-.013-3.587 4.956z" class="cls-22" transform="translate(-135.873 -153.689)"/>
                            <path id="Path_25590" d="M176.456 153.858h.16l-3.609 4.793-.883.046 3.708-4.824z" class="cls-22" transform="translate(-145.569 -153.34)"/>
                            <path id="Path_25591" d="M148 157.132l1.359-.757a6.213 6.213 0 0 1 .718-.328l-4.145 4.469-1.233.065z" class="cls-22" transform="translate(-130.863 -154.549)"/>
                            <path id="Rectangle_21507" d="M0 0H0.627V6.577H0z" class="cls-13" transform="translate(22.153 .518)"/>
                            <path id="Rectangle_21508" d="M0 0H0.627V6.577H0z" class="cls-13" transform="translate(32.661 .389)"/>
                            <path id="Path_25592" d="M115.674 171.792h45.4a1.692 1.692 0 0 0 .806-1.785l-.531-3.049-.542-3.117a2.05 2.05 0 0 0-.192-.586 2.443 2.443 0 0 0-2.3-1.329l-38.325 2.3a5.728 5.728 0 0 0-3.902 1.774 2.312 2.312 0 0 0-.531 1.041l-.206.928-.453 2.047a1.662 1.662 0 0 0 .776 1.776z" class="cls-13" transform="translate(-114.865 -157.797)"/>
                            <path id="Path_25593" fill="#02b17e" d="M115.594 176.7h45.56a1.692 1.692 0 0 0 .725-1.733l-.531-3.049-.178-1.023h-45.027l-.055.06a2.313 2.313 0 0 0-.531 1.041l-.206.928-.453 2.047a1.663 1.663 0 0 0 .696 1.729z" transform="translate(-114.865 -162.756)"/>
                            <path id="Path_25594" d="M115.6 183.063a1.811 1.811 0 0 0 1.468.677h43.4a1.841 1.841 0 0 0 1.478-.677z" class="cls-19" transform="translate(-115.259 -169.482)"/>
                            <path id="Path_25595" d="M178.436 165.306a.364.364 0 0 0 .379.347l1.62-.041a.362.362 0 0 0 .36-.365.365.365 0 0 0-.379-.348l-1.62.041a.362.362 0 0 0-.36.366z" class="cls-24" transform="translate(-148.953 -159.442)"/>
                            <path id="Path_25596" d="M154.866 166.121a.364.364 0 0 0 .379.347l1.62-.041a.363.363 0 0 0 .36-.366.364.364 0 0 0-.379-.347l-1.62.041a.363.363 0 0 0-.36.366z" class="cls-24" transform="translate(-136.314 -159.893)"/>
                            <g id="Group_29546" transform="translate(.486 8.198)">
                                <path id="Path_25597" d="M119.655 172.024a.973.973 0 0 0-.3-.7 1.033 1.033 0 0 0-.726-.291h-1.758a2.313 2.313 0 0 0-.531 1.041l-.016.07h3.32a.958.958 0 0 0 .011-.12z" class="cls-14" transform="translate(-116.132 -171.029)"/>
                                <path id="Path_25598" d="M116.1 173.514l-.191.857a1.167 1.167 0 0 0 .192.017h2.3a1.012 1.012 0 0 0 1.016-.875z" class="cls-25" transform="translate(-115.912 -172.403)"/>
                            </g>
                            <g id="Group_29547" transform="translate(43.248 5.458)">
                                <path id="Path_25599" d="M210.81 165.488a2.049 2.049 0 0 0-.192-.586h-1.028a1.448 1.448 0 0 0-1.474 1.422v.86a1.369 1.369 0 0 0 .065.4h2.992z" class="cls-14" transform="translate(-208.116 -164.902)"/>
                                <path id="Path_25600" d="M208.257 170.894a1.463 1.463 0 0 0 1.408 1.023h1.761l-.178-1.023z" class="cls-25" transform="translate(-208.192 -168.214)"/>
                            </g>
                            <g id="Group_29548" transform="translate(.667 10.474)">
                                <path id="Rectangle_21509" d="M0 0H0.491V1.133H0z" class="cls-25" transform="translate(.491)"/>
                                <path id="Rectangle_21510" d="M0 0H0.491V1.133H0z" class="cls-26"/>
                            </g>
                            <g id="Group_29549" transform="translate(45.147 9.845)">
                                <path id="Rectangle_21511" d="M0 0H0.491V1.133H0z" class="cls-25" transform="translate(.491)"/>
                                <path id="Rectangle_21512" d="M0 0H0.491V1.133H0z" class="cls-26"/>
                            </g>
                            <g id="Group_29553" transform="translate(7.385 10.221)">
                                <path id="Path_25601" d="M131.522 179.326c-.009-.089-.015-.178-.015-.267a2.919 2.919 0 0 1 5.834 0c0 .089-.006.178-.014.267h.723q.01-.133.011-.267a3.638 3.638 0 0 0-7.272 0q0 .134.011.267z" class="cls-19" transform="translate(-130.788 -175.551)"/>
                                <g id="Group_29550" transform="translate(.558 .538)">
                                    <path id="Path_25602" d="M131.991 179.723a3.024 3.024 0 0 0 3.077 2.967v-5.935a3.025 3.025 0 0 0-3.077 2.968z" class="cls-27" transform="translate(-131.991 -176.754)"/>
                                    <path id="Path_25603" d="M138.626 176.754v5.935a2.97 2.97 0 1 0 0-5.935z" class="cls-28" transform="translate(-135.548 -176.754)"/>
                                </g>
                                <g id="Group_29551" transform="translate(2.022 1.949)">
                                    <path id="Path_25604" d="M135.147 181.467a1.584 1.584 0 0 0 1.613 1.555v-3.112a1.586 1.586 0 0 0-1.613 1.557z" class="cls-29" transform="translate(-135.147 -179.91)"/>
                                    <path id="Path_25605" d="M138.626 179.909v3.112a1.557 1.557 0 1 0 0-3.113z" class="cls-30" transform="translate(-137.012 -179.909)"/>
                                </g>
                                <g id="Group_29552" transform="translate(2.485 2.396)">
                                    <path id="Path_25606" d="M138.626 180.909v2.218a1.11 1.11 0 1 0 0-2.218z" class="cls-31" transform="translate(-137.475 -180.909)"/>
                                    <path id="Path_25607" d="M136.146 182.019a1.129 1.129 0 0 0 1.15 1.109v-2.218a1.131 1.131 0 0 0-1.15 1.109z" class="cls-32" transform="translate(-136.146 -180.909)"/>
                                </g>
                            </g>
                            <g id="Group_29558" transform="translate(35.203 10.03)">
                                <g id="Group_29554">
                                    <path id="Path_25608" d="M191.555 179.281a2.818 2.818 0 0 1-.039-.458 3.08 3.08 0 0 1 6.156 0 2.816 2.816 0 0 1-.039.458h.4a3.25 3.25 0 0 0 .034-.458 3.477 3.477 0 0 0-6.949 0 3.25 3.25 0 0 0 .034.458z" class="cls-19" transform="translate(-190.958 -175.315)"/>
                                    <path id="Path_25609" d="M191.13 179.089a3.1 3.1 0 0 1-.037-.458 3.316 3.316 0 0 1 6.627 0 3.014 3.014 0 0 1-.037.458h.326a3.343 3.343 0 0 0 .033-.458 3.638 3.638 0 0 0-7.272 0 3.358 3.358 0 0 0 .033.458z" class="cls-19" transform="translate(-190.771 -175.123)"/>
                                    <path id="Path_25610" d="M191.949 179.1a2.918 2.918 0 0 1 5.833 0 2.652 2.652 0 0 1-.04.458h.325a2.965 2.965 0 0 0 .038-.458 3.241 3.241 0 0 0-6.479 0 2.965 2.965 0 0 0 .038.458h.325a2.655 2.655 0 0 1-.04-.458z" class="cls-19" transform="translate(-191.229 -175.596)"/>
                                </g>
                                <g id="Group_29555" transform="translate(.557 .538)">
                                    <path id="Path_25611" d="M195.051 176.326a2.97 2.97 0 1 0 0 5.935v-5.935z" class="cls-27" transform="translate(-191.973 -176.326)"/>
                                    <path id="Path_25612" d="M201.687 179.295a3.025 3.025 0 0 0-3.076-2.969v5.935a3.024 3.024 0 0 0 3.076-2.966z" class="cls-28" transform="translate(-195.532 -176.326)"/>
                                </g>
                                <g id="Group_29556" transform="translate(2.022 1.95)">
                                    <path id="Path_25613" d="M196.743 179.482a1.557 1.557 0 1 0 0 3.113v-3.112z" class="cls-29" transform="translate(-195.13 -179.482)"/>
                                    <path id="Path_25614" d="M200.223 181.039a1.586 1.586 0 0 0-1.612-1.557v3.112a1.584 1.584 0 0 0 1.612-1.555z" class="cls-30" transform="translate(-196.997 -179.482)"/>
                                </g>
                                <g id="Group_29557" transform="translate(2.485 2.396)">
                                    <path id="Path_25615" d="M197.279 180.481a1.11 1.11 0 1 0 0 2.218v-2.218z" class="cls-32" transform="translate(-196.129 -180.481)"/>
                                    <path id="Path_25616" d="M199.76 181.591a1.131 1.131 0 0 0-1.149-1.11v2.219a1.129 1.129 0 0 0 1.149-1.109z" class="cls-31" transform="translate(-197.46 -180.481)"/>
                                </g>
                            </g>
                        </g>
                        <path id="Rectangle_21513" d="M0 0H14.398V4.397H0z" class="cls-18" transform="translate(5.085 12.278)"/>
                        <path id="Rectangle_21514" d="M0 0H14.398V4.397H0z" class="cls-18" transform="translate(61.755 12.278)"/>
                        <g id="Group_29560" transform="translate(2.086 5.079)">
                            <path id="Rectangle_21515" d="M0 0H52.446V8.621H0z" class="cls-24"/>
                            <path id="Rectangle_21516" fill="#1a1d46" d="M0 0H39.46V8.621H0z" transform="translate(37.051)"/>
                        </g>
                        <g id="Group_29561" transform="translate(11.174)">
                            <path id="Rectangle_21517" fill="#fc0" d="M0 0H43.296V9.389H0z" transform="translate(.063)"/>
                            <path id="Rectangle_21518" d="M0 0H59.528V9.389H0z" class="cls-2"/>
                        </g>
                        <g id="Group_29577" transform="translate(27.389 2.365)">
                            <path id="Path_25656" d="M89.056 69.334h2.39c.7 0 1.542.209 1.542 1.654 0 1.635-.9 1.755-1.542 1.726-.3-.013-1.289-.125-1.327-.146v2.127h-1.063zm2.306 2.475c.337 0 .555-.166.555-.81s-.289-.754-.555-.754h-1.243v1.564z" class="cls-35" transform="translate(-89.056 -69.297)"/>
                            <path id="Path_25657" d="M99.03 70.447a1.048 1.048 0 0 1 1.208-1.113s1.957.052 2.446.117v.849h-2.2c-.395 0-.395.212-.395.41v.836l2.244.077v.843l-2.244.07v.836c0 .388.25.381.471.381h2.119v.84c-.43.056-2.37.124-2.37.124-.5.021-1.284-.087-1.284-1.076z" class="cls-35" transform="translate(-94.404 -69.297)"/>
                            <path id="Path_25658" d="M107.882 69.334h4.109v.945h-1.545v4.416h-1.063v-4.416h-1.5z" class="cls-35" transform="translate(-99.151 -69.297)"/>
                            <path id="Path_25659" d="M117.924 69.334h2.432c.868 0 1.514.391 1.514 1.671 0 1.327-.577 1.485-.885 1.578l1.053 2.111h-1.2l-.919-2.029-.934-.1v2.131h-1.063zm2.328 2.424c.37 0 .546-.105.546-.753 0-.609-.212-.76-.546-.76h-1.261v1.513z" class="cls-35" transform="translate(-104.536 -69.297)"/>
                            <path id="Path_25660" d="M129.752 69.252c1.314 0 2.23.242 2.23 2.754 0 2.366-.862 2.673-2.23 2.673s-2.236-.234-2.236-2.673c0-2.512.961-2.754 2.236-2.754zm0 4.482c.892 0 1.166-.284 1.166-1.728 0-1.67-.321-1.809-1.166-1.809-.822 0-1.172.1-1.172 1.809-.001 1.463.22 1.728 1.172 1.728z" class="cls-35" transform="translate(-109.679 -69.252)"/>
                            <path id="Path_25661" d="M138.692 69.334h1.063v4.035c0 .388.251.381.471.381h1.907v.945h-2.282c-.606 0-1.159-.216-1.159-1.043z" class="cls-35" transform="translate(-115.672 -69.297)"/>
                        </g>
                    </g>
                </g>
            </g>
            <g id="W_Illustrations_Smartfleet" transform="translate(1071.606 2247)">
                <g id="Tick">
                    <path id="Ellipse_11" fill="#fff" d="M13.971 0a13.636 13.636 0 0 1 13.811 13.454 13.636 13.636 0 0 1-13.811 13.455c-7.627 0-12.2-5.657-12.2-13.087S6.344 0 13.971 0z" transform="translate(1.44 3.672)"/>
                    <path id="Path_222" d="M553.05 426.031a16.42 16.42 0 1 1-16.42-16.421 16.42 16.42 0 0 1 16.42 16.421zm-18.318 8.692l12.18-12.18a1.058 1.058 0 0 0 0-1.5l-1.5-1.488a1.056 1.056 0 0 0-1.5 0l-9.934 9.934-4.638-4.649a1.063 1.063 0 0 0-1.5 0l-1.5 1.508a1.063 1.063 0 0 0 0 1.5l6.887 6.884a1.058 1.058 0 0 0 1.5 0z" class="cls-13" transform="translate(-520.21 -409.61)"/>
                </g>
            </g>
        </g>
    </g>
</svg>
