<svg xmlns="http://www.w3.org/2000/svg" id="W_Illustrations_Request_Sent" width="100" height="100" viewBox="0 0 100 100">
    <defs>
        <style>
            .cls-6{fill:#79e2f3}.cls-7{fill:#01d195}
        </style>
    </defs>
    <circle id="Ellipse_2217" cx="50" cy="50" r="50" fill="#daf5fd"/>
    <g id="Group_23448" transform="translate(11.504 17.005)">
        <path id="Path_23709" fill="#ffc402" d="M16849.938 2595.764s18.844 10.193 23.031 7.48 19.477-35.82 19.477-35.82 1.291-2 .684-2.506-2.82 0-2.82 0l-12.4 3.363s-53.477 12.12-53.8 14.565-.395 2.441 14.012 8.705c0 0 42.6-18.016 42.564-18.084s-30.748 22.297-30.748 22.297z" transform="translate(-16818.533 -2555.12)"/>
        <path id="Path_23710" fill="#ffdc00" d="M16990.049 2761.324l-12.3 13.395 2.1-18.272z" transform="translate(-16948.398 -2715.852)"/>
        <path id="Path_23711" fill="#ffb100" d="M16917.447 2713.242s7.873 22.576 9.637 22.481 2.248-18.27 2.248-18.27l-3.949-7.57z" transform="translate(-16897.855 -2676.822)"/>
        <path id="Path_23712" fill="#84ead2" d="M16950.971 2517.824a3.835 3.835 0 0 1 .926-2.876 4.282 4.282 0 0 1 1.912-1.087l28.9-8.238s1.064-.375 1.5.255a3.609 3.609 0 0 1 .453 1.68l.314 18.495-27.6 20.086-.035.94-2.629 1.5a3.016 3.016 0 0 1-1.627.17c-.613-.218-.592-1.042-.592-1.042z" transform="translate(-16925.891 -2505.513)"/>
        <path id="Path_23713" d="M16907.834 2728.307l-7.1 3.758 1.736 2.209 6.18-4.723z" class="cls-6" transform="translate(-16896.117 -2687.712)"/>
        <path id="Path_23714" d="M16892.238 2777.091l.969 1.312-12.092 10.714-1.412-1.816z" class="cls-6" transform="translate(-16879.703 -2725.79)"/>
        <path id="Path_23715" d="M17013.416 2581.619l.211 4.187 26.389-9.777v-2.873z" class="cls-7" transform="translate(-16984.07 -2566.613)"/>
        <path id="Path_23716" d="M17014.375 2578.161l.191 3.979 26.047-11.945v-2.2z" class="cls-7" transform="translate(-16984.379 -2555.121)"/>
    </g>
</svg>
