<svg xmlns="http://www.w3.org/2000/svg" id="W_Illustrations_Request_Sent" width="125" height="125" data-name="W/Illustrations/Request Sent" viewBox="0 0 125 125">
    <defs>
        <style>
            .cls-6{fill:#79e2f3}.cls-7{fill:#01d195}
        </style>
    </defs>
    <circle id="Ellipse_2217" cx="62.5" cy="62.5" r="62.5" fill="#daf5fd" data-name="Ellipse 2217"/>
    <g id="Group_23448" data-name="Group 23448" transform="translate(14.379 21.256)">
        <path id="Path_23709" fill="#ffc402" d="M16856.414 2603.532s23.557 12.741 28.789 9.351 24.348-44.775 24.348-44.775 1.613-2.5.855-3.133-3.525 0-3.525 0l-15.5 4.2s-66.846 15.15-67.254 18.206-.494 3.051 17.512 10.882c0 0 53.256-22.52 53.207-22.606s-38.432 27.875-38.432 27.875z" data-name="Path 23709" transform="translate(-16817.16 -2552.727)"/>
        <path id="Path_23710" fill="#ffdc00" d="M16993.125 2762.543l-15.381 16.743 2.627-22.84z" data-name="Path 23710" transform="translate(-16941.063 -2705.703)"/>
        <path id="Path_23711" fill="#ffb100" d="M16917.447 2714.082s9.842 28.22 12.045 28.1 2.811-22.837 2.811-22.837l-4.937-9.462z" data-name="Path 23711" transform="translate(-16892.957 -2668.557)"/>
        <path id="Path_23712" fill="#84ead2" d="M16950.973 2520.9s-.215-2.393 1.158-3.6a5.353 5.353 0 0 1 2.389-1.358l36.121-10.3s1.332-.468 1.871.318a4.531 4.531 0 0 1 .566 2.1l.393 23.118-34.5 25.108-.043 1.175-3.285 1.874a3.78 3.78 0 0 1-2.035.212c-.766-.272-.74-1.3-.74-1.3z" data-name="Path 23712" transform="translate(-16919.623 -2505.513)"/>
        <path id="Path_23713" d="M16909.609 2728.307l-8.877 4.7 2.172 2.762 7.725-5.9z" class="cls-6" data-name="Path 23713" transform="translate(-16894.963 -2677.564)"/>
        <path id="Path_23714" d="M16895.371 2777.091l1.211 1.639-15.113 13.393-1.766-2.271z" class="cls-6" data-name="Path 23714" transform="translate(-16879.703 -2712.965)"/>
        <path id="Path_23715" d="M17013.416 2583.735l.264 5.233 32.986-12.222v-3.591z" class="cls-7" data-name="Path 23715" transform="translate(-16976.734 -2564.978)"/>
        <path id="Path_23716" d="M17014.375 2580.7l.24 4.973 32.557-14.931v-2.753z" class="cls-7" data-name="Path 23716" transform="translate(-16976.879 -2551.903)"/>
    </g>
</svg>
