<svg xmlns="http://www.w3.org/2000/svg" id="W_Illustrations_Password_Reset" width="134.217" height="125" data-name="W/Illustrations/Password Reset" viewBox="0 0 134.217 125">
    <defs>
        <style>
            .cls-3{fill:#6e7a93}.cls-4{fill:#354463}.cls-9{fill:#24285b}.cls-11{fill:#fff}
        </style>
    </defs>
    <g id="Group_23404" data-name="Group 23404">
        <g id="Group_23400" data-name="Group 23400" transform="translate(4.931)">
            <path id="Path_23046" fill="#79e2f3" d="M62.5 0A62.5 62.5 0 1 1 0 62.5 62.5 62.5 0 0 1 62.5 0z" data-name="Path 23046" opacity="0.201"/>
        </g>
        <path id="Path_1521" fill="#79e2f3" d="M6.643 250.213H127.4c3.767 0 6.821 2.324 6.821 5.19v2.051c0 3.56-3.793 6.445-8.471 6.445H7.725C3.457 263.9 0 261.267 0 258.019v-2.755c0-2.792 2.974-5.054 6.643-5.054z" data-name="Path 1521" transform="translate(0 -154.559)"/>
        <g id="Group_23402" data-name="Group 23402" transform="translate(23.653 20.608)">
            <path id="Path_23404" d="M317.09 582.68s2.205 14.884 15.213 19.846H279.61c13.007-4.961 15.212-19.846 15.212-19.846z" class="cls-3" data-name="Path 23404" transform="translate(-262.468 -530.595)"/>
            <path id="Rectangle_21120" d="M0 0H53.189V3.144H0z" class="cls-3" data-name="Rectangle 21120" transform="translate(16.877 71.928)"/>
            <path id="Path_23462" d="M0 0h52.692v2.425H0z" class="cls-4" data-name="Path 23462" transform="translate(17.142 71.928)"/>
            <path id="Path_23406" d="M204.2 137.387h-86.98V90.4a1.135 1.135 0 0 1 1.138-1.133h84.7A1.135 1.135 0 0 1 204.2 90.4z" class="cls-3" data-name="Path 23406" transform="translate(-117.22 -89.27)"/>
            <path id="Path_23407" d="M202.124 553.027h-82.743a2.111 2.111 0 0 1-2.111-2.111v-5.826h86.97v5.821a2.111 2.111 0 0 1-2.117 2.117z" class="cls-4" data-name="Path 23407" transform="translate(-117.265 -496.973)"/>
            <rect id="Rectangle_21122" width="80.707" height="41.766" fill="#c5f2f8" data-name="Rectangle 21122" rx="1" transform="translate(3.405 2.975)"/>
        </g>
        <g id="Group_23401" data-name="Group 23401" transform="translate(105.047 66.009)">
            <path id="Path_1470" fill="#00b782" d="M91.558 248.912s-8.523-2.29-10.408-10.206c0 0 13.182-2.727 13.61 10.907z" data-name="Path 1470" opacity="0.58" transform="translate(-81.15 -229.872)"/>
            <path id="Path_1471" fill="#00b782" d="M95.016 245.621s-5.983-9.349-.779-18.191c0 0 10.058 6.326 5.648 18.191z" data-name="Path 1471" opacity="0.73" transform="translate(-83.571 -227.43)"/>
            <path id="Path_1472" fill="#00b782" d="M97.81 247.415s3.116-9.949 12.6-11.865c0 0 1.807 6.443-6.1 11.865z" data-name="Path 1472" transform="translate(-84.831 -229.224)"/>
            <path id="Path_1473" d="M89.89 250.53l1.768 11.795h10.876l1.55-11.795z" class="cls-9" data-name="Path 1473" transform="translate(-83.081 -232.534)"/>
        </g>
        <g id="Group_23412" data-name="Group 23412" transform="translate(44.539 37.992)">
            <path id="Path_23463" fill="#01d195" d="M492.319 289.272c-.254 0-.46.129-.46.289v11.931c0 .159.206.288.46.289h44.039c.254 0 .46-.129.46-.289V289.56c0-.159-.206-.288-.46-.289z" data-name="Path 23463" transform="translate(-491.859 -289.272)"/>
        </g>
        <g id="Dots" transform="translate(50.1 43)">
            <circle id="Ellipse_2182" cx="1.25" cy="1.25" r="1.25" class="cls-11" data-name="Ellipse 2182"/>
            <circle id="Ellipse_2183" cx="1.25" cy="1.25" r="1.25" class="cls-11" data-name="Ellipse 2183" transform="translate(4)"/>
            <circle id="Ellipse_2184" cx="1.25" cy="1.25" r="1.25" class="cls-11" data-name="Ellipse 2184" transform="translate(8)"/>
            <circle id="Ellipse_2185" cx="1.25" cy="1.25" r="1.25" class="cls-11" data-name="Ellipse 2185" transform="translate(12)"/>
            <circle id="Ellipse_2186" cx="1.25" cy="1.25" r="1.25" class="cls-11" data-name="Ellipse 2186" transform="translate(16)"/>
            <circle id="Ellipse_2187" cx="1.25" cy="1.25" r="1.25" class="cls-11" data-name="Ellipse 2187" transform="translate(20)"/>
            <circle id="Ellipse_2188" cx="1.25" cy="1.25" r="1.25" class="cls-11" data-name="Ellipse 2188" transform="translate(24)"/>
            <circle id="Ellipse_2189" cx="1.25" cy="1.25" r="1.25" class="cls-11" data-name="Ellipse 2189" transform="translate(28)"/>
            <circle id="Ellipse_2190" cx="1.25" cy="1.25" r="1.25" class="cls-11" data-name="Ellipse 2190" transform="translate(32)"/>
        </g>
    </g>
    <ellipse id="Ellipse_2191" cx="24.371" cy="23.951" fill="#ffc402" data-name="Ellipse 2191" rx="24.371" ry="23.951" transform="translate(6.807 47.902)"/>
    <g id="key" transform="rotate(180 21.375 41.761)">
        <path id="Path_23464" d="M21.287 11.078a6.489 6.489 0 1 0-10.136-1.219L0 21.01l2.178 2.178 1.31-1.31L4.911 23.3l2.014-2.014L5.5 19.863l2.086-2.086L9.011 19.2l2.014-2.014L9.6 15.763l3.727-3.727a6.491 6.491 0 0 0 7.958-.958zm-4.375-4.8a1.672 1.672 0 1 1 2.364 0 1.672 1.672 0 0 1-2.364-.002z" class="cls-9" data-name="Path 23464"/>
        <path id="Path_23465" d="M12.24 10.135l-3.727 3.728 1.423 1.423L7.922 17.3 6.5 15.877l-2.087 2.085 1.423 1.423L3.822 21.4 2.4 19.976l-1.31 1.31L0 20.2 15.823 4.375a1.672 1.672 0 0 0 2.364-2.364L20.2 0a6.49 6.49 0 0 1-7.96 10.135z" class="cls-9" data-name="Path 23465" transform="translate(1.089 1.901)"/>
    </g>
</svg>
