<svg xmlns="http://www.w3.org/2000/svg" width="162.603" height="25.175" viewBox="0 0 162.603 25.175">
    <g>
        <path fill="none" d="M0 0H162V25H0z" transform="translate(0 .175)"/>
        <g fill="#0076c0">
            <path fill-rule="evenodd" d="M366.972 403.558h.8v-2.1h.475c.613 0 .85.213 1.476 1.326l.439.775h.973l-.6-.963c-.414-.662-.726-1.087-1.153-1.237v-.024a1.411 1.411 0 0 0 1.415-1.427c0-.538-.414-1.3-1.638-1.3h-2.191v4.952zm.8-2.789v-1.489h1.288c.524 0 .888.29.888.739 0 .513-.414.75-1.025.75zm5.065.239a3.847 3.847 0 1 1-3.853-3.84 3.855 3.855 0 0 1 3.853 3.84zm.761 0a4.608 4.608 0 1 0-4.614 4.617 4.6 4.6 0 0 0 4.614-4.617z" transform="translate(-210.998 -396.404)"/>
            <path d="M338.545 407.062h-1.956v-2.055a5.83 5.83 0 0 0 5.35-4.963h2.249v4.276h3.623v3.637h-.1c-.881-.923-1.337-.865-2.708-.865h-.818v5.58c0 1.073-.03 1.849 1.014 2.474a5.239 5.239 0 0 0 2.609.539l-1.434 2.526c-.847.059-1.73.209-2.577.209a6.976 6.976 0 0 1-4.082-1.16c-1.238-1.011-1.174-2.44-1.174-3.842v-6.355zm-2.046 7.064a13.7 13.7 0 0 1-5.5 1.524c-2.907 0-4.8-1.852-4.8-4.419h10.138c-.1-4.582-2.585-7.295-7.752-7.295-4.54 0-7.995 3.011-7.995 7.176a6.779 6.779 0 0 0 2.968 5.85c1.824 1.219 4.309 1.458 6.532 1.458a14.192 14.192 0 0 0 5.132-.923l1.277-3.37zm-10.3-5.421a2.324 2.324 0 0 1 2.386-2.175 2 2 0 0 1 2.187 2.175zm-7.322 5.421a13.711 13.711 0 0 1-5.5 1.524c-2.909 0-4.806-1.852-4.806-4.419h10.136c-.1-4.582-2.583-7.295-7.75-7.295-4.538 0-7.995 3.011-7.995 7.176a6.792 6.792 0 0 0 2.968 5.85c1.826 1.219 4.307 1.458 6.532 1.458a14.188 14.188 0 0 0 5.133-.923l1.277-3.37zm-10.3-5.421a2.32 2.32 0 0 1 2.386-2.175 2 2 0 0 1 2.191 2.175zm-11.436-10.3a8.22 8.22 0 0 0 2.934-.479h.1v16.823c0 1.369-.1 2.235 1.112 3.191v.089h-7.862v-.089c1.207-.957 1.107-1.822 1.107-3.191v-13.031c0-1.493.1-2.176-1.044-3.221v-.089zm-10.047 15.28c0 1.73.033 3.071 1.447 4.266v.088h-8.861v-.088c1.6-.926 1.369-2.6 1.369-4.176v-11.114c0-1.55.231-3.251-1.369-4.146v-.088l11.442-.031a3.331 3.331 0 0 0 1.37-.178h.1v4.323h-.1c-.882-1.412-2.735-1.233-4.347-1.233h-1.051v4.873h2.4a3.421 3.421 0 0 0 1.218-.151h.146v4.17h-.146c-.428-1.134-1.777-1.074-2.961-1.074l-.657-.029v4.592zm-17.081-6.627h-1.959v-2.055a5.829 5.829 0 0 0 5.352-4.963h2.252v4.276h3.623v3.637h-.1c-.883-.923-1.34-.865-2.713-.865h-.814v5.58c0 1.073-.032 1.849 1.012 2.474a5.242 5.242 0 0 0 2.611.539l-1.436 2.526c-.849.059-1.731.209-2.581.209a6.964 6.964 0 0 1-4.076-1.16c-1.242-1.011-1.174-2.44-1.174-3.842v-6.355zm-5.551-1a3.491 3.491 0 0 1 3.525-2.125l1.209.091v3.65a8.3 8.3 0 0 0-1.7-.238 3.651 3.651 0 0 0-2.578.99c-.555.569-.457 1.073-.457 1.82v4.5c0 1.369-.1 2.267 1.11 3.191v.089h-7.861v-.089c1.205-.925 1.106-1.789 1.106-3.191v-7.158c0-1.375.1-2.267-1.106-3.191v-.091h4.566a4.4 4.4 0 0 0 2.086-.447h.1v2.2zm-8.409 12.266l-1.307.091a6.65 6.65 0 0 1-4.443-1.364c-1.538-1.307-1.407-2.678-1.407-4.438v-.984l-1.036.449c-.809.356-1.846.8-1.846 1.788a1.929 1.929 0 0 0 1.978 1.939 4.7 4.7 0 0 0 .647-.06l-1.395 2.581-1.656.091a7.752 7.752 0 0 1-3.5-.711 4.111 4.111 0 0 1-2.155-3.482c0-5.515 8.963-3.7 8.963-6.2 0-.924-1.263-1.254-2.072-1.254a10.362 10.362 0 0 0-4.111.984l1.536-3.4a17.06 17.06 0 0 1 4.1-.419 8.263 8.263 0 0 1 4.539 1.135c1.633 1.134 1.8 2.863 1.8 4.591v2.387c0 2-.1 3.637 2.708 3.7l-1.338 2.581zm-36.121-12.672a4.863 4.863 0 0 1 3.961-1.72 5.085 5.085 0 0 1 3.914 1.72 6.5 6.5 0 0 1 4.778-1.72 6.865 6.865 0 0 1 3.982 1.129 3.915 3.915 0 0 1 1.662 3.687v6c0 1.373-.1 2.238 1.142 3.19v.091h-7.9v-.091c1.213-.952 1.115-1.789 1.115-3.19v-4.92c0-1.194.162-2.8-1.7-2.8-1.9 0-1.8 1.67-1.8 2.8v4.92c0 1.373-.1 2.238 1.147 3.19v.091h-7.9v-.091c1.21-.952 1.111-1.789 1.111-3.19v-4.474c0-1.25.231-3.251-1.767-3.251-2.031 0-1.735 2.028-1.735 3.255v4.477c0 1.369-.1 2.235 1.145 3.191v.089h-7.9v-.089c1.205-.957 1.111-1.789 1.111-3.191v-7.158c0-1.4.094-2.267-1.111-3.191v-.091h4.536a5.179 5.179 0 0 0 2.121-.447h.1v1.791zM196 413.046a12.137 12.137 0 0 0 6.839 2.326c1.463 0 3.447-.447 3.447-2.116 0-3.634-9.927-2.888-9.927-9.565a5.222 5.222 0 0 1 2.412-4.319 10.339 10.339 0 0 1 5.661-1.433 17.017 17.017 0 0 1 5.48.895v3.486a9.3 9.3 0 0 0-4.6-1.4c-1.27 0-2.83.507-2.83 1.907 0 1.43 1.887 2 3.088 2.474a16.3 16.3 0 0 1 4.343 2.233 5.462 5.462 0 0 1 2.419 4.5 5.673 5.673 0 0 1-2.615 4.831 10.807 10.807 0 0 1-6.323 1.55 18.932 18.932 0 0 1-6.317-1.072l-1.075-4.3z" transform="translate(-196 -395.775)"/>
        </g>
    </g>
</svg>
