<svg xmlns="http://www.w3.org/2000/svg" width="162" height="25.489" viewBox="0 0 162 25.489">
    <g>
        <path fill="none" d="M0 0H161.817V25.489H0z" transform="translate(-60 -71) translate(60 71)"/>
        <g fill="#0076c0">
            <path fill-rule="evenodd" d="M366.711 402.835h.721v-1.889h.427c.551 0 .764.192 1.327 1.192l.395.7h.875l-.538-.866c-.372-.6-.653-.978-1.036-1.112v-.022a1.268 1.268 0 0 0 1.272-1.282c0-.484-.372-1.169-1.473-1.169h-1.969v4.452zm.721-2.508v-1.338h1.158c.471 0 .8.26.8.664 0 .461-.372.674-.922.674zm4.553.215a3.458 3.458 0 1 1-3.464-3.452 3.465 3.465 0 0 1 3.464 3.452zm.684 0a4.142 4.142 0 1 0-4.148 4.151 4.136 4.136 0 0 0 4.148-4.151z" transform="translate(-60 -71) translate(60 71) translate(-210.67 -396.404)"/>
            <path d="M339 407.249h-1.96v-2.1a5.892 5.892 0 0 0 5.367-5.064h2.256v4.363h3.637v3.711h-.1c-.884-.942-1.341-.882-2.717-.882h-.82v5.694c0 1.1-.03 1.887 1.017 2.524a5.181 5.181 0 0 0 2.618.55l-1.439 2.578c-.849.061-1.735.213-2.585.213a6.911 6.911 0 0 1-4.1-1.184c-1.242-1.032-1.177-2.49-1.177-3.921v-6.485zm-2.052 7.209a13.561 13.561 0 0 1-5.513 1.555c-2.916 0-4.819-1.889-4.819-4.51h10.17c-.1-4.676-2.593-7.444-7.777-7.444-4.554 0-8.021 3.073-8.021 7.323a6.957 6.957 0 0 0 2.977 5.969c1.83 1.244 4.323 1.488 6.553 1.488a14.023 14.023 0 0 0 5.148-.942l1.281-3.439zm-10.332-5.532a2.348 2.348 0 0 1 2.394-2.22 2.025 2.025 0 0 1 2.194 2.22zm-7.346 5.532a13.578 13.578 0 0 1-5.513 1.555c-2.918 0-4.821-1.889-4.821-4.51h10.168c-.1-4.676-2.591-7.444-7.775-7.444-4.552 0-8.021 3.073-8.021 7.323a6.97 6.97 0 0 0 2.977 5.969c1.832 1.244 4.321 1.488 6.553 1.488a14.019 14.019 0 0 0 5.15-.942l1.281-3.439zm-10.334-5.532a2.344 2.344 0 0 1 2.394-2.22 2.028 2.028 0 0 1 2.2 2.22zm-11.472-10.507a8.121 8.121 0 0 0 2.944-.489h.1v17.17c0 1.4-.1 2.28 1.115 3.257v.091h-7.888v-.091c1.211-.976 1.111-1.859 1.111-3.257v-13.3c0-1.523.1-2.221-1.047-3.287v-.091zm-10.079 15.593c0 1.765.033 3.133 1.451 4.354v.09h-8.889v-.09c1.605-.945 1.373-2.648 1.373-4.261v-11.348c0-1.582.232-3.318-1.373-4.231v-.09l11.479-.032a3.29 3.29 0 0 0 1.375-.181h.1v4.411h-.1c-.885-1.441-2.744-1.258-4.361-1.258h-1.054v4.973h2.408a3.377 3.377 0 0 0 1.222-.154h.147v4.256h-.147c-.43-1.157-1.783-1.1-2.971-1.1l-.659-.029v4.686zm-17.136-6.763h-1.966v-2.1a5.89 5.89 0 0 0 5.369-5.064h2.259v4.363h3.635v3.711h-.1c-.886-.942-1.344-.882-2.721-.882h-.817v5.694c0 1.1-.032 1.887 1.015 2.524a5.183 5.183 0 0 0 2.619.55l-1.44 2.578c-.851.061-1.736.213-2.589.213a6.9 6.9 0 0 1-4.089-1.184c-1.246-1.032-1.178-2.49-1.178-3.921v-6.485zm-5.569-1.02a3.5 3.5 0 0 1 3.536-2.168l1.213.092v3.724a8.191 8.191 0 0 0-1.7-.243 3.628 3.628 0 0 0-2.587 1.01c-.557.58-.458 1.1-.458 1.857v4.6c0 1.4-.1 2.313 1.114 3.257v.091h-7.886v-.091c1.209-.944 1.11-1.825 1.11-3.257v-7.3c0-1.4.1-2.314-1.11-3.257v-.093h4.581a4.35 4.35 0 0 0 2.092-.456h.1v2.242zm-8.436 12.517l-1.311.092a6.594 6.594 0 0 1-4.457-1.392c-1.543-1.334-1.411-2.733-1.411-4.529v-1l-1.04.458c-.811.364-1.852.821-1.852 1.824a1.951 1.951 0 0 0 1.984 1.978 4.634 4.634 0 0 0 .649-.062l-1.4 2.633-1.662.092a7.664 7.664 0 0 1-3.51-.726 4.2 4.2 0 0 1-2.162-3.553c0-5.628 8.992-3.772 8.992-6.327 0-.943-1.267-1.279-2.079-1.279a10.252 10.252 0 0 0-4.125 1l1.541-3.469a16.839 16.839 0 0 1 4.111-.428 8.18 8.18 0 0 1 4.553 1.159c1.638 1.157 1.8 2.921 1.8 4.685v2.436c0 2.038-.1 3.711 2.717 3.773l-1.342 2.633zm-36.237-12.932a4.842 4.842 0 0 1 3.973-1.756 5.063 5.063 0 0 1 3.927 1.756 6.46 6.46 0 0 1 4.793-1.756 6.8 6.8 0 0 1 4 1.152 4.023 4.023 0 0 1 1.667 3.762v6.118c0 1.4-.1 2.284 1.145 3.256v.092h-7.927v-.092c1.217-.972 1.119-1.825 1.119-3.256v-5.02c0-1.219.163-2.862-1.709-2.862-1.9 0-1.806 1.7-1.806 2.862v5.021c0 1.4-.1 2.284 1.151 3.256v.092h-7.93v-.092c1.214-.972 1.114-1.825 1.114-3.256v-4.566c0-1.276.232-3.318-1.773-3.318-2.038 0-1.741 2.069-1.741 3.322v4.571c0 1.4-.1 2.28 1.149 3.257v.091h-7.925v-.091c1.209-.976 1.114-1.825 1.114-3.257v-7.3c0-1.431.095-2.314-1.114-3.257v-.093h4.551a5.12 5.12 0 0 0 2.128-.456h.1v1.828zM196 413.355a12.042 12.042 0 0 0 6.861 2.374c1.468 0 3.458-.456 3.458-2.16 0-3.708-9.959-2.948-9.959-9.761a5.35 5.35 0 0 1 2.42-4.407 10.235 10.235 0 0 1 5.679-1.462 16.809 16.809 0 0 1 5.5.913v3.557a9.214 9.214 0 0 0-4.615-1.427c-1.274 0-2.839.518-2.839 1.946 0 1.46 1.893 2.038 3.1 2.525a16.253 16.253 0 0 1 4.357 2.279 5.6 5.6 0 0 1 2.427 4.591 5.816 5.816 0 0 1-2.623 4.93 10.7 10.7 0 0 1-6.343 1.582 18.7 18.7 0 0 1-6.337-1.094L196 413.355z" transform="translate(-60 -71) translate(60 71) translate(-196 -395.992)"/>
        </g>
    </g>
</svg>
