<svg xmlns="http://www.w3.org/2000/svg" width="168.614" height="125" viewBox="0 0 168.614 125">
  <g id="Group_30034" data-name="Group 30034" transform="translate(-119.779 -1862)">
    <path id="Path_23046" data-name="Path 23046" d="M62.5,0A62.5,62.5,0,1,1,0,62.5,62.5,62.5,0,0,1,62.5,0Z" transform="translate(140 1862)" fill="#daf5fd"/>
    <g id="form" transform="translate(175.153 1888.909)">
      <path id="Path_23762" data-name="Path 23762" d="M62.671,86.193H18.541a5.806,5.806,0,0,1-5.806-5.806V22.322a5.806,5.806,0,0,1,5.806-5.806H62.67a5.806,5.806,0,0,1,5.806,5.806V80.387A5.806,5.806,0,0,1,62.671,86.193Z" transform="translate(-12.735 -14.193)" fill="#354463"/>
      <path id="Path_23764" data-name="Path 23764" d="M91.057,49.548H46.928a1.161,1.161,0,0,0-1.161,1.161v58.065a1.161,1.161,0,0,0,1.161,1.161H80.605L92.219,98.322V50.709A1.161,1.161,0,0,0,91.057,49.548Z" transform="translate(-41.122 -42.58)" fill="#fff"/>
      <path id="Path_23766" data-name="Path 23766" d="M126.67,283.1H96.476a1.161,1.161,0,0,1-1.161-1.161h0a1.161,1.161,0,0,1,1.161-1.161H126.67a1.161,1.161,0,0,1,1.161,1.161h0A1.161,1.161,0,0,1,126.67,283.1Z" transform="translate(-83.702 -241.29)" fill="#c9c9c9"/>
      <path id="Path_23767" data-name="Path 23767" d="M120.864,324.388H96.477a1.161,1.161,0,0,1-1.161-1.161h0a1.161,1.161,0,0,1,1.161-1.161h24.387a1.161,1.161,0,0,1,1.161,1.161h0A1.161,1.161,0,0,1,120.864,324.388Z" transform="translate(-83.703 -276.775)" fill="#01d195"/>
      <path id="Path_23768" data-name="Path 23768" d="M116.219,365.678H96.477a1.161,1.161,0,0,1-1.161-1.161h0a1.161,1.161,0,0,1,1.161-1.161h19.742a1.161,1.161,0,0,1,1.161,1.161h0A1.161,1.161,0,0,1,116.219,365.678Z" transform="translate(-83.703 -312.258)" fill="#01d195"/>
      <path id="Path_23769" data-name="Path 23769" d="M155.187,8.129H138.929a2.323,2.323,0,0,1-2.323-2.323V2.323A2.323,2.323,0,0,1,138.929,0h16.258a2.323,2.323,0,0,1,2.323,2.323V5.806A2.322,2.322,0,0,1,155.187,8.129Z" transform="translate(-119.187)" fill="#ffc402"/>
      <path id="Path_23770" data-name="Path 23770" d="M294.67,396.387a1.161,1.161,0,0,0-1.161,1.161V408l11.613-11.613Z" transform="translate(-254.025 -340.645)" fill="#79e2f3"/>
      <path id="Path_23775" data-name="Path 23775" d="M155.187,27.1H138.929a2.323,2.323,0,0,1-2.323-2.323V27.1a2.323,2.323,0,0,0,2.323,2.323h16.258a2.323,2.323,0,0,0,2.323-2.323V24.774A2.322,2.322,0,0,1,155.187,27.1Z" transform="translate(-119.187 -21.29)" fill="#ffdc00"/>
      <path id="id" d="M74.778,283.193a1.476,1.476,0,0,1-1.432-1.124,5.374,5.374,0,0,0-10.437,0,1.476,1.476,0,1,1-2.867-.705,8.31,8.31,0,0,1,3.921-5.225,5.72,5.72,0,1,1,8.329,0,8.308,8.308,0,0,1,3.921,5.226,1.477,1.477,0,0,1-1.435,1.829Zm-6.651-13.741A2.768,2.768,0,1,0,70.9,272.22,2.771,2.771,0,0,0,68.127,269.452Z" transform="translate(-40.28 -251.176)" fill="#c9c9c9"/>
    </g>
    <g id="Tick" transform="translate(-311.997 1663.402)">
      <path id="Ellipse_11" data-name="Ellipse 11" d="M14.522,0A14.3,14.3,0,0,1,28.955,14.172,14.3,14.3,0,0,1,14.522,28.344c-7.971,0-12.746-5.959-12.746-13.786S6.55,0,14.522,0Z" transform="translate(531.291 215.337)" fill="#fff"/>
      <path id="Path_222" data-name="Path 222" d="M556.21,427.611a18,18,0,1,1-18-18A18,18,0,0,1,556.21,427.611Zm-20.08,9.528,13.352-13.352a1.16,1.16,0,0,0,0-1.643l-1.643-1.631a1.158,1.158,0,0,0-1.641,0l-10.89,10.89-5.085-5.1a1.165,1.165,0,0,0-1.643,0l-1.643,1.653a1.165,1.165,0,0,0,0,1.643l7.549,7.547a1.16,1.16,0,0,0,1.643,0Z" transform="translate(8.707 -199.012)" fill="#01d195"/>
    </g>
    <path id="Path_25665" data-name="Path 25665" d="M536.351,223.76h-.779c-.159,0-.551-.623-.551-.8v-.724c0-.565-.639-2.115-1.2-2.115s-1.2,1.55-1.2,2.115v.724c0,.255-.2.8-.437.8h-.78c-.565,0-2.115.438-2.115,1s1.55,1,2.115,1h.93c.294,0,.287.3.287.457v.966c0,.565.639,2.115,1.2,2.115s1.2-1.55,1.2-2.115v-.966c0-.128.258-.457.4-.457h.93c.565,0,2.116-.438,2.116-1S536.916,223.76,536.351,223.76Z" transform="translate(-376.835 1644.763)" fill="#ffc402"/>
    <path id="Path_25666" data-name="Path 25666" d="M711.449,256.95h-.757c-.154,0-.605-.6-.605-.773v-.7c0-.549-.675-2.055-1.224-2.055s-1.224,1.506-1.224,2.055v.7c0,.247-.014.773-.247.773h-.757c-.549,0-2.055.369-2.055.918s1.506.918,2.055.918h.9c.286,0,.1.414.1.564v.938c0,.549.675,2.055,1.224,2.055s1.224-1.506,1.224-2.055v-.938c0-.124.32-.564.459-.564h.9c.549,0,2.055-.369,2.055-.918S712,256.95,711.449,256.95Z" transform="translate(-456.13 1716.029)" fill="#ffc402"/>
    <ellipse id="Ellipse_2284" data-name="Ellipse 2284" cx="2.492" cy="2.492" rx="2.492" ry="2.492" transform="translate(143.222 1964.888)" fill="#84ead2" opacity="0.7"/>
    <ellipse id="Ellipse_2285" data-name="Ellipse 2285" cx="3.696" cy="3.696" rx="3.696" ry="3.696" transform="translate(119.779 1910.033)" fill="#79e2f3"/>
    <ellipse id="Ellipse_2286" data-name="Ellipse 2286" cx="3.489" cy="3.488" rx="3.489" ry="3.488" transform="translate(267.614 1892.437)" fill="#79e2f3"/>
    <ellipse id="Ellipse_2287" data-name="Ellipse 2287" cx="3.696" cy="3.696" rx="3.696" ry="3.696" transform="translate(281 1944.804)" fill="#84ead2"/>
  </g>
</svg>
