<svg xmlns="http://www.w3.org/2000/svg" width="15.205" height="16" viewBox="0 0 15.205 16">
    <defs>
        <style>
            .cls-1{fill:#97a2a8}
        </style>
    </defs>
    <g id="Group_23423" data-name="Group 23423" transform="translate(-14905 -5416.328)">
        <path id="Path_23515" d="M115.115 153.193a4.241 4.241 0 1 1-4.223-3.861 4.054 4.054 0 0 1 4.223 3.861zm0 0" class="cls-1" data-name="Path 23515" transform="translate(14801.711 5266.996)"/>
        <path id="Path_23516" d="M74.559 277.332h-5.913A4.929 4.929 0 0 0 64 282.5v.939a1.344 1.344 0 0 0 1.267 1.408h12.671a1.344 1.344 0 0 0 1.267-1.408v-.939a4.929 4.929 0 0 0-4.646-5.168zm0 0" class="cls-1" data-name="Path 23516" transform="translate(14841 5147.485)"/>
    </g>
</svg>
