<svg xmlns="http://www.w3.org/2000/svg" id="w_icon_petromiles_earned_wc" width="56" height="56" viewBox="0 0 56 56">
    <defs>
        <style>
            .cls-3{fill:#00b14b;stroke:#00b14b;stroke-width:.1px}
        </style>
    </defs>
    <circle id="Ellipse_2279" cx="28" cy="28" r="28" fill="#ddfdf4"/>
    <g id="w_icon_reedemed_value" transform="translate(10 10)">
        <path id="Rectangle_21843" fill="none" d="M0 0H36V36H0z"/>
        <g id="Group_31185" transform="translate(4 .999)">
            <g id="rupee" transform="translate(10.083 5.999)">
                <path id="Path_26027" d="M-471.2 228.893h-4.2l-.517.9.517 1.093a2.517 2.517 0 0 1 1.123 1.341h-1.123l-.517.835.517.835h1.123a2.518 2.518 0 0 1-1.123 1.341l-.517 1.019.517.8a4.187 4.187 0 0 0 2.851-3.15h1.35v-1.673h-1.35a4.156 4.156 0 0 0-.752-1.67h2.1v-1.67z" class="cls-3" transform="translate(479.6 -228.893)"/>
                <path id="Path_26028" d="M-474.708 366.911l1.18-1.18-1.872-1.87-.517.829.517 1.533z" class="cls-3" transform="translate(479.6 -353.674)"/>
                <g id="Group_30474">
                    <path id="Path_26029" d="M-521.749 313.35h-2.963v1.67l4.2 4.2v-2.36l-1.84-1.84h.6a4.155 4.155 0 0 0 1.237-.188v-1.81a2.488 2.488 0 0 1-1.234.328z" class="cls-3" transform="translate(524.712 -306.672)"/>
                    <path id="Path_26030" d="M-524.712 273.117h4.2v1.668h-4.2z" class="cls-3" transform="translate(524.712 -269.779)"/>
                    <path id="Path_26031" d="M-521.749 228.893h-2.963v1.67h2.963a2.487 2.487 0 0 1 1.237.329v-2z" class="cls-3" transform="translate(524.712 -228.893)"/>
                </g>
            </g>
            <path id="Path_26757" fill="#00b14b" stroke="#ddfdf4" stroke-width="0.7px" d="M-638.73 169.5h.514c1.4 0 1.725.331 1.725 1.742 0 .87.013 1.74-.006 2.609-.007.331.112.429.433.424.994-.015 1.988-.008 2.982 0a1.219 1.219 0 0 1 1.361 1.36q.007 2.18 0 4.361a1.224 1.224 0 0 1-1.387 1.371h-21.022a1.224 1.224 0 0 1-1.38-1.377c0-.969-.015-1.938.006-2.907.008-.367-.094-.5-.48-.493-.969.025-1.938.01-2.907.007a1.232 1.232 0 0 1-1.39-1.406v-4.286a1.228 1.228 0 0 1 1.395-1.4h5.745c-3.943-3.38-5.532-7.5-4.362-12.505a11.3 11.3 0 0 1 4.58-6.725 11.83 11.83 0 0 1 15.269 1.207 11.469 11.469 0 0 1 3.5 9.211 11.8 11.8 0 0 1-4.633 8.713zm-7.267 0a9.553 9.553 0 0 0 9.568-9.5 9.549 9.549 0 0 0-9.578-9.642 9.551 9.551 0 0 0-9.568 9.5A9.554 9.554 0 0 0-646 169.5zm-2.352 2.323h-3.727c-1.814 0-3.627.007-5.441-.006-.338 0-.466.1-.449.446.023.471 0 .944.006 1.416 0 .59 0 .591.59.591h14.647c1.168 0 2.336-.008 3.5 0 .3 0 .421-.1.411-.407-.018-.509 0-1.018 0-1.528s0-.516-.516-.516zm4.731 4.771h-8.646c-.211 0-.422.006-.633 0s-.292.087-.291.291q.006.931 0 1.863c0 .2.094.294.294.289h18.185c.112 0 .224-.008.335 0 .24.015.332-.1.329-.332-.008-.534 0-1.068 0-1.6 0-.51 0-.512-.519-.513z" transform="translate(660.283 -148.036)"/>
        </g>
    </g>
</svg>
