<svg xmlns="http://www.w3.org/2000/svg" width="57.25" height="57.25" viewBox="0 0 57.25 57.25">
    <defs>
        <style>
            .cls-2{fill:#ff6c00;stroke:#ff6c00;stroke-width:.3px}.cls-4{fill:none}
        </style>
    </defs>
    <g id="w_icon_petromiles_earned_wc" transform="translate(1.25 1.25)">
        <circle id="Ellipse_2279" cx="28" cy="28" r="28" fill="#fff0dd"/>
        <g id="w_icon_petromiles_earned" transform="translate(12.25 12.25)">
            <g id="iconfinder_get-money_3338979" transform="translate(.875 1.751)">
                <path id="Path_26032" d="M29.482 27.926c-.869-1.211-1.75-1.23-3.956-.069l-4.277 2.613a8.566 8.566 0 0 1-3.2.46 1.647 1.647 0 0 0-.3-1.656 4.113 4.113 0 0 0-1.546-1.368 4.415 4.415 0 0 0 1.642-3.444 4.463 4.463 0 1 0-8.416 2.061l-.019-.013c-1.78-1.342-4.754-1.532-5.944-1.552v-1.5H0v15.879h3.471v-1.488h6.446a20.3 20.3 0 0 0 3.033-.229l6.428-.977a3.357 3.357 0 0 0 .682-.078 3.006 3.006 0 0 0 1.637-.818l7.516-5.853.011-.009a1.451 1.451 0 0 0 .258-1.959zm-17.993-.564a3.47 3.47 0 1 1 3.559.144c-.061-.012-.124-.018-.186-.027s-.123-.02-.186-.027a4.414 4.414 0 0 0-.486-.029h-1.934a4.926 4.926 0 0 1-.767-.061zm-9.01 10.983H.992v-13.9h1.487v13.9zM28.6 29.117l-7.528 5.862-.038.033a2.074 2.074 0 0 1-1.157.579 2.468 2.468 0 0 1-.535.06l-6.542.989a19.232 19.232 0 0 1-2.883.218H3.471V25.95c1.1.023 3.821.2 5.347 1.351a5.565 5.565 0 0 0 2.3 1h.007l.094.016h.014c.163.028.327.05.493.064h.016c.169.014.338.023.509.023h1.939a3.481 3.481 0 0 1 .81.1l.032.008a3.193 3.193 0 0 1 1.9 1.308c.209.311.291.569.221.691-.132.229-.747.37-1.37.4-.2 0-.388-.006-.55-.006h-4.82c-1.552 0-2.479.741-2.479 1.983a.5.5 0 0 0 .992 0c0-.245 0-.992 1.488-.992h4.807c.113.007.329.016.6.006h.264c2.327.043 4.509.031 5.657-.58l4.273-2.613c2.045-1.074 2.251-.786 2.661-.214a.457.457 0 0 1-.076.622z" class="cls-2" transform="translate(0 -10.578)"/>
                <path id="Path_26033" d="M26.958 26.478a2.479 2.479 0 1 0-2.479 2.479 2.482 2.482 0 0 0 2.479-2.479zm-2.479 1.488a1.488 1.488 0 1 1 1.488-1.488 1.489 1.489 0 0 1-1.488 1.488z" class="cls-2" transform="translate(-11.091 -12.595)"/>
                <path id="Path_26034" d="M37.463 9.924A4.463 4.463 0 1 0 33 5.462a4.468 4.468 0 0 0 4.463 4.462zm0-7.934a3.471 3.471 0 1 1-3.471 3.471 3.475 3.475 0 0 1 3.471-3.47z" class="cls-2" transform="translate(-16.637 -.999)"/>
                <path id="Path_26035" d="M39.479 9.957A2.479 2.479 0 1 0 37 7.478a2.482 2.482 0 0 0 2.479 2.479zm0-3.967a1.488 1.488 0 1 1-1.488 1.488 1.489 1.489 0 0 1 1.488-1.487z" class="cls-2" transform="translate(-18.654 -3.016)"/>
            </g>
            <g id="W_Icon_Gift" transform="translate(-13.5 -13.5)">
                <g id="Group_23191" style="isolation:isolate">
                    <g id="Group_23171">
                        <g id="Group_23169">
                            <path id="Rectangle_21035" d="M0 0H36V36H0z" class="cls-4"/>
                        </g>
                    </g>
                    <g id="Group_23172">
                        <g id="Group_23169-2">
                            <path id="Rectangle_21035-2" d="M0 0H36V36H0z" class="cls-4"/>
                        </g>
                    </g>
                </g>
            </g>
        </g>
    </g>
</svg>
