<svg xmlns="http://www.w3.org/2000/svg" width="59.5" height="59.5" viewBox="0 0 59.5 59.5">
    <defs>
        <style>
            .cls-4{fill:none}
        </style>
    </defs>
    <g id="w_icon_redeemable_petromiles" transform="translate(3.5 3.5)">
        <path id="Path_26058" fill="#ecf7ff" d="M28 0A28 28 0 1 1 0 28 28 28 0 0 1 28 0z"/>
        <g id="w_icon_petromiles" transform="translate(12.25 12.25)">
            <path id="Path_26057" fill="#0369dd" stroke="#0369dd" stroke-width="0.4px" d="M36.608 8.516h-5.443V7.439a.606.606 0 0 0-.6-.608H13.234a.606.606 0 0 0-.6.608v1.077H7.189a.606.606 0 0 0-.6.608v5.917a6.369 6.369 0 0 0 6.331 6.392.559.559 0 0 0 .132-.027 8.472 8.472 0 0 0 6.975 5.812c-.075 2.52-.658 4.316-1.711 5.195a2.6 2.6 0 0 1-1.265.58H16.2a.55.55 0 0 0-.057.012.563.563 0 0 0-.124.026.549.549 0 0 0-.2.109.563.563 0 0 0-.077.075.62.62 0 0 0-.112.208.539.539 0 0 0-.023.054.293.293 0 0 0 0 .061c0 .019-.012.041-.012.061v3.248a.606.606 0 0 0 .6.608H27.59a.605.605 0 0 0 .6-.608v-3.011a.587.587 0 0 0-.041-.568.574.574 0 0 0-.5-.261.546.546 0 0 0-.06-.013h-.783a2.594 2.594 0 0 1-1.265-.58c-1.054-.88-1.637-2.677-1.711-5.2a8.471 8.471 0 0 0 6.915-5.8.57.57 0 0 0 .133.027 6.369 6.369 0 0 0 6.333-6.393V9.124a.606.606 0 0 0-.603-.608zM7.791 15.041V9.733h4.841v9.04a8.608 8.608 0 0 0 .129 1.436 5.155 5.155 0 0 1-4.97-5.168zm9.019 21.2v-2c.1 0 .208-.013.324-.028h9.589c.093.012.181.021.265.026v2zm7.6-3.248h-4.966c1.1-1.169 1.7-3.084 1.78-5.7h1.406c.083 2.617.679 4.532 1.782 5.701zm5.55-14.22a7.274 7.274 0 0 1-7.23 7.3h-1.663a7.274 7.274 0 0 1-7.23-7.3V8.048H29.96zm6.046-3.732a5.155 5.155 0 0 1-4.97 5.168 8.607 8.607 0 0 0 .129-1.436v-9.04h4.841zm-16.69 2.383l-.422 2.339a.611.611 0 0 0 .233.6.6.6 0 0 0 .634.053l2.1-1.084 2.073 1.129a.6.6 0 0 0 .635-.039.611.611 0 0 0 .246-.592l-.374-2.348 1.7-1.643a.613.613 0 0 0 .159-.622.6.6 0 0 0-.482-.419l-2.327-.365-1.019-2.144a.6.6 0 0 0-.537-.344.662.662 0 0 0-.542.333l-1.068 2.12-2.334.317a.6.6 0 0 0-.491.409.613.613 0 0 0 .146.626zm1.484-1.866a.6.6 0 0 0 .457-.328l.656-1.307.628 1.321a.6.6 0 0 0 .45.338l1.434.226-1.05 1.011a.612.612 0 0 0-.181.537l.23 1.447-1.277-.7a.6.6 0 0 0-.561-.006l-1.291.669.26-1.441a.612.612 0 0 0-.164-.538l-1.028-1.034z" transform="translate(-6.148 -6.392)"/>
            <g id="W_Icon_Gift" transform="translate(-15.75 -15.75)">
                <g id="Group_23191" style="isolation:isolate">
                    <g id="Group_23171">
                        <g id="Group_23169">
                            <path id="Rectangle_21035" d="M0 0H36V36H0z" class="cls-4"/>
                        </g>
                    </g>
                    <g id="Group_23172">
                        <g id="Group_23169-2">
                            <path id="Rectangle_21035-2" d="M0 0H36V36H0z" class="cls-4"/>
                        </g>
                    </g>
                </g>
            </g>
        </g>
    </g>
</svg>
