<svg xmlns="http://www.w3.org/2000/svg" width="36" height="36" viewBox="0 0 36 36">
    <rect width="36" height="36" fill="rgba(3,105,221,0.1)" rx="4"/>
    <g>
        <g>
            <g>
                <path fill="#0369dd" stroke="#0369dd" stroke-width="0.5px" d="M15.8 14.826l1.544-1.544a2.256 2.256 0 0 0 0-3.186 2.306 2.306 0 0 0-3.186 0l-2.266 2.266C1.775 22.5 1.943 22.327 1.322 22.93l-.473.47L0 27.438l4.037-.849a9.629 9.629 0 0 0 .777-.774c.144-.2.021.026 3.511-3.3 3.7-3.879 2.246-2.387 3.669-3.89l2.882-2.882zm-.8-3.884a1.082 1.082 0 0 1 1.495 0 1.058 1.058 0 0 1 0 1.495l-.825.825-1.495-1.495zM7.027 21.906c-3.078 3.064.022-.02-3.05 3.05l-.538.538-1.893.4L1.944 24l1.2-1.2c-.536.543-.014 0 .64-.64l9.551-9.551 1.495 1.495z" transform="translate(-314 -314) translate(323 323) translate(0 -9.458)"/>
            </g>
        </g>
        <path fill="none" stroke="#0369dd" stroke-linecap="round" stroke-width="1.75px" d="M328.4 340.98a5.377 5.377 0 0 1 5.66 0c2.829 1.865 5.293-1.083 5.293-1.083" transform="translate(-314 -314) translate(1.647 -1)"/>
    </g>
</svg>
