<svg xmlns="http://www.w3.org/2000/svg" width="36" height="36" viewBox="0 0 36 36">
    <rect width="36" height="36" fill="#0369dd" opacity="0.103" rx="4"/>
    <g>
        <g>
            <path fill="#0369dd" stroke="#0369dd" stroke-width="0.5px" d="M18.242 33.344h-3.523l-.648-1.944a.586.586 0 0 0-.556-.4H6.484a.586.586 0 0 0-.556.4l-.648 1.943H1.758A1.76 1.76 0 0 0 0 35.1v3.516a.586.586 0 0 0 .325.525l.261.13v7.549a1.76 1.76 0 0 0 1.758 1.758h15.312a1.76 1.76 0 0 0 1.758-1.758v-7.548l.261-.13a.586.586 0 0 0 .325-.525V35.1a1.76 1.76 0 0 0-1.758-1.756zM6.907 32.172h6.187l.391 1.172H6.516zM18.242 46.82a.587.587 0 0 1-.586.586H2.344a.587.587 0 0 1-.586-.586v-6.966l5.355 2.663a1.76 1.76 0 0 0 1.715 1.373h2.344a1.76 1.76 0 0 0 1.715-1.373l5.355-2.663zm-10-4.687a.587.587 0 0 1 .586-.586h2.344a.586.586 0 0 1 0 1.172H8.828a.587.587 0 0 1-.586-.586zm10.586-3.879l-6.112 3.039a1.759 1.759 0 0 0-1.544-.918H8.828a1.759 1.759 0 0 0-1.544.918l-6.112-3.039V35.1a.587.587 0 0 1 .586-.586h16.484a.587.587 0 0 1 .586.586z" transform="translate(8 -22) translate(0 31) translate(0 -31)"/>
        </g>
    </g>
</svg>
