<svg xmlns="http://www.w3.org/2000/svg" id="W_Icon_Header_Petrol_pump" width="22" height="22" data-name="W/Icon/Header/Petrol pump" viewBox="0 0 22 22">
    <defs>
        <style>
            .cls-1{fill:#fff}
        </style>
    </defs>
    <path id="Path_23024" d="M151.038 60.95h-6.033A1.007 1.007 0 0 1 144 59.945v-2.94A1.007 1.007 0 0 1 145.005 56h6.033a1.007 1.007 0 0 1 1.005 1.005v2.939a1.007 1.007 0 0 1-1.005 1.006zm-5.8-1.238h5.569v-2.474h-5.569zm5.8-2.475z" class="cls-1" data-name="Path 23024" transform="translate(-137.668 -52.834)"/>
    <path id="Path_23025" d="M178.784 215.116a2.788 2.788 0 0 1-2.784-2.785 5.324 5.324 0 0 1 1.194-2.658c.553-.8 1.1-1.431 1.122-1.458a.619.619 0 0 1 .938 0c.023.027.569.662 1.122 1.458a5.324 5.324 0 0 1 1.194 2.658 2.788 2.788 0 0 1-2.786 2.785zm0-5.518a7.336 7.336 0 0 0-1.547 2.733 1.547 1.547 0 0 0 3.094 0 7.323 7.323 0 0 0-1.546-2.731z" class="cls-1" data-name="Path 23025" transform="translate(-168.431 -198.956)"/>
    <path id="Path_23026" d="M48.467 12.828a4.458 4.458 0 0 0 .858-2.639V4.95a.619.619 0 0 0-.342-.553L46.85 3.33V1.779A1.781 1.781 0 0 0 45.071 0h-9.436a1.781 1.781 0 0 0-1.779 1.779v14.309h-.851A1.007 1.007 0 0 0 32 17.093v1.7a1.007 1.007 0 0 0 1.005 1.007H47.7a1.007 1.007 0 0 0 1.005-1.005v-1.7a1.007 1.007 0 0 0-1.005-1.007h-.85v-1.037zm-.38-7.5v4.857a3.229 3.229 0 0 1-.621 1.911l-.616.847V4.714zm-.619 13.23H33.237v-1.233h14.232zm-12.374-2.47V1.779a.542.542 0 0 1 .541-.541h9.436a.542.542 0 0 1 .541.541v14.309z" class="cls-1" data-name="Path 23026" transform="translate(-30 1)"/>
    <path id="Rectangle_21093" fill="none" d="M0 0H22V22H0z" data-name="Rectangle 21093"/>
</svg>
