<svg xmlns="http://www.w3.org/2000/svg" id="W_Icons_Complaints" width="20" height="20" viewBox="0 0 20 20">
    <defs>
        <style>
            .cls-2{fill:#0369dd;stroke:#0369dd;stroke-width:.5px}
        </style>
    </defs>
    <path id="Rectangle_21391" fill="none" d="M0 0H20V20H0z"/>
    <g id="noun_feedback_2044720" transform="translate(.5 1.4)">
        <g id="Group_28911">
            <path id="Path_25458" d="M60.411 14.039l-1.9-1.9a.475.475 0 0 0-.672 0l-5.7 5.7a.475.475 0 0 0-.139.336v1.9a.475.475 0 0 0 .475.475h1.9a.475.475 0 0 0 .336-.139l5.7-5.7a.475.475 0 0 0 0-.672zM54.178 19.6H52.95v-1.228l5.225-5.225 1.225 1.228z" class="cls-2" transform="translate(-41.55 -12)"/>
            <path id="Path_25459" d="M25.225 32h-4.75a.475.475 0 1 0 0 .95h4.75a.475.475 0 0 0 0-.95z" class="cls-2" transform="translate(-17.15 -27.25)"/>
            <path id="Path_25460" d="M20.475 44.95h4.75a.475.475 0 1 0 0-.95h-4.75a.475.475 0 1 0 0 .95z" class="cls-2" transform="translate(-17.15 -36.4)"/>
            <path id="Path_25461" d="M20.475 56.95h9.5a.475.475 0 1 0 0-.95h-9.5a.475.475 0 1 0 0 .95z" class="cls-2" transform="translate(-17.15 -45.55)"/>
            <path id="Path_25462" d="M23.675 26.65a.475.475 0 0 0-.475.475v2.85a1.427 1.427 0 0 1-1.425 1.425h-4.75a.474.474 0 0 0-.285.095l-3.04 2.28v-1.9a.475.475 0 0 0-.475-.475h-2.85a1.427 1.427 0 0 1-1.425-1.425v-7.6a1.427 1.427 0 0 1 1.425-1.425h8.55a.475.475 0 1 0 0-.95h-8.55A2.378 2.378 0 0 0 8 22.375v7.6a2.378 2.378 0 0 0 2.375 2.375h2.375v2.375a.475.475 0 0 0 .76.38l3.673-2.755h4.592a2.378 2.378 0 0 0 2.375-2.375v-2.85a.475.475 0 0 0-.475-.475z" class="cls-2" transform="translate(-8 -18.1)"/>
        </g>
    </g>
</svg>
