<svg xmlns="http://www.w3.org/2000/svg" id="W_Icon_Settings" width="20" height="20" viewBox="0 0 20 20">
    <defs>
        <style>
            .cls-2{fill:none;stroke:#0369dd;stroke-linecap:round;stroke-linejoin:round;stroke-width:1.75px}
        </style>
    </defs>
    <g id="Group_23192" transform="translate(4003 3957)" style="isolation:isolate">
        <g id="settings" transform="translate(-4002 -3956)">
            <circle id="Ellipse_10" cx="3" cy="3" r="3" class="cls-2" transform="translate(6 6)"/>
            <path id="Path_22924" d="M16.055 12.455a1.35 1.35 0 0 0 .27 1.489l.049.049a1.637 1.637 0 1 1-2.315 2.315l-.049-.049a1.361 1.361 0 0 0-2.307.965v.139a1.636 1.636 0 1 1-3.273 0v-.073a1.35 1.35 0 0 0-.884-1.235 1.35 1.35 0 0 0-1.489.27l-.049.049a1.637 1.637 0 1 1-2.315-2.315l.049-.049a1.361 1.361 0 0 0-.967-2.31h-.139a1.636 1.636 0 1 1 0-3.273h.074a1.35 1.35 0 0 0 1.235-.884 1.35 1.35 0 0 0-.27-1.489l-.049-.049a1.637 1.637 0 1 1 2.316-2.313l.049.049a1.35 1.35 0 0 0 1.489.27h.065a1.35 1.35 0 0 0 .818-1.235v-.14a1.636 1.636 0 1 1 3.273 0v.074a1.361 1.361 0 0 0 2.307.965l.049-.049a1.637 1.637 0 1 1 2.315 2.315l-.049.049a1.35 1.35 0 0 0-.27 1.489v.065a1.35 1.35 0 0 0 1.235.818h.139a1.636 1.636 0 1 1 0 3.273h-.072a1.35 1.35 0 0 0-1.235.82z" class="cls-2" transform="translate(-1 -1)"/>
        </g>
        <g id="Group_23165" transform="translate(-4003 -3957)">
            <path id="Rectangle_21035" fill="none" d="M0 0H20V20H0z"/>
        </g>
    </g>
</svg>
