<svg xmlns="http://www.w3.org/2000/svg" id="W_Icon_Header_Language" width="20" height="20" data-name="W/Icon/Header/Language" viewBox="0 0 20 20">
    <defs>
        <style>
            .cls-2{fill:#fff}
        </style>
    </defs>
    <g id="W_Icon_Header_Language-2" data-name="W/Icon/Header/Language">
        <path id="Rectangle_21094" fill="none" d="M0 0H20V20H0z" data-name="Rectangle 21094"/>
        <path id="Path_23098" d="M3.511 0L2.3-3.37h-4.64L-3.528 0H-5.62l4.541-12.186h2.158L5.62 0zM1.776-5.08L.639-8.384Q.515-8.716.295-9.43t-.3-1.046a18.6 18.6 0 0 1-.659 2.233L-1.76-5.08z" class="cls-2" data-name="Path 23098" transform="translate(5.62 17.896)"/>
        <path id="Path_23097" d="M2.338 0l-.413-1.354h-.07A3.982 3.982 0 0 1 .439-.145a4.475 4.475 0 0 1-1.828.321A3.094 3.094 0 0 1-3.625-.6a2.894 2.894 0 0 1-.8-2.188 2.57 2.57 0 0 1 1.112-2.266 6.436 6.436 0 0 1 3.4-.835l1.679-.053v-.518a1.965 1.965 0 0 0-.435-1.393 1.774 1.774 0 0 0-1.349-.461 4.665 4.665 0 0 0-1.433.22 10.811 10.811 0 0 0-1.318.519l-.668-1.477a7.189 7.189 0 0 1 1.731-.628A7.968 7.968 0 0 1 .07-9.9a4.2 4.2 0 0 1 2.8.809 3.166 3.166 0 0 1 .945 2.54V0zM-.738-1.406a2.558 2.558 0 0 0 1.806-.628A2.278 2.278 0 0 0 1.749-3.8v-.844L.5-4.588a4.27 4.27 0 0 0-2.122.488 1.482 1.482 0 0 0-.664 1.332A1.3 1.3 0 0 0-1.9-1.762a1.661 1.661 0 0 0 1.162.356z" class="cls-2" data-name="Path 23097" transform="translate(15.62 12.896)"/>
    </g>
</svg>
