<svg xmlns="http://www.w3.org/2000/svg" width="20" height="20" viewBox="0 0 20 20">
    <g>
        <g>
            <path fill="#6e7a93" d="M14.238 9.035a2.109 2.109 0 1 0 0 4.219H17.296a.7.7 0 0 0 .7-.7V7.032a2.81 2.81 0 0 0-1.166-2.278L14.442.83a.7.7 0 0 0-.971-.23l-1.764 1.092-.8-1.346A.7.7 0 0 0 9.941.1L3.168 4.219H2.109a.7.7 0 0 1-.7-.686.7.7 0 0 1 .7-.686h1.3a.7.7 0 0 0 0-1.406h-1.3A2.113 2.113 0 0 0 .057 3.062.7.7 0 0 0 0 3.34v11.848A2.816 2.816 0 0 0 2.812 18h12.375a2.809 2.809 0 0 0 2.668-1.922.7.7 0 0 0-1.334-.445 1.4 1.4 0 0 1-1.334.961H2.812a1.408 1.408 0 0 1-1.406-1.406V5.5a2.1 2.1 0 0 0 .7.121h13.081a1.408 1.408 0 0 1 1.406 1.406v2zm2.355 2.812h-2.355a.7.7 0 0 1 0-1.406h2.355zM5.876 4.219l4.188-2.545.749 1.267a.7.7 0 0 0 .051.1.713.713 0 0 0 .05.07l.654 1.107zm7.325 0L12.423 2.9l1.187-.736 1.251 2.052z" transform="translate(1 1)"/>
        </g>
    </g>
    <path fill="none" d="M0 0H20V20H0z"/>
</svg>
