<svg xmlns="http://www.w3.org/2000/svg" id="w_illustrations_card-added-web" width="404.567" height="128" viewBox="0 0 404.567 128">
    <defs>
        <style>
            .cls-2{fill:#005cad}.cls-3{fill:#08f}.cls-4{fill:#7abbf2}.cls-5{fill:#fff}
        </style>
    </defs>
    <g id="WM_Illus-B2B_Individual-card" transform="translate(144.001 10)">
        <g id="W_Illustrations_Payment_Successful">
            <g id="Group_23458">
                <g id="Group_23453">
                    <circle id="Ellipse_2217" cx="59" cy="59" r="59" fill="#daf5fd"/>
                </g>
            </g>
        </g>
        <g id="Group_30393" transform="translate(28.32 33.04)">
            <g id="credit-card_1_">
                <path id="Path_25876" d="M77.907 85.461l3.668-23.421a4.36 4.36 0 0 0-3.613-5L28.467 49.1a4.358 4.358 0 0 0-4.994 3.612l-1.759 10.954v21.659z" class="cls-2" transform="translate(-19.06 -49.045)"/>
                <path id="Path_25878" d="M4.359 159.771h50.128a4.359 4.359 0 0 1 4.359 4.359v28.333a4.359 4.359 0 0 1-4.359 4.359H4.359A4.359 4.359 0 0 1 0 192.463V164.13a4.359 4.359 0 0 1 4.359-4.359z" class="cls-3" transform="translate(0 -146.24)"/>
                <path id="Path_26025" d="M0 0h10.9v8.718H0z" class="cls-4" transform="translate(5.449 18.98)"/>
                <g id="Group_29825" transform="translate(5.449 22.249)">
                    <path id="Rectangle_21583" d="M0 0H3.269V2.179H0z" class="cls-3"/>
                    <path id="Rectangle_21584" d="M0 0H3.269V2.179H0z" class="cls-3" transform="translate(7.628)"/>
                </g>
                <g id="Group_29826" transform="translate(4.359 18.98)">
                    <path id="Rectangle_21585" d="M0 0H6.538V2.179H0z" class="cls-5" transform="translate(0 16.346)"/>
                    <path id="Rectangle_21586" d="M0 0H6.538V2.179H0z" class="cls-5" transform="translate(10.897 16.346)"/>
                    <path id="Rectangle_21587" d="M0 0H6.538V2.179H0z" class="cls-5" transform="translate(21.795 16.346)"/>
                    <path id="Rectangle_21588" d="M0 0H28.333V2.179H0z" class="cls-5" transform="translate(0 22.885)"/>
                    <path id="Rectangle_21589" d="M0 0H2.179V4.359H0z" class="cls-5" transform="translate(33.782)"/>
                    <path id="Rectangle_21590" d="M0 0H2.179V4.359H0z" class="cls-5" transform="translate(38.141)"/>
                    <path id="Rectangle_21591" d="M0 0H2.179V4.359H0z" class="cls-5" transform="translate(42.5)"/>
                    <path id="Rectangle_21592" d="M0 0H2.179V4.359H0z" class="cls-5" transform="translate(46.859)"/>
                </g>
            </g>
        </g>
    </g>
    <g id="W_Illustrations_Smartfleet" transform="translate(217.921)">
        <g id="Tick" transform="translate(-528.917 -210.598)">
            <path id="Ellipse_11" d="M16.649 0a16.692 16.692 0 0 1 16.842 16.537 16.692 16.692 0 0 1-16.842 16.538c-9.3 0-14.873-6.953-14.873-16.086S7.347 0 16.649 0z" class="cls-5" transform="translate(531.984 216.128)"/>
            <path id="Path_222" fill="#01d195" d="M562.218 430.615a21 21 0 1 1-21-21 21 21 0 0 1 21 21zm-23.431 11.118l15.581-15.581a1.354 1.354 0 0 0 0-1.917l-1.917-1.9a1.351 1.351 0 0 0-1.914 0l-12.709 12.705-5.933-5.947a1.359 1.359 0 0 0-1.917 0l-1.917 1.928a1.359 1.359 0 0 0 0 1.917l8.809 8.806a1.354 1.354 0 0 0 1.917 0z" transform="translate(8.707 -199.012)"/>
        </g>
    </g>
    <g id="undraw_Astronaut_xko2" transform="translate(-107.659 -130.003)">
        <path id="Path_23135" d="M536.351 223.76h-.779c-.159 0-.551-.623-.551-.8v-.724c0-.565-.639-2.115-1.2-2.115s-1.2 1.55-1.2 2.115v.724c0 .255-.2.8-.437.8h-.78c-.565 0-2.115.438-2.115 1s1.55 1 2.115 1h.93c.294 0 .287.3.287.457v.966c0 .565.639 2.115 1.2 2.115s1.2-1.55 1.2-2.115v-.966c0-.128.258-.457.4-.457h.93c.565 0 2.116-.438 2.116-1s-1.551-1-2.116-1z" class="cls-2" transform="translate(-292.176 -70.234)"/>
        <path id="Path_23139" d="M712.7 257.593h-.9c-.182 0-.715-.708-.715-.914v-.832c0-.649-.8-2.429-1.447-2.429s-1.447 1.78-1.447 2.429v.832c0 .293-.017.914-.293.914h-.9c-.649 0-2.43.436-2.43 1.085s1.781 1.085 2.43 1.085h1.068c.338 0 .12.49.12.667v1.109c0 .649.8 2.429 1.447 2.429s1.447-1.78 1.447-2.429v-1.109c0-.147.379-.667.543-.667h1.077c.649 0 2.43-.436 2.43-1.085s-1.779-1.085-2.43-1.085z" class="cls-3" transform="translate(-329.285 -54.781)"/>
        <path id="Path_23142" d="M362.889 314.689h-.916c-.187 0-.732-.724-.732-.935v-.854c0-.664-.816-2.485-1.48-2.485s-1.48 1.821-1.48 2.485v.851c0 .3-.017.935-.3.935h-.916c-.664 0-2.486.446-2.486 1.11s1.822 1.11 2.486 1.11h1.092c.346 0 .123.5.123.682v1.135c0 .664.816 2.485 1.48 2.485s1.48-1.821 1.48-2.485v-1.135c0-.15.388-.682.555-.682h1.092c.664 0 2.486-.446 2.486-1.11s-1.82-1.107-2.484-1.107z" class="cls-2" transform="translate(-204.247 -104.927)"/>
        <circle id="Ellipse_1774" cx="2.492" cy="2.492" r="2.492" fill="#7abbf2" opacity="0.7" transform="translate(238.881 202.891)"/>
        <ellipse id="Ellipse_1775" cx="6.936" cy="6.935" class="cls-3" rx="6.936" ry="6.935" transform="translate(131.522 133.158)"/>
        <ellipse id="Ellipse_1776" cx="3.468" cy="3.467" class="cls-4" rx="3.468" ry="3.467" transform="translate(120.579 176.668)"/>
        <circle id="Ellipse_1783" cx="3.696" cy="3.696" r="3.696" class="cls-3" transform="translate(190.438 175.036)"/>
        <path id="Path_23151" d="M814 271.092h-.851c-.173 0-.6-.68-.6-.875v-.79c0-.617-.7-2.308-1.314-2.308s-1.314 1.691-1.314 2.308v.79c0 .278-.215.875-.477.875h-.851c-.617 0-2.308.478-2.308 1.1s1.692 1.1 2.308 1.1h1.007c.321 0 .313.33.313.5v1.054c0 .617.7 2.308 1.314 2.308s1.314-1.691 1.314-2.308v-1.054c0-.14.282-.5.438-.5H814c.617 0 2.309-.478 2.309-1.1s-1.696-1.1-2.309-1.1z" class="cls-3" transform="translate(-328.138 -101.657)"/>
        <ellipse id="Ellipse_1790" cx="3.489" cy="3.488" class="cls-4" rx="3.489" ry="3.488" transform="translate(505.249 234.027)"/>
        <ellipse id="Ellipse_1791" cx="3.489" cy="3.488" class="cls-4" rx="3.489" ry="3.488" transform="translate(414.273 154.439)"/>
        <ellipse id="Ellipse_1804" cx="3.468" cy="3.467" class="cls-2" rx="3.468" ry="3.467" transform="translate(467.089 130.003)"/>
        <circle id="Ellipse_1808" cx="3.696" cy="3.696" r="3.696" class="cls-2" transform="translate(443.659 198.807)"/>
        <circle id="Ellipse_2194" cx="3.696" cy="3.696" r="3.696" class="cls-3" transform="translate(107.659 234.807)"/>
    </g>
</svg>
