<svg xmlns="http://www.w3.org/2000/svg" id="W_Profile_Nav-tile_Relationship-Officer" width="36" height="36" viewBox="0 0 36 36">
    <defs>
        <style>
            .cls-2{fill:none;stroke-linecap:round;stroke-linejoin:round;stroke-width:1.75px;stroke:#0369dd}
        </style>
    </defs>
    <rect id="Rectangle_21762" width="36" height="36" fill="rgba(3,105,221,0.1)" rx="4"/>
    <g id="user" transform="translate(10 9)">
        <path id="Path_22933" d="M20 21.33v-2.11A4.114 4.114 0 0 0 16 15H8a4.114 4.114 0 0 0-4 4.22v2.11" class="cls-2" transform="translate(-4 -3.33)"/>
        <circle id="Ellipse_11" cx="4" cy="4" r="4" class="cls-2" transform="translate(4)"/>
        <g id="tie" transform="translate(-121.921 12.099)">
            <path id="Path_26297" fill="#0369dd" stroke="#0369dd" d="M132.219 100.71l-1.06-4.505a.265.265 0 1 0-.516.122l1.026 4.361-1.563 1.563-1.563-1.563 1.027-4.361a.265.265 0 0 0-.516-.121l-1.06 4.505a.264.264 0 0 0 .07.248l1.855 1.855a.266.266 0 0 0 .375 0l1.855-1.855a.265.265 0 0 0 .07-.249z" transform="translate(0 -95.538)"/>
        </g>
    </g>
</svg>
