<svg xmlns="http://www.w3.org/2000/svg" id="WM_Illus-B2B_Sign_in-up" width="134.786" height="125" viewBox="0 0 134.786 125">
    <defs>
        <style>
            .cls-4{fill:#08f}.cls-6{fill:#00305a}.cls-7{fill:#f4a28c}.cls-11{opacity:.08}.cls-12{fill:#7abbf2}
        </style>
    </defs>
    <path id="Path_23046" fill="#daf5fd" d="M62.5 0A62.5 62.5 0 1 1 0 62.5 62.5 62.5 0 0 1 62.5 0z" transform="translate(5.5)"/>
    <path id="Path_1470" fill="#08f" d="M91.558 248.912s-8.523-2.29-10.408-10.206c0 0 13.182-2.727 13.61 10.907z" opacity="0.58" transform="translate(-81.15 -163.864)"/>
    <path id="Path_1471" fill="#08f" d="M95.016 245.621s-5.983-9.349-.779-18.191c0 0 10.058 6.326 5.648 18.191z" opacity="0.73" transform="translate(-83.57 -161.421)"/>
    <path id="Path_1472" d="M97.81 247.415s3.116-9.949 12.6-11.865c0 0 1.807 6.443-6.1 11.865z" class="cls-4" transform="translate(-84.83 -163.215)"/>
    <path id="Path_1473" fill="#24285b" d="M89.89 250.53l1.768 11.795h10.876l1.55-11.795z" transform="translate(-83.082 -166.525)"/>
    <path id="Path_1476" d="M262.478 93s12.367 2.889 15.033 16.2 1.581 21.962 2.031 21.018 2.088-9.419 2.088-9.419l4.419-2.145s13.887 50.484-15.578 22.228S262.478 93 262.478 93z" class="cls-6" transform="translate(-177.849 -42.887)"/>
    <path id="Path_1478" d="M247.8 63.352s1.253 6.036.7 10.213a3.085 3.085 0 0 1-3.483 2.658 6.827 6.827 0 0 1-5.913-4.48l-2.468-5.125a5.533 5.533 0 0 1 1.727-6.15c3.158-2.896 8.863-.827 9.437 2.884z" class="cls-7" transform="translate(-173.834 -38.229)"/>
    <path id="Path_1479" d="M237.087 68l-.8 20.178 11.143-.361-3.891-14.531z" class="cls-7" transform="translate(-173.834 -38.682)"/>
    <path id="Path_1480" d="M246.274 63.489a24.886 24.886 0 0 1-5.695.237 5.135 5.135 0 0 1 .664 5.6 4.176 4.176 0 0 1-4.822 2.249l-.826-7.868a6.283 6.283 0 0 1 2.5-5.913 21.249 21.249 0 0 1 2.475-1.594c2.154-1.177 5.647-.057 7.489-1.832a1.49 1.49 0 0 1 2.458.693c.636 2.344.655 6.16-2.42 7.849a5.638 5.638 0 0 1-1.823.579z" class="cls-6" transform="translate(-173.795 -37.968)"/>
    <path id="Path_1481" d="M242.052 69.8s-.323-2.344-2.069-1.955-1.3 3.8 1.139 3.8z" class="cls-7" transform="translate(-173.968 -38.672)"/>
    <path id="Path_1482" d="M248.961 67.63l1.984 2.155a.949.949 0 0 1-.427 1.614l-2.287.712z" class="cls-7" transform="translate(-174.441 -38.663)"/>
    <path id="Path_1483" fill="#ce8172" d="M244.8 76.788a7.308 7.308 0 0 1-3.8-1.708s.6 3.645 5.049 6.786z" opacity="0.31" transform="translate(-174.074 -39.042)"/>
    <path id="Path_1484" fill="#fff" d="M224.389 89.128l7.654-.248s20.576.327 21.857 15.321-7.5 26.694-4.575 38.394l-27.916 3.569s-45.748-45.983 2.98-57.036z" transform="translate(-159.494 -41.459)"/>
    <path id="Path_23921" fill="#004b8d" d="M224.389 89.128l6.357 21.525 1.3-21.773s20.576.327 21.857 15.321-7.5 26.694-4.575 38.394l-27.916 3.569s-45.751-45.983 2.977-57.036z" transform="translate(-159.494 -41.459)"/>
    <path id="Path_1485" d="M223.825 104.74s9.445 7.562 3.164 21.112-2.405 17.857 7.007 15.354 13.223-12.687 13.223-12.687l4.628 14.3a19.079 19.079 0 0 0 .595 5.229l-27.916 3.569-1.013-1.059-12.643-17.777z" class="cls-11" transform="translate(-162.589 -46.953)"/>
    <path id="Rectangle_1048" d="M0 0H24.688V33.39H0z" class="cls-12" transform="rotate(9.25 -312.013 552.61)"/>
    <path id="Path_1486" d="M270.6 144.28s3.268 3.667.575 6.229-6.432 5.615-6.432 5.615l-9.366-1.608z" class="cls-11" transform="translate(-181.007 -60.649)"/>
    <path id="Rectangle_1049" d="M0 0H9.987V5.204H0z" class="cls-4" transform="rotate(9.25 -302.647 598.45)"/>
    <path id="Path_1487" d="M218.48 112.831c4.739-9.151-6.34-18.3-14.524-12.066a24.312 24.312 0 0 0-9.628 14.707c-3.1 16.086-1.307 30.531 9.693 34.74s39.662-16.667 39.662-16.667l-3.66-6.033s-25.047 17.916-31.08 5.667c-3.797-7.679 5.439-12.453 9.537-20.348z" class="cls-6" transform="translate(-156.39 -44.867)"/>
    <path id="Path_1489" d="M266.48 144.9s5-5.192 9.655-2.587-6.028 8.571-6.028 8.571z" class="cls-7" transform="translate(-183.972 -61.326)"/>
    <path id="Path_1492" d="M325.446 113.023s3.09-7.687 7.192-5.022-1.8 6.424-1.8 6.424z" class="cls-7" transform="rotate(-48 176.189 345.128)"/>
    <path id="Path_1521" d="M6.643 250.213H127.4c3.767 0 6.821 2.324 6.821 5.19v2.052c0 3.56-3.793 6.445-8.471 6.445H7.725C3.457 263.9 0 261.267 0 258.02v-2.755c0-2.791 2.974-5.054 6.643-5.054z" class="cls-12" transform="translate(.569 -154.559)"/>
    <path id="Path_23922" d="M1041.59 262.421l5.891 3.131-5.363 2.947 5.081 3.876-6.934 11.928-8.382-9.849 3.052-4.983-5.819-2.59 4.7-4.242 6.448 21.008z" class="cls-6" transform="translate(-969 -215)"/>
    <path id="Path_26023" d="M107.266 76.487l-3.728 2.421.383 15.586z" class="cls-6" transform="translate(0 -.027)"/>
</svg>
